{
.appVersion = "3337";
.formatVersion = 3;
DisplayStrings = (
"Im Anfang war das Wort, und das Wort war bei Gott, und Gott war das Wort. Dasselbe war im Anfang bei Gott. Alle Dinge sind durch dasselbe gemacht, und ohne dasselbe ist nichts gemacht, was gemacht ist. In ihm war das Leben, und das Leben war das Licht der Menschen. Und das Licht scheint in der Finsternis, und die Finsternis hat’s nicht ergriffen. Es war ein Mensch, von Gott gesandt, der hieß Johannes. Der kam zum Zeugnis, um von dem Licht zu zeugen, damit sie alle durch ihn glaubten. Er war nicht das Licht, sondern er sollte zeugen von dem Licht. Das war das wahre Licht, das alle Menschen erleuchtet, die in diese Welt kommen. Er war in der Welt, und die Welt ist durch ihn gemacht; aber die Welt erkannte ihn nicht. "
);
classes = (
{
automatic = 1;
code = "A Aacute Acircumflex Adieresis Agrave Aring Atilde AE B C Ccedilla D Eth E Eacute Ecircumflex Edieresis Egrave F G H I IJ Iacute Icircumflex Idieresis Igrave J Jacute K L M N Ntilde O Oacute Ocircumflex Odieresis Ograve Oslash Otilde OE P Thorn Q R S Germandbls T U Uacute Ucircumflex Udieresis Ugrave V W Wacute Wcircumflex Wdieresis Wgrave X Y Yacute Ycircumflex Ydieresis Ygrave Z";
name = Uppercase;
}
);
customParameters = (
{
name = vendorID;
value = TBLD;
},
{
name = fsType;
value = (
3
);
}
);
date = "2024-11-13 15:33:12 +0000";
familyName = OHamburgC;
featurePrefixes = (
{
automatic = 1;
code = "languagesystem DFLT dflt;

languagesystem latn dflt;
languagesystem latn NLD;
";
name = Languagesystems;
}
);
features = (
{
automatic = 1;
code = "feature locl;
feature tnum;
feature case;
";
tag = aalt;
},
{
automatic = 1;
code = "lookup ccmp_DFLT_1 {
	@CombiningTopAccents = [acutecomb circumflexcomb dieresiscomb gravecomb ringcomb tildecomb];
	lookupflag UseMarkFilteringSet @CombiningTopAccents;
	sub i' @CombiningTopAccents by idotless;
	sub j' @CombiningTopAccents by jdotless;
} ccmp_DFLT_1;

lookup ccmp_Other_1 {
	lookupflag 0;

glyphs = (
{
color = 6;
glyphname = A;
lastChange = "2025-01-05 22:22:06 +0000";
layers = (
{
anchors = (
{
name = bottom;
pos = (354,0);
},
{
name = ogonek;
pos = (636,10);
},
{
name = top;
pos = (354,616);
}
);
layerId = m005;
shapes = (
{
closed = 1;
nodes = (
(693,-2,l),
(693,23,l),
(623,37,o),
(602,63,o),
(572,134,cs),
(504,305,o),
(436,476,o),
(368,647,c),
(322,575,l),
(319,554,l),
(483,140,ls),
(521,43,o),
(505,42,o),
(421,24,c),
(421,-1,l)
);
},
{
closed = 1;
nodes = (
(266,0,l),
(266,25,l),
(195,31,o),
(166,57,o),
(194,130,cs),
(361,563,l),
(322,575,l),
(257,403,o),
(187,198,o),
(125,83,cs),
(106,49,o),
(62,25,o),
(18,25,c),
(18,0,l)
);
},
{
closed = 1;
nodes = (
(477,257,l),
(463,297,l),
(231,298,l),
(214,258,l)
);
}
);
width = 711;
}
);
unicode = 65;
},
{
glyphname = AE;
lastChange = "2025-01-04 09:15:55 +0000";
layers = (
{
layerId = m005;
shapes = (
{
closed = 1;
nodes = (
(267,0,l),
(267,23,l),
(193,23,o),
(156,60,o),
(195,130,cs),
(457,596,l),
(406,619,l),
(341,447,o),
(185,198,o),
(123,83,cs),
(104,49,o),
(60,25,o),
(16,25,c),
(16,0,l)
);
},
{
closed = 1;
nodes = (
(528,274,l),
(514,314,l),
(253,314,l),
(236,274,l)
);
},
{
closed = 1;
nodes = (
(401,-1,o),
(449,0,o),
(494,0,c),
(641,0,o),
(767,-1,o),
(844,-3,c),
(858,44,o),
(868,110,o),
(868,157,c),
(839,157,l),
(827,90,o),
(788,45,o),
(745,42,cs),
(713,40,o),
(681,39,o),
(624,39,cs),
(586,39,o),
(554,51,o),
(546,68,cs),
(543,74,o),
(541,90,o),
(541,107,cs),
(539,309,ls),
(539,328,o),
(540,407,o),
(541,509,cs),
(541,537,o),
(552,561,o),
(568,569,cs),
(578,574,o),
(602,577,o),
(624,577,cs),
(652,577,o),
(662,576,o),
(694,574,cs),
(719,572,o),
(742,544,o),
(750,499,c),
(784,499,l),
(785,536,o),
(790,586,o),
(797,619,c),
(732,617,o),
(629,616,o),
(504,616,c),
(455,616,o),
(431,617,o),
(406,619,c),
(403,598,l),
(445,586,o),
(453,572,o),
(457,565,cs),
(461,557,o),
(463,541,o),
(463,525,cs),
(465,312,l),
(463,91,ls),
(463,64,o),
(451,40,o),
(435,32,cs),
(437,33,o),
(413,27,o),
(379,18,c),
(379,-3,l)
);
},
{
closed = 1;
nodes = (
(731,184,l),
(725,250,o),
(725,342,o),
(731,408,c),
(705,408,l),
(704,402,o),
(699,388,o),
(694,374,c),
(677,338,o),
(686,314,o),
(626,314,cs),
(487,314,l),
(487,274,l),
(626,274,ls),
(693,274,o),
(683,252,o),
(695,220,cs),
(706,184,l)
);
}
);
width = 904;
}
);
unicode = 198;
},
{
color = 6;
glyphname = B;
lastChange = "2025-01-05 22:58:41 +0000";
layers = (
{
anchors = (
{
name = bottom;
pos = (280,0);
},
{
name = center;
pos = (138,154);
},
{
name = top;
pos = (280,616);
}
);
layerId = m005;
shapes = (
{
closed = 1;
nodes = (
(20,0,l),
(309,0,l),
(309,40,l),
(264,40,o),
(223,38,o),
(204,54,cs),
(195,62,o),
(190,73,o),
(190,91,cs),
(188,307,o),
(187,377,o),
(191,574,c),
(208,576,o),
(266,576,o),
(289,576,c),
(289,616,l),
(20,616,l),
(20,591,l),
(54,581,o),
(78,582,o),
(92,572,cs),
(102,565,o),
(107,552,o),
(107,525,cs),
(108,341,o),
(109,253,o),
(109,312,cs),
(109,373,o),
(108,282,o),
(107,91,cs),
(107,65,o),
(101,51,o),
(92,43,cs),
(76,29,o),
(50,31,o),
(20,25,c)
);
},
{
closed = 1;
nodes = (
(177,318,o),
(189,318,o),
(217,318,cs),
(379,318,o),
(482,378,o),
(482,481,cs),
(482,560,o),
(402,616,o),
(289,616,c),
(289,576,l),
(350,576,o),
(393,529,o),
(393,462,cs),
(393,387,o),
(324,348,o),
(210,348,cs),
(150,348,l),
(151,318,l)
);
},
{
closed = 1;
nodes = (
(434,0,o),
(522,79,o),
(522,191,cs),
(522,280,o),
(437,333,o),
(316,338,cs),
(132,346,l),
(132,314,l),
(154,314,o),
(166,314,o),
(203,314,cs),
(338,314,o),
(429,263,o),
(429,171,cs),
(429,94,o),
(379,40,o),
(309,40,c),
(309,0,l)
);
}
);
width = 567;
}
);
unicode = 66;
},
{
color = 1;
glyphname = C;
lastChange = "2025-01-05 22:58:53 +0000";
layers = (
{
anchors = (
{
name = bottom;
pos = (358,0);
},
{
name = top;
pos = (358,616);
}
);
backgroundImage = {
imagePath = "../../Desktop/Bildschirmfoto 2024-12-24 um 08.52.09.png";
pos = (714,-952);
scale = (-1.4,1.4);
};
layerId = m005;
shapes = (
{
closed = 1;
nodes = (
(479,-11,o),
(572,9,o),
(628,38,c),
(646,106,o),
(662,174,o),
(666,201,c),
(630,200,l),
(606,102,o),
(520,33,o),
(422,33,cs),
(268,33,o),
(162,158,o),
(162,335,cs),
(162,482,o),
(265,586,o),
(414,586,cs),
(506,586,o),
(582,522,o),
(597,432,c),
(637,432,l),
(634,599,l),
(584,573,l),
(551,605,o),
(477,627,o),
(404,627,cs),
(197,627,o),
(54,496,o),
(54,312,cs),
(54,123,o),
(197,-11,o),
(404,-11,cs)
);
}
);
width = 720;
}
);
unicode = 67;
},
{
color = 6;
glyphname = D;
lastChange = "2025-01-05 22:59:04 +0000";
layers = (
{
anchors = (
{
name = bottom;
pos = (352,0);
},
{
name = center;
pos = (174,308);
},
{
name = top;
pos = (352,616);
}
);
background = {
shapes = (
{
closed = 1;
nodes = (
(20,0,l),
(303,0,l),
(303,40,l),
(258,40,o),
(223,38,o),
(204,54,cs),
(195,62,o),
(190,73,o),
(190,91,cs),
(188,307,o),
(187,377,o),
(191,574,c),
(208,576,o),
(260,576,o),
(283,576,c),
(283,616,l),
(20,616,l),
(20,591,l),
(54,581,o),
(78,582,o),
(92,572,cs),
(102,565,o),
(107,552,o),
(107,525,cs),
(108,341,o),
(109,253,o),
(109,312,cs),
(109,373,o),
(108,282,o),
(107,91,cs),
(107,65,o),
(101,51,o),
(92,43,cs),
(76,29,o),
(50,31,o),
(20,25,c)
);
}
);
};
backgroundImage = {
imagePath = "../../Desktop/Bildschirmfoto 2024-12-24 um 13.06.05.png";
pos = (759,-1011);
scale = (-1.4,1.4);
};
layerId = m005;
shapes = (
{
closed = 1;
nodes = (
(20,0,l),
(41,0,o),
(103,0,o),
(145,0,cs),
(145,0,o),
(195,1,o),
(313,-3,c),
(327,38,l),
(275,38,o),
(227,33,o),
(204,55,cs),
(195,63,o),
(190,74,o),
(190,91,cs),
(190,189,o),
(190,476,o),
(191,574,c),
(237,577,o),
(278,578,o),
(324,578,c),
(340,619,l),
(259,618,o),
(188,616,o),
(148,616,c),
(102,616,o),
(49,616,o),
(20,616,c),
(20,590,l),
(56,583,o),
(79,582,o),
(92,572,cs),
(103,565,o),
(107,552,o),
(107,525,cs),
(108,411,o),
(109,323,o),
(109,312,cs),
(109,302,o),
(108,210,o),
(107,91,cs),
(107,66,o),
(102,52,o),
(92,43,cs),
(78,31,o),
(53,30,o),
(20,25,c)
);
},
{
closed = 1;
nodes = (
(313,-3,l),
(514,-2,o),
(657,135,o),
(657,327,cs),
(657,498,o),
(526,619,o),
(340,619,c),
(324,578,l),
(465,578,o),
(564,462,o),
(564,298,cs),
(564,146,o),
(466,38,o),
(327,38,c)
);
}
);
width = 711;
}
);
unicode = 68;
},
{
color = 2;
glyphname = Eth;
lastChange = "2025-01-04 09:15:55 +0000";
layers = (
{
layerId = m005;
shapes = (
{
ref = D;
},
{
closed = 1;
nodes = (
(32,292,l),
(269,292,l),
(269,337,l),
(32,337,l)
);
}
);
width = 712;
}
);
unicode = 208;
},
{
color = 6;
glyphname = E;
lastChange = "2025-01-05 22:59:18 +0000";
layers = (
{
anchors = (
{
name = bottom;
pos = (288,0);
},
{
name = ogonek;
pos = (522,10);
},
{
name = top;
pos = (288,616);
},
{
name = topleft;
pos = (16,616);
}
);
background = {
shapes = (
{
closed = 1;
nodes = (
(20,0,l),
(303,0,l),
(303,40,l),
(258,40,o),
(223,38,o),
(204,54,cs),
(195,62,o),
(190,73,o),
(190,91,cs),
(188,307,o),
(187,377,o),
(191,574,c),
(208,576,o),
(260,576,o),
(283,576,c),
(283,616,l),
(20,616,l),
(20,591,l),
(54,581,o),
(78,582,o),
(92,572,cs),
(102,565,o),
(107,552,o),
(107,525,cs),
(108,341,o),
(109,253,o),
(109,312,cs),
(109,373,o),
(108,282,o),
(107,91,cs),
(107,65,o),
(101,51,o),
(92,43,cs),
(76,29,o),
(50,31,o),
(20,25,c)
);
}
);
};
layerId = m005;
shapes = (
{
closed = 1;
nodes = (
(45,-1,o),
(93,0,o),
(138,0,c),
(281,0,o),
(439,-1,o),
(516,-3,c),
(528,44,o),
(538,110,o),
(540,157,c),
(511,157,l),
(499,90,o),
(460,45,o),
(417,42,cs),
(385,40,o),
(321,39,o),
(264,39,cs),
(230,39,o),
(214,44,o),
(203,54,cs),
(193,64,o),
(190,78,o),
(190,98,cs),
(190,267,o),
(189,414,o),
(191,574,c),
(228,576,o),
(257,576,o),
(279,576,cs),
(307,576,o),
(334,576,o),
(366,574,cs),
(391,572,o),
(414,544,o),
(422,499,c),
(456,499,l),
(457,536,o),
(462,586,o),
(469,619,c),
(404,617,o),
(269,616,o),
(148,616,c),
(99,616,o),
(47,617,o),
(20,618,c),
(20,593,l),
(53,588,o),
(77,585,o),
(92,571,cs),
(101,562,o),
(107,548,o),
(107,525,cs),
(109,380,o),
(109,236,o),
(107,91,cs),
(107,67,o),
(102,52,o),
(92,42,cs),
(78,29,o),
(55,26,o),
(20,23,c),
(20,-2,l)
);
},
{
closed = 1;
nodes = (
(403,206,l),
(398,272,o),
(398,364,o),
(403,430,c),
(377,430,l),
(376,424,o),
(371,410,o),
(366,396,c),
(349,360,o),
(326,336,o),
(266,336,cs),
(131,336,l),
(131,296,l),
(266,296,ls),
(333,296,o),
(355,274,o),
(367,242,cs),
(378,206,l)
);
}
);
width = 576;
}
);
unicode = 69;
},
{
glyphname = F;
lastChange = "2025-01-04 18:37:07 +0000";
layers = (
{
anchors = (
{
name = bottom;
pos = (240,0);
},
{
name = top;
pos = (240,616);
}
);
background = {
shapes = (
{
closed = 1;
nodes = (
(20,0,l),
(303,0,l),
(303,40,l),
(258,40,o),
(223,38,o),
(204,54,cs),
(195,62,o),
(190,73,o),
(190,91,cs),
(188,307,o),
(187,377,o),
(191,574,c),
(208,576,o),
(260,576,o),
(283,576,c),
(283,616,l),
(20,616,l),
(20,591,l),
(54,581,o),
(78,582,o),
(92,572,cs),
(102,565,o),
(107,552,o),
(107,525,cs),
(108,341,o),
(109,253,o),
(109,312,cs),
(109,373,o),
(108,282,o),
(107,91,cs),
(107,65,o),
(101,51,o),
(92,43,cs),
(76,29,o),
(50,31,o),
(20,25,c)
);
}
);
};
layerId = m005;
shapes = (
{
closed = 1;
nodes = (
(45,0,o),
(251,0,o),
(300,0,c),
(300,29,l),
(254,35,o),
(221,35,o),
(203,54,cs),
(194,64,o),
(189,79,o),
(189,103,cs),
(187,260,o),
(188,417,o),
(191,574,c),
(212,575,o),
(261,576,o),
(283,576,cs),
(311,576,o),
(333,576,o),
(365,574,cs),
(390,572,o),
(412,544,o),
(420,499,c),
(452,499,l),
(454,536,o),
(461,586,o),
(468,619,c),
(403,617,o),
(268,616,o),
(148,616,c),
(99,616,o),
(48,617,o),
(20,618,c),
(20,592,l),
(54,586,o),
(77,584,o),
(92,572,cs),
(101,563,o),
(107,550,o),
(107,525,cs),
(109,380,o),
(109,236,o),
(107,91,cs),
(107,67,o),
(103,53,o),
(94,44,cs),
(81,30,o),
(58,27,o),
(20,23,c),
(20,-1,l)
);
},
{
closed = 1;
nodes = (
(408,206,l),
(402,272,o),
(402,364,o),
(408,430,c),
(386,430,l),
(385,424,o),
(380,410,o),
(375,396,c),
(358,360,o),
(335,336,o),
(275,336,cs),
(141,336,l),
(141,296,l),
(275,296,ls),
(342,296,o),
(364,274,o),
(376,242,cs),
(387,206,l)
);
}
);
width = 486;
}
);
unicode = 70;
},
{
color = 6;
glyphname = G;
lastChange = "2025-01-05 22:59:36 +0000";
layers = (
{
anchors = (
{
name = bottom;
pos = (354,0);
},
{
name = top;
pos = (354,616);
}
);
backgroundImage = {
imagePath = "../../Desktop/Bildschirmfoto 2024-12-23 um 19.38.00.png";
pos = (715,-876);
scale = (-1.37,1.3692);
};
layerId = m005;
shapes = (
{
closed = 1;
nodes = (
(479,-11,o),
(580,11,o),
(635,43,c),
(631,56,l),
(613,57,o),
(603,67,o),
(603,79,c),
(603,208,l),
(603,233,o),
(616,255,o),
(639,260,c),
(667,266,l),
(667,295,l),
(419,295,l),
(419,261,l),
(476,252,o),
(520,233,o),
(520,196,c),
(520,76,l),
(520,55,o),
(485,33,o),
(440,33,cs),
(258,33,o),
(148,141,o),
(148,333,cs),
(148,482,o),
(254,588,o),
(409,588,cs),
(505,588,o),
(575,528,o),
(580,444,c),
(611,444,l),
(613,495,o),
(620,558,o),
(627,595,c),
(577,614,o),
(483,627,o),
(401,627,cs),
(196,627,o),
(54,495,o),
(54,308,cs),
(54,121,o),
(194,-11,o),
(395,-11,cs)
);
}
);
width = 711;
}
);
unicode = 71;
},
{
color = 4;
glyphname = H;
lastChange = "2025-01-05 22:59:48 +0000";
layers = (
{
anchors = (
{
name = bottom;
pos = (376,0);
},
{
name = center;
pos = (376,462);
},
{
name = top;
pos = (376,616);
},
{
name = topleft;
pos = (16,616);
}
);
background = {
shapes = (
{
closed = 1;
nodes = (
(180,609,l,{
"Letterink-NibData" = {
AngleInDegrees = "0";
};
}),
(176,616,l,{
"Letterink-NibData" = {
AngleInDegrees = "360";
};
}),
(107,576,l),
(107,7,l,{
"Letterink-NibData" = {
AngleInDegrees = "360";
};
}),
(111,0,l,{
"Letterink-NibData" = {
AngleInDegrees = "360";
};
}),
(180,40,l),
(180,304,l),
(594,304,l),
(594,7,l,{
"Letterink-NibData" = {
AngleInDegrees = "360";
};
}),
(598,0,l,{
"Letterink-NibData" = {
AngleInDegrees = "360";
};
}),
(668,40,l),
(668,609,l,{
"Letterink-NibData" = {
AngleInDegrees = "0";
};
}),
(664,616,l,{
"Letterink-NibData" = {
AngleInDegrees = "359.99999";
};
}),
(594,576,l),
(594,351,l),
(180,351,l)
);
},
{
closed = 0;
nodes = (
(252,616,l),
(252,591,l),
(224,583,o),
(206,576,o),
(195,564,cs),
(186,553,o),
(182,538,o),
(182,512,cs)
);
}
);
};
layerId = m005;
shapes = (
{
closed = 1;
nodes = (
(284,0,l),
(284,25,l),
(257,33,o),
(214,39,o),
(203,51,cs),
(193,61,o),
(188,77,o),
(188,104,cs),
(187,178,o),
(187,252,o),
(186,326,cs),
(185,388,o),
(187,450,o),
(188,512,cs),
(188,539,o),
(194,556,o),
(203,565,cs),
(214,577,o),
(257,583,o),
(284,591,c),
(284,616,l),
(12,616,l),
(12,591,l),
(40,583,o),
(83,576,o),
(94,564,cs),
(103,553,o),
(107,538,o),
(107,512,cs),
(108,450,o),
(109,389,o),
(109,327,cs),
(109,253,o),
(108,178,o),
(107,104,cs),
(107,78,o),
(103,63,o),
(94,52,cs),
(83,40,o),
(40,33,o),
(12,25,c),
(12,0,l)
);
},
{
closed = 1;
nodes = (
(735,0,l),
(735,25,l),
(708,33,o),
(666,39,o),
(655,51,cs),
(645,61,o),
(640,77,o),
(640,104,cs),
(639,179,o),
(639,255,o),
(638,330,cs),
(637,391,o),
(639,451,o),
(640,512,cs),
(640,539,o),
(644,554,o),
(655,565,cs),
(666,577,o),
(708,583,o),
(735,591,c),
(735,616,l),
(463,616,l),
(463,591,l),
(491,583,o),
(535,576,o),
(546,564,cs),
(555,553,o),
(559,538,o),
(559,512,cs),
(560,451,o),
(561,390,o),
(561,329,cs),
(561,254,o),
(560,179,o),
(559,104,cs),
(559,78,o),
(555,63,o),
(546,52,cs),
(535,40,o),
(491,33,o),
(463,25,c),
(463,0,l)
);
},
{
closed = 1;
nodes = (
(592,304,l),
(592,349,l),
(154,349,l),
(154,304,l)
);
}
);
width = 747;
}
);
note = H;
unicode = 72;
},
{
color = 4;
glyphname = I;
lastChange = "2025-01-05 22:59:57 +0000";
layers = (
{
anchors = (
{
name = bottom;
pos = (148,0);
},
{
name = ogonek;
pos = (270,10);
},
{
name = top;
pos = (148,616);
},
{
name = topleft;
pos = (16,616);
}
);
background = {
shapes = (
{
closed = 1;
nodes = (
(182,40,l),
(182,609,l,{
"Letterink-NibData" = {
AngleInDegrees = "0";
};
}),
(178,616,l,{
"Letterink-NibData" = {
AngleInDegrees = "360";
};
}),
(109,576,l),
(109,7,l,{
"Letterink-NibData" = {
AngleInDegrees = "360";
};
}),
(113,0,l,{
"Letterink-NibData" = {
AngleInDegrees = "360";
};
})
);
}
);
};
layerId = m005;
shapes = (
{
closed = 1;
nodes = (
(12,0,l),
(285,0,l),
(285,25,l),
(240,31,o),
(217,32,o),
(205,41,cs),
(194,49,o),
(190,63,o),
(190,91,cs),
(188,217,o),
(190,327,o),
(190,525,cs),
(190,555,o),
(199,570,o),
(214,577,cs),
(231,586,o),
(255,586,o),
(285,591,c),
(285,616,l),
(20,616,l),
(20,593,l),
(55,587,o),
(79,586,o),
(92,575,cs),
(102,566,o),
(107,552,o),
(107,525,cs),
(109,382,o),
(109,234,o),
(107,91,cs),
(107,62,o),
(103,47,o),
(93,39,cs),
(78,27,o),
(53,30,o),
(12,25,c)
);
}
);
width = 297;
}
);
note = I;
unicode = 73;
},
{
glyphname = J;
lastChange = "2025-01-05 23:00:24 +0000";
layers = (
{
anchors = (
{
name = bottom;
pos = (136,0);
},
{
name = top;
pos = (136,616);
}
);
layerId = m005;
shapes = (
{
closed = 1;
nodes = (
(30,-232,o),
(82,-192,o),
(101,-166,cs),
(153,-98,o),
(183,29,o),
(181,148,cs),
(179,341,o),
(179,332,o),
(181,525,cs),
(181,555,o),
(186,569,o),
(199,577,cs),
(213,584,o),
(236,585,o),
(271,591,c),
(271,616,l),
(20,616,l),
(20,591,l),
(53,587,o),
(77,586,o),
(92,574,cs),
(103,565,o),
(108,551,o),
(108,525,cs),
(108,81,ls),
(108,33,o),
(108,-90,o),
(77,-138,cs),
(70,-150,o),
(60,-157,o),
(48,-157,cs),
(29,-158,o),
(27,-135,o),
(8,-134,cs),
(-25,-134,o),
(-48,-163,o),
(-48,-203,cs),
(-48,-220,o),
(-30,-232,o),
(-4,-232,cs)
);
}
);
width = 279;
}
);
unicode = 74;
},
{
color = 6;
glyphname = K;
lastChange = "2025-01-05 23:00:50 +0000";
layers = (
{
anchors = (
{
name = bottom;
pos = (320,0);
},
{
name = top;
pos = (320,616);
}
);
background = {
shapes = (
{
closed = 0;
nodes = (
(471,91,l),
(471,55,o),
(465,41,o),
(444,31,cs),
(433,26,o),
(415,25,o),
(388,18,c),
(388,0,l),
(633,0,l),
(633,18,l),
(587,31,o),
(564,33,o),
(555,51,cs),
(551,60,o),
(549,73,o),
(549,91,c)
);
},
{
closed = 0;
nodes = (
(493,525,l),
(493,561,o),
(499,575,o),
(520,585,cs),
(531,590,o),
(549,591,o),
(576,598,c),
(576,616,l),
(331,616,l),
(331,598,l),
(377,585,o),
(400,583,o),
(409,565,cs),
(413,556,o),
(415,543,o),
(415,525,cs)
);
}
);
};
layerId = m005;
shapes = (
{
closed = 1;
nodes = (
(20,0,l),
(268,0,l),
(268,18,l),
(235,27,o),
(215,29,o),
(204,36,cs),
(192,44,o),
(184,58,o),
(184,91,cs),
(183,156,o),
(184,424,o),
(185,525,cs),
(185,556,o),
(191,572,o),
(204,581,cs),
(217,590,o),
(238,594,o),
(268,598,c),
(268,616,l),
(23,616,l),
(23,592,l),
(69,585,o),
(92,583,o),
(101,565,cs),
(105,556,o),
(107,543,o),
(107,525,cs),
(109,382,o),
(109,234,o),
(107,91,cs),
(107,66,o),
(102,52,o),
(92,44,cs),
(78,33,o),
(54,33,o),
(20,25,c)
);
},
{
closed = 1;
nodes = (
(415,503,l),
(451,540,o),
(496,574,o),
(524,586,cs),
(538,592,o),
(568,597,o),
(572,598,c),
(572,616,l),
(324,616,l),
(324,598,l),
(364,593,o),
(388,580,o),
(388,557,cs),
(388,543,o),
(379,526,o),
(361,505,c),
(138,267,l),
(161,240,l)
);
},
{
closed = 1;
nodes = (
(621,18,l),
(558,34,o),
(534,48,o),
(484,99,c),
(251,362,l),
(193,301,l),
(265,217,o),
(391,72,o),
(420,40,cs),
(449,8,o),
(475,-4,o),
(518,-3,cs),
(621,0,l)
);
}
);
width = 630;
}
);
unicode = 75;
},
{
color = 6;
glyphname = L;
lastChange = "2025-01-05 23:09:26 +0000";
layers = (
{
anchors = (
{
name = bottom;
pos = (304,0);
},
{
name = center;
pos = (304,308);
},
{
name = top;
pos = (304,616);
},
{
name = topright;
pos = (592,616);
}
);
layerId = m005;
shapes = (
{
closed = 1;
nodes = (
(20,-3,l),
(108,-1,o),
(188,0,o),
(268,0,c),
(268,43,l),
(206,45,o),
(189,43,o),
(189,105,cs),
(187,234,o),
(186,318,o),
(189,517,cs),
(189,553,o),
(191,567,o),
(212,577,cs),
(223,582,o),
(241,585,o),
(276,588,c),
(276,616,l),
(20,616,l),
(20,592,l),
(55,587,o),
(78,585,o),
(91,576,cs),
(102,568,o),
(106,554,o),
(107,525,cs),
(110,382,o),
(109,234,o),
(106,91,cs),
(105,63,o),
(102,49,o),
(92,40,cs),
(79,30,o),
(57,29,o),
(20,23,c)
);
},
{
closed = 1;
nodes = (
(347,3,o),
(453,2,o),
(525,-2,c),
(563,108,o),
(585,187,o),
(585,187,c),
(556,200,l),
(513,104,o),
(439,48,o),
(373,43,c),
(329,42,o),
(289,43,o),
(268,43,c),
(268,0,l)
);
}
);
width = 621;
}
);
unicode = 76;
},
{
glyphname = M;
lastChange = "2025-01-05 23:01:14 +0000";
layers = (
{
anchors = (
{
name = bottom;
pos = (428,0);
},
{
name = top;
pos = (428,616);
}
);
backgroundImage = {
angle = -0.3;
imagePath = "../../Desktop/Bildschirmfoto 2024-12-24 um 15.40.08.png";
pos = (847,-1015);
scale = (-1.4,1.4);
};
layerId = m005;
shapes = (
{
closed = 1;
nodes = (
(702,586,l),
(672,616,l),
(423,107,l),
(441,117,l),
(213,616,l),
(44,616,l),
(44,591,l),
(84,587,ls),
(113,584,o),
(142,565,o),
(154,540,cs),
(409,-16,l)
);
},
{
closed = 1;
nodes = (
(244,1,l),
(244,26,l),
(216,34,o),
(168,41,o),
(157,53,cs),
(148,64,o),
(143,79,o),
(144,105,cs),
(164,561,l),
(124,591,l),
(104,105,ls),
(103,78,o),
(98,61,o),
(89,52,cs),
(78,40,o),
(41,34,o),
(12,26,c),
(12,1,l)
);
},
{
closed = 1;
nodes = (
(840,0,l),
(840,25,l),
(806,33,o),
(782,41,o),
(772,51,cs),
(758,65,o),
(757,82,o),
(757,104,cs),
(755,216,o),
(753,401,o),
(753,529,cs),
(753,544,o),
(759,556,o),
(768,566,cs),
(780,578,o),
(798,586,o),
(816,591,c),
(816,616,l),
(672,616,l),
(679,104,ls),
(679,80,o),
(679,63,o),
(666,50,cs),
(650,34,o),
(612,27,o),
(589,25,c),
(590,0,l)
);
}
);
width = 864;
}
);
unicode = 77;
},
{
color = 6;
glyphname = N;
lastChange = "2025-01-05 23:01:38 +0000";
layers = (
{
anchors = (
{
name = bottom;
pos = (376,0);
},
{
name = top;
pos = (376,616);
}
);
layerId = m005;
shapes = (
{
closed = 1;
nodes = (
(657,-11,l),
(657,157,o),
(657,443,o),
(657,512,c),
(617,512,l),
(617,97,l),
(637,106,l),
(149,616,l),
(12,616,l),
(12,591,l),
(41,587,o),
(62,579,o),
(76,566,cs),
(95,548,o),
(129,514,o),
(129,514,c),
(631,-11,l)
);
},
{
closed = 1;
nodes = (
(244,0,l),
(244,25,l),
(216,33,o),
(175,35,o),
(161,52,cs),
(148,68,o),
(148,78,o),
(148,104,c),
(108,104,l),
(108,77,o),
(107,65,o),
(93,51,cs),
(76,34,o),
(39,33,o),
(12,25,c),
(12,0,l)
);
},
{
closed = 1;
nodes = (
(148,104,l),
(148,561,l),
(108,591,l),
(108,104,l)
);
},
{
closed = 1;
nodes = (
(657,512,l),
(657,542,o),
(662,558,o),
(674,567,cs),
(686,577,o),
(706,581,o),
(737,588,c),
(737,616,l),
(521,616,l),
(521,591,l),
(559,584,o),
(586,582,o),
(601,568,cs),
(612,557,o),
(617,541,o),
(617,512,c)
);
}
);
width = 756;
}
);
unicode = 78;
},
{
color = 4;
glyphname = O;
lastChange = "2025-01-04 18:37:07 +0000";
layers = (
{
anchors = (
{
name = bottom;
pos = (378,0);
},
{
name = center;
pos = (378,308);
},
{
name = ogonek;
pos = (682,10);
},
{
name = top;
pos = (378,616);
},
{
name = topleft;
pos = (18,616);
},
{
name = topright;
pos = (738,616);
}
);
background = {
shapes = (
{
closed = 1;
nodes = (
(646,111,o),
(701,209,o),
(704,323,c,{
"Letterink-NibData" = {
AngleInDegrees = "359.99999";
};
}),
(701,395,o),
(690,434,o),
(660,483,cs,{
"Letterink-NibData" = {
AngleInDegrees = "0";
};
}),
(599,582,o),
(513,633,o),
(409,633,cs),
(360,633,o),
(312,621,o),
(271,597,cs,{
"Letterink-NibData" = {
AngleInDegrees = "359.99999";
};
}),
(201,557,ls,{
"Letterink-NibData" = {
AngleInDegrees = "359.99999";
};
}),
(175,542,o),
(123,495,o),
(106,471,cs,{
"Letterink-NibData" = {
AngleInDegrees = "360";
};
}),
(66,415,o),
(48,359,o),
(48,290,cs),
(48,121,o),
(183,-21,o),
(343,-21,cs),
(392,-21,o),
(444,-7,o),
(488,19,cs,{
"Letterink-NibData" = {
AngleInDegrees = "360";
};
}),
(557,59,ls,{
"Letterink-NibData" = {
AngleInDegrees = "0";
};
})
);
},
{
closed = 1;
nodes = (
(482,32,o),
(450,26,o),
(409,26,cs),
(335,26,o),
(252,61,o),
(207,111,cs,{
"Letterink-NibData" = {
AngleInDegrees = "360";
};
}),
(195,123,o),
(182,141,o),
(162,168,c,{
"Letterink-NibData" = {
AngleInDegrees = "359.99999";
};
}),
(131,236,o),
(121,271,o),
(121,323,cs),
(121,425,o),
(159,501,o),
(243,566,c,{
"Letterink-NibData" = {
AngleInDegrees = "0";
};
}),
(285,583,o),
(301,586,o),
(343,586,cs),
(448,586,o),
(529,538,o),
(593,438,c,{
"Letterink-NibData" = {
AngleInDegrees = "359.99999";
};
}),
(620,389,o),
(631,347,o),
(631,289,cs,{
"Letterink-NibData" = {
AngleInDegrees = "359.99999";
};
}),
(629,192,o),
(586,102,o),
(515,47,c,{
"Letterink-NibData" = {
AngleInDegrees = "0";
};
})
);
}
);
};
layerId = m005;
shapes = (
{
closed = 1;
nodes = (
(567,-11,o),
(702,121,o),
(702,308,cs),
(702,494,o),
(567,626,o),
(376,626,cs),
(187,626,o),
(54,494,o),
(54,308,cs),
(54,121,o),
(187,-11,o),
(376,-11,cs)
);
},
{
closed = 1;
nodes = (
(150,471,o),
(237,585,o),
(359,585,cs),
(504,585,o),
(606,463,o),
(606,298,cs),
(606,144,o),
(518,30,o),
(393,30,cs),
(251,30,o),
(150,152,o),
(150,318,cs)
);
}
);
width = 756;
}
);
note = O;
unicode = 79;
},
{
color = 2;
glyphname = Oslash;
lastChange = "2025-01-05 23:01:58 +0000";
layers = (
{
layerId = m005;
shapes = (
{
ref = O;
},
{
closed = 1;
nodes = (
(85,39,l),
(114,10,l),
(668,565,l),
(639,594,l)
);
}
);
width = 756;
}
);
unicode = 216;
},
{
glyphname = OE;
lastChange = "2025-01-05 23:02:36 +0000";
layers = (
{
layerId = m005;
shapes = (
{
closed = 1;
nodes = (
(567,-11,o),
(654,121,o),
(654,308,cs),
(654,494,o),
(567,626,o),
(376,626,cs),
(187,626,o),
(56,494,o),
(56,308,cs),
(56,121,o),
(187,-11,o),
(376,-11,cs)
);
},
{
closed = 1;
nodes = (
(152,471,o),
(239,585,o),
(361,585,cs),
(504,585,o),
(582,463,o),
(582,298,cs),
(582,144,o),
(518,30,o),
(393,30,cs),
(251,30,o),
(152,152,o),
(152,318,cs)
);
},
{
closed = 1;
nodes = (
(588,-1,o),
(599,0,o),
(612,0,c),
(759,0,o),
(917,-1,o),
(994,-3,c),
(1008,44,o),
(1018,110,o),
(1018,157,c),
(989,157,l),
(977,90,o),
(938,45,o),
(895,42,cs),
(863,40,o),
(799,39,o),
(742,39,cs),
(704,39,o),
(672,51,o),
(664,68,cs),
(661,74,o),
(659,90,o),
(659,107,cs),
(657,309,ls),
(657,328,o),
(658,407,o),
(659,509,cs),
(659,537,o),
(670,561,o),
(686,569,cs),
(696,574,o),
(720,577,o),
(742,577,cs),
(770,577,o),
(812,576,o),
(844,574,cs),
(869,572,o),
(892,544,o),
(900,499,c),
(934,499,l),
(935,536,o),
(940,586,o),
(947,619,c),
(882,617,o),
(747,616,o),
(622,616,c),
(590,617,o),
(599,617,o),
(574,619,c),
(582,529,l),
(581,525,l),
(583,312,l),
(581,91,l),
(582,88,l),
(574,-3,l)
);
},
{
closed = 1;
nodes = (
(881,206,l),
(875,272,o),
(875,364,o),
(881,430,c),
(855,430,l),
(854,424,o),
(849,410,o),
(844,396,c),
(827,360,o),
(804,336,o),
(744,336,cs),
(605,336,l),
(605,296,l),
(744,296,ls),
(811,296,o),
(833,274,o),
(845,242,cs),
(856,206,l)
);
}
);
width = 1053;
}
);
unicode = 338;
},
{
color = 6;
glyphname = P;
lastChange = "2025-01-05 23:02:56 +0000";
layers = (
{
anchors = (
{
name = bottom;
pos = (240,0);
},
{
name = top;
pos = (240,616);
}
);
background = {
anchors = (
{
name = bottom;
pos = (280,0);
},
{
name = center;
pos = (138,154);
},
{
name = top;
pos = (280,616);
}
);
shapes = (
{
closed = 1;
nodes = (
(20,0,l),
(303,0,l),
(303,40,l),
(258,40,o),
(223,38,o),
(204,54,cs),
(195,62,o),
(190,73,o),
(190,91,cs),
(188,307,o),
(187,377,o),
(191,574,c),
(208,576,o),
(260,576,o),
(283,576,c),
(283,616,l),
(20,616,l),
(20,591,l),
(54,581,o),
(78,582,o),
(92,572,cs),
(102,565,o),
(107,552,o),
(107,525,cs),
(108,341,o),
(109,253,o),
(109,312,cs),
(109,373,o),
(108,282,o),
(107,91,cs),
(107,65,o),
(101,51,o),
(92,43,cs),
(76,29,o),
(50,31,o),
(20,25,c)
);
},
{
closed = 1;
nodes = (
(177,318,o),
(189,318,o),
(217,318,cs),
(373,318,o),
(476,378,o),
(476,481,cs),
(476,560,o),
(396,616,o),
(283,616,c),
(283,576,l),
(344,576,o),
(387,529,o),
(387,462,cs),
(387,387,o),
(318,348,o),
(210,348,cs),
(150,348,l),
(151,318,l)
);
}
);
};
layerId = m005;
shapes = (
{
closed = 1;
nodes = (
(222,271,o),
(232,271,o),
(242,271,cs),
(371,271,o),
(459,337,o),
(459,448,cs),
(459,552,o),
(382,620,o),
(270,618,c),
(251,584,l),
(325,584,o),
(373,528,o),
(373,436,cs),
(373,346,o),
(310,295,o),
(211,295,c),
(211,272,l)
);
},
{
closed = 1;
nodes = (
(275,0,l),
(275,25,l),
(236,36,o),
(215,39,o),
(203,51,cs),
(193,61,o),
(191,78,o),
(190,111,cs),
(188,188,o),
(188,379,o),
(191,583,c),
(251,584,l),
(270,618,l),
(231,617,o),
(179,616,o),
(147,616,c),
(108,616,o),
(43,617,o),
(4,618,c),
(4,591,l),
(45,584,o),
(75,578,o),
(92,558,cs),
(102,547,o),
(107,531,o),
(107,507,cs),
(109,369,o),
(109,235,o),
(107,101,cs),
(107,75,o),
(103,60,o),
(94,49,cs),
(83,35,o),
(41,30,o),
(12,25,c),
(12,0,l)
);
}
);
width = 495;
}
);
unicode = 80;
},
{
color = 2;
glyphname = Thorn;
lastChange = "2025-01-05 23:03:09 +0000";
layers = (
{
layerId = m005;
shapes = (
{
closed = 1;
nodes = (
(381,135,o),
(468,209,o),
(468,314,cs),
(468,416,o),
(381,487,o),
(253,485,cs),
(214,484,o),
(216,480,o),
(184,480,c),
(184,452,l),
(253,454,ls),
(330,456,o),
(382,398,o),
(382,314,cs),
(382,244,o),
(330,183,o),
(253,166,cs),
(237,162,o),
(208,159,o),
(184,159,c),
(184,136,l),
(188,135,o),
(216,135,o),
(253,135,cs)
);
},
{
ref = I;
}
);
width = 495;
}
);
unicode = 222;
},
{
color = 6;
glyphname = Q;
lastChange = "2025-01-05 23:10:58 +0000";
layers = (
{
anchors = (
{
name = bottom;
pos = (378,0);
},
{
name = top;
pos = (378,616);
}
);
background = {
shapes = (
{
closed = 1;
nodes = (
(567,-11,o),
(702,121,o),
(702,308,cs),
(702,494,o),
(567,626,o),
(376,626,cs),
(187,626,o),
(54,494,o),
(54,308,cs),
(54,121,o),
(187,-11,o),
(376,-11,cs)
);
},
{
closed = 1;
nodes = (
(150,471,o),
(237,585,o),
(359,585,cs),
(504,585,o),
(606,463,o),
(606,298,cs),
(606,144,o),
(518,30,o),
(393,30,cs),
(251,30,o),
(150,152,o),
(150,318,cs)
);
},
{
closed = 1;
nodes = (
(567,-11,o),
(702,121,o),
(702,308,cs),
(702,494,o),
(567,626,o),
(376,626,cs),
(187,626,o),
(54,494,o),
(54,308,cs),
(54,121,o),
(187,-11,o),
(376,-11,cs)
);
},
{
closed = 1;
nodes = (
(150,471,o),
(237,585,o),
(359,585,cs),
(504,585,o),
(606,463,o),
(606,298,cs),
(606,144,o),
(518,30,o),
(393,30,cs),
(251,30,o),
(150,152,o),
(150,318,cs)
);
}
);
};
backgroundImage = {
imagePath = "../../Desktop/Bildschirmfoto 2024-12-24 um 15.25.09.png";
pos = (965,-1126);
scale = (-1.4,1.4);
};
layerId = m005;
shapes = (
{
closed = 1;
nodes = (
(430,-144,o),
(630,-232,o),
(813,-232,cs),
(939,-232,o),
(1057,-202,o),
(1131,-153,c),
(1120,-133,l),
(1046,-163,o),
(957,-179,o),
(869,-179,cs),
(703,-179,o),
(537,-98,o),
(458,29,c),
(331,11,l)
);
},
{
ref = O;
}
);
width = 756;
}
);
metricWidth = O;
unicode = 81;
},
{
color = 6;
glyphname = R;
lastChange = "2025-01-05 23:04:07 +0000";
layers = (
{
anchors = (
{
name = bottom;
pos = (312,0);
},
{
name = top;
pos = (312,616);
}
);
background = {
shapes = (
{
closed = 1;
nodes = (
(20,0,l),
(303,0,l),
(303,40,l),
(258,40,o),
(223,38,o),
(204,54,cs),
(195,62,o),
(190,73,o),
(190,91,cs),
(188,307,o),
(187,377,o),
(191,574,c),
(208,576,o),
(260,576,o),
(283,576,c),
(283,616,l),
(20,616,l),
(20,591,l),
(54,581,o),
(78,582,o),
(92,572,cs),
(102,565,o),
(107,552,o),
(107,525,cs),
(108,341,o),
(109,253,o),
(109,312,cs),
(109,373,o),
(108,282,o),
(107,91,cs),
(107,65,o),
(101,51,o),
(92,43,cs),
(76,29,o),
(50,31,o),
(20,25,c)
);
}
);
};
layerId = m005;
shapes = (
{
closed = 1;
nodes = (
(335,282,o),
(452,354,o),
(452,458,cs),
(452,550,o),
(369,620,o),
(261,618,c),
(242,576,l),
(312,576,o),
(366,526,o),
(366,446,cs),
(366,362,o),
(286,322,o),
(180,322,c),
(180,282,l)
);
},
{
closed = 1;
nodes = (
(276,0,l),
(276,25,l),
(249,31,o),
(211,39,o),
(200,51,cs),
(190,61,o),
(188,77,o),
(188,104,cs),
(188,372,o),
(187,454,o),
(191,574,c),
(242,576,l),
(261,618,l),
(212,617,o),
(194,616,o),
(145,616,c),
(106,615,o),
(66,617,o),
(20,618,c),
(20,592,l),
(55,585,o),
(85,579,o),
(96,567,cs),
(105,556,o),
(107,538,o),
(107,512,cs),
(109,376,o),
(109,238,o),
(107,104,cs),
(107,69,o),
(103,53,o),
(92,44,cs),
(80,34,o),
(60,32,o),
(20,25,c),
(20,0,l)
);
},
{
closed = 1;
nodes = (
(612,18,l),
(540,26,o),
(426,156,o),
(330,337,c),
(254,305,l),
(339,123,o),
(446,-5,o),
(518,-3,cs),
(612,0,l)
);
}
);
width = 621;
}
);
unicode = 82;
},
{
glyphname = S;
lastChange = "2025-01-05 23:04:40 +0000";
layers = (
{
anchors = (
{
name = bottom;
pos = (241,0);
},
{
name = top;
pos = (237,616);
}
);
layerId = m005;
shapes = (
{
closed = 1;
nodes = (
(343,-9,o),
(432,67,o),
(432,174,cs),
(432,339,o),
(117,352,o),
(120,490,cs),
(121,543,o),
(171,581,o),
(240,581,cs),
(316,581,o),
(365,535,o),
(359,471,c),
(392,471,l),
(391,526,o),
(393,576,o),
(397,593,c),
(347,611,o),
(282,624,o),
(240,624,cs),
(126,624,o),
(45,550,o),
(45,446,cs),
(45,272,o),
(354,279,o),
(354,136,cs),
(354,75,o),
(297,33,o),
(216,35,cs),
(133,37,o),
(76,103,o),
(78,193,c),
(46,193,l),
(51,166,o),
(52,99,o),
(49,32,c),
(108,8,o),
(177,-9,o),
(216,-9,cs)
);
}
);
width = 486;
}
);
unicode = 83;
},
{
glyphname = Germandbls;
lastChange = "2025-01-05 23:05:12 +0000";
layers = (
{
layerId = m005;
shapes = (
{
closed = 1;
nodes = (
(193,0,l),
(193,69,ls),
(193,332,o),
(193,510,o),
(192,499,c),
(191,578,l),
(294,578,l),
(345,616,l),
(152,616,ls),
(107,616,o),
(55,617,o),
(27,619,c),
(27,598,l),
(84,582,o),
(110,585,o),
(111,525,cs),
(113,373,o),
(111,221,o),
(111,69,cs),
(111,38,o),
(75,33,o),
(24,18,c),
(24,0,l)
);
},
{
closed = 1;
nodes = (
(497,-6,o),
(560,50,o),
(560,129,cs),
(560,247,o),
(376,256,o),
(376,334,cs),
(376,425,o),
(504,420,o),
(504,512,cs),
(504,573,o),
(438,616,o),
(345,616,c),
(294,578,l),
(370,578,o),
(424,542,o),
(424,491,cs),
(424,419,o),
(304,420,o),
(304,309,cs),
(304,189,o),
(484,194,o),
(484,103,cs),
(484,51,o),
(453,18,o),
(408,22,cs),
(368,25,o),
(336,66,o),
(330,122,c),
(303,122,l),
(305,99,o),
(305,51,o),
(304,6,c),
(330,-1,o),
(373,-6,o),
(408,-6,cs)
);
}
);
width = 594;
}
);
unicode = 7838;
},
{
glyphname = T;
lastChange = "2025-01-05 23:05:29 +0000";
layers = (
{
anchors = (
{
name = bottom;
pos = (325,0);
},
{
name = center;
pos = (325,308);
},
{
name = top;
pos = (325,616);
}
);
background = {
shapes = (
{
closed = 1;
nodes = (
(205,0,l),
(450,0,l),
(450,18,l),
(404,31,o),
(381,33,o),
(372,52,cs),
(368,60,o),
(367,73,o),
(367,91,cs),
(366,164,o),
(366,237,o),
(365,310,cs),
(364,382,o),
(366,453,o),
(367,525,cs),
(367,561,o),
(373,575,o),
(394,585,cs),
(405,590,o),
(423,591,o),
(450,598,c),
(450,616,l),
(205,616,l),
(205,598,l),
(251,585,o),
(274,583,o),
(283,565,cs),
(287,556,o),
(289,543,o),
(289,525,cs),
(290,454,o),
(291,383,o),
(291,312,cs),
(291,238,o),
(290,165,o),
(289,91,cs),
(289,55,o),
(282,42,o),
(261,32,cs),
(250,27,o),
(232,25,o),
(205,18,c)
);
}
);
};
layerId = m005;
shapes = (
{
closed = 1;
nodes = (
(487,0,l),
(487,28,l),
(415,42,o),
(369,46,o),
(367,100,cs),
(362,262,o),
(362,428,o),
(367,590,c),
(345,566,l),
(409,566,o),
(483,566,o),
(512,566,cs),
(548,566,o),
(595,559,o),
(600,447,c),
(639,451,l),
(638,515,o),
(633,579,o),
(622,643,c),
(610,643,l),
(555,616,l),
(398,613,o),
(240,613,o),
(85,616,c),
(37,653,l),
(29,648,l),
(17,581,o),
(11,515,o),
(9,448,c),
(48,446,l),
(53,561,o),
(103,566,o),
(167,566,cs),
(315,566,l),
(287,590,l),
(289,462,o),
(289,146,o),
(287,100,cs),
(285,54,o),
(242,41,o),
(177,28,c),
(177,0,l)
);
}
);
width = 648;
}
);
unicode = 84;
},
{
glyphname = U;
lastChange = "2025-01-05 23:06:05 +0000";
layers = (
{
anchors = (
{
name = bottom;
pos = (322,0);
},
{
name = ogonek;
pos = (591,10);
},
{
name = top;
pos = (346,616);
},
{
name = topright;
pos = (638,616);
}
);
layerId = m005;
shapes = (
{
closed = 1;
nodes = (
(466,-11,o),
(574,76,o),
(576,199,cs),
(578,334,o),
(575,431,o),
(576,514,cs),
(577,557,o),
(610,588,o),
(656,588,c),
(656,616,l),
(448,616,l),
(448,592,l),
(498,583,o),
(533,537,o),
(534,481,cs),
(535,373,o),
(535,258,o),
(534,203,cs),
(532,109,o),
(460,42,o),
(360,42,cs),
(257,42,o),
(180,96,o),
(173,173,cs),
(171,194,o),
(170,331,o),
(170,503,cs),
(170,551,o),
(203,588,o),
(250,592,c),
(250,616,l),
(10,616,l),
(10,588,l),
(57,581,o),
(90,550,o),
(90,514,cs),
(90,489,o),
(90,362,o),
(90,197,cs),
(90,75,o),
(183,-11,o),
(315,-11,cs)
);
}
);
width = 666;
}
);
unicode = 85;
},
{
glyphname = V;
lastChange = "2025-01-05 23:06:31 +0000";
layers = (
{
anchors = (
{
name = bottom;
pos = (365,0);
},
{
name = top;
pos = (365,616);
}
);
layerId = m005;
shapes = (
{
closed = 1;
nodes = (
(360,-24,l),
(439,153,o),
(568,444,o),
(595,505,cs),
(622,566,o),
(658,579,o),
(720,588,c),
(720,616,l),
(472,616,l),
(472,593,l),
(521,586,o),
(556,573,o),
(556,543,cs),
(556,521,o),
(544,488,o),
(528,452,cs),
(358,70,l),
(393,90,l),
(334,224,o),
(232,480,o),
(225,496,cs),
(218,512,o),
(213,528,o),
(213,543,cs),
(213,558,o),
(211,582,o),
(297,591,c),
(297,616,l),
(9,616,l),
(9,588,l),
(57,580,o),
(103,571,o),
(137,489,cs),
(347,-24,l)
);
}
);
width = 729;
}
);
unicode = 86;
},
{
glyphname = W;
lastChange = "2025-01-05 23:06:36 +0000";
layers = (
{
anchors = (
{
name = bottom;
pos = (485,0);
},
{
name = top;
pos = (485,616);
}
);
layerId = m005;
shapes = (
{
closed = 1;
nodes = (
(500,469,l),
(344,75,l),
(376,98,l),
(221,496,ls),
(195,563,o),
(177,582,o),
(257,591,c),
(257,616,l),
(9,616,l),
(9,588,l),
(57,579,o),
(104,572,o),
(137,489,cs),
(340,-24,l),
(353,-24,l),
(395,108,o),
(481,303,o),
(523,420,c)
);
},
{
closed = 1;
nodes = (
(665,-24,l),
(732,153,o),
(843,444,o),
(866,505,cs),
(889,566,o),
(889,576,o),
(954,588,c),
(954,616,l),
(754,616,l),
(754,591,l),
(840,570,o),
(834,533,o),
(803,452,cs),
(658,70,l),
(693,99,l),
(644,233,o),
(557,480,o),
(552,496,cs),
(528,572,o),
(530,582,o),
(604,591,c),
(604,616,l),
(364,616,l),
(364,591,l),
(409,579,o),
(441,572,o),
(470,489,cs),
(652,-24,l)
);
}
);
width = 963;
}
);
unicode = 87;
},
{
glyphname = X;
lastChange = "2025-01-05 23:07:09 +0000";
layers = (
{
anchors = (
{
name = bottom;
pos = (306,0);
},
{
name = top;
pos = (306,616);
}
);
layerId = m005;
shapes = (
{
closed = 1;
nodes = (
(603,0,l),
(603,28,l),
(562,33,o),
(559,25,o),
(496,114,cs),
(332,346,o),
(332,346,o),
(218,512,cs),
(199,540,o),
(190,557,o),
(190,568,cs),
(190,583,o),
(209,586,o),
(242,591,c),
(242,616,l),
(18,616,l),
(18,588,l),
(52,588,o),
(69,586,o),
(133,494,cs),
(282,281,o),
(283,281,o),
(405,105,cs),
(426,76,o),
(436,58,o),
(436,47,cs),
(436,30,o),
(412,29,o),
(363,25,c),
(363,0,l)
);
},
{
closed = 1;
nodes = (
(218,0,l),
(218,25,l),
(186,28,o),
(157,25,o),
(157,47,cs),
(157,60,o),
(165,79,o),
(187,112,cs),
(317,305,l),
(291,330,l),
(133,109,ls),
(71,22,o),
(57,30,o),
(26,28,c),
(26,0,l)
);
},
{
closed = 1;
nodes = (
(469,503,ls),
(526,583,o),
(549,585,o),
(587,588,c),
(587,616,l),
(395,616,l),
(395,591,l),
(422,588,o),
(443,588,o),
(443,569,cs),
(443,552,o),
(428,522,o),
(389,463,cs),
(305,337,l),
(332,312,l)
);
}
);
width = 621;
}
);
unicode = 88;
},
{
glyphname = Y;
lastChange = "2025-01-05 23:07:14 +0000";
layers = (
{
anchors = (
{
name = bottom;
pos = (277,0);
},
{
name = top;
pos = (277,616);
},
{
name = topleft;
pos = (21,616);
}
);
layerId = m005;
shapes = (
{
closed = 1;
nodes = (
(411,0,l),
(411,28,l),
(368,33,o),
(322,30,o),
(322,93,cs),
(322,318,l),
(309,257,l),
(444,509,ls),
(488,591,o),
(536,588,o),
(549,588,c),
(549,616,l),
(357,616,l),
(357,591,l),
(423,581,o),
(428,565,o),
(396,505,c),
(291,306,l),
(309,307,l),
(273,380,o),
(208,494,o),
(193,525,cs),
(164,586,o),
(175,585,o),
(241,591,c),
(241,616,l),
(9,616,l),
(9,588,l),
(35,585,o),
(80,575,o),
(95,545,cs),
(252,239,l),
(244,293,l),
(244,93,ls),
(244,38,o),
(183,33,o),
(139,28,c),
(139,0,l)
);
}
);
width = 558;
}
);
unicode = 89;
},
{
glyphname = Z;
lastChange = "2025-01-05 23:10:05 +0000";
layers = (
{
anchors = (
{
name = bottom;
pos = (324,0);
},
{
name = center;
pos = (324,308);
},
{
name = top;
pos = (324,616);
}
);
layerId = m005;
shapes = (
{
closed = 1;
nodes = (
(171,0,o),
(375,1,o),
(404,1,cs),
(434,1,o),
(504,1,o),
(545,-2,c),
(571,57,o),
(593,143,o),
(603,210,c),
(569,210,l),
(558,154,o),
(515,43,o),
(368,41,cs),
(146,38,l),
(151,24,l),
(576,594,l),
(564,621,l),
(487,616,o),
(333,615,o),
(275,615,cs),
(217,615,o),
(117,611,o),
(76,617,c),
(67,554,o),
(61,490,o),
(60,427,c),
(88,427,l),
(98,479,o),
(87,576,o),
(222,576,cs),
(297,576,o),
(423,574,o),
(481,572,c),
(471,596,l),
(36,12,l),
(44,0,l)
);
}
);
width = 648;
}
);
unicode = 90;
},
{
color = 4;
glyphname = a;
lastChange = "2025-01-05 22:19:00 +0000";
layers = (
{
anchors = (
{
name = bottom;
pos = (196,0);
},
{
name = ogonek;
pos = (356,10);
},
{
name = top;
pos = (196,384);
}
);
background = {
shapes = (
{
closed = 1;
nodes = (
(47,0,o),
(75,-11,o),
(122,-11,cs),
(170,-11,o),
(201,1,o),
(245,37,c,{
"Letterink-NibData" = {
AngleInDegrees = "360";
};
}),
(244,38,ls,{
"Letterink-NibData" = {
AngleInDegrees = "0";
};
}),
(268,17,o),
(285,7,o),
(315,-3,c,{
"Letterink-NibData" = {
AngleInDegrees = "360";
};
}),
(389,40,l,{
"Letterink-NibData" = {
AngleInDegrees = "0";
};
}),
(352,52,o),
(336,60,o),
(313,80,c),
(313,344,l,{
"Letterink-NibData" = {
AngleInDegrees = "0";
};
}),
(263,384,o),
(236,395,o),
(188,395,cs),
(139,395,o),
(110,384,o),
(62,345,c,{
"Letterink-NibData" = {
AngleInDegrees = "360";
};
}),
(65,340,l,{
"Letterink-NibData" = {
AngleInDegrees = "0";
};
}),
(92,347,o),
(104,349,o),
(122,349,cs),
(168,349,o),
(200,337,o),
(241,304,c),
(241,184,l),
(241,185,l,{
"Letterink-NibData" = {
AngleInDegrees = "360";
};
}),
(-4,44,l,{
"Letterink-NibData" = {
AngleInDegrees = "0";
};
}),
(-1,38,l,{
"Letterink-NibData" = {
AngleInDegrees = "0";
};
})
);
},
{
closed = 1;
nodes = (
(241,176,l),
(241,42,l),
(241,43,l,{
"Letterink-NibData" = {
AngleInDegrees = "0";
};
}),
(217,37,o),
(206,35,o),
(188,35,cs),
(143,35,o),
(110,47,o),
(71,78,c,{
"Letterink-NibData" = {
AngleInDegrees = "0";
};
})
);
},
{
closed = 1;
nodes = (
(318,0,l),
(368,18,l),
(329,32,o),
(313,37,o),
(313,68,cs),
(313,273,ls),
(313,355,o),
(279,395,o),
(209,395,cs),
(159,395,o),
(102,365,o),
(36,305,c),
(36,286,l),
(96,329,o),
(129,335,o),
(164,335,cs),
(216,335,o),
(241,306,o),
(241,246,cs),
(241,68,ls),
(241,38,o),
(224,32,o),
(185,18,c),
(135,0,l)
);
},
{
closed = 1;
nodes = (
(-24,386,l),
(-24,368,l),
(15,354,o),
(31,349,o),
(31,318,cs),
(31,83,ls),
(31,1,o),
(65,-9,o),
(135,-9,cs),
(185,-9,o),
(242,21,o),
(308,81,c),
(308,100,l),
(248,57,o),
(215,51,o),
(180,51,cs),
(128,51,o),
(103,50,o),
(103,110,cs),
(103,318,ls),
(103,348,o),
(120,354,o),
(159,368,c),
(159,386,l)
);
},
{
closed = 1;
nodes = (
(186,386,l),
(186,368,l),
(218,356,o),
(241,335,o),
(241,318,cs),
(241,113,ls),
(241,42,o),
(259,-9,o),
(285,-9,cs),
(307,-9,o),
(346,12,o),
(378,41,c),
(378,60,l),
(371,55,o),
(347,51,o),
(320,51,cs),
(316,51,o),
(313,88,o),
(313,140,cs),
(313,318,ls),
(313,335,o),
(336,356,o),
(369,368,c),
(369,386,l)
);
}
);
};
guides = (
{
angle = 11.5;
pos = (222,308);
}
);
layerId = m005;
shapes = (
{
closed = 1;
nodes = (
(317,-6,o),
(350,8,o),
(389,27,c),
(387,40,l),
(355,41,ls),
(330,42,o),
(312,60,o),
(312,84,cs),
(312,51,o),
(314,133,o),
(316,290,c),
(316,351,o),
(273,395,o),
(212,395,cs),
(183,395,o),
(143,378,o),
(104,354,cs),
(72,332,o),
(50,295,o),
(50,264,cs),
(50,233,o),
(122,247,o),
(122,278,cs),
(122,294,o),
(115,290,o),
(115,305,cs),
(115,332,o),
(138,351,o),
(166,351,cs),
(216,351,o),
(246,324,o),
(244,284,cs),
(241,218,l),
(240,205,o),
(240,138,o),
(240,57,cs),
(244,20,o),
(272,-6,o),
(308,-6,cs)
);
},
{
closed = 1;
nodes = (
(162,-6,o),
(221,24,o),
(261,66,c),
(261,85,l),
(230,61,o),
(188,44,o),
(160,44,cs),
(131,44,o),
(115,71,o),
(115,110,c),
(36,94,l),
(36,35,o),
(67,-6,o),
(119,-6,cs)
);
},
{
closed = 1;
nodes = (
(115,110,l),
(115,131,o),
(177,158,o),
(272,175,c),
(273,206,l),
(131,183,o),
(36,137,o),
(36,94,c)
);
}
);
width = 396;
}
);
note = a;
unicode = 97;
},
{
glyphname = ae;
lastChange = "2025-01-05 22:19:10 +0000";
layers = (
{
layerId = m005;
shapes = (
{
closed = 1;
nodes = (
(304,214,l),
(304,181,o),
(306,133,o),
(308,290,c),
(308,351,o),
(278,395,o),
(217,395,cs),
(188,395,o),
(143,378,o),
(104,354,cs),
(72,332,o),
(50,295,o),
(50,264,cs),
(50,233,o),
(122,247,o),
(122,278,cs),
(122,294,o),
(113,292,o),
(113,307,cs),
(113,334,o),
(136,353,o),
(169,353,cs),
(219,353,o),
(251,324,o),
(249,284,cs),
(246,218,l),
(245,205,o),
(245,258,o),
(245,177,c)
);
},
{
closed = 1;
nodes = (
(166,-6,o),
(225,9,o),
(286,70,c),
(265,85,l),
(234,61,o),
(192,44,o),
(164,44,cs),
(135,44,o),
(114,71,o),
(114,110,c),
(35,94,l),
(35,35,o),
(71,-6,o),
(123,-6,cs)
);
},
{
closed = 1;
nodes = (
(115,110,l),
(115,131,o),
(182,158,o),
(277,175,c),
(278,206,l),
(136,183,o),
(36,137,o),
(36,94,c)
);
},
{
closed = 1;
nodes = (
(306,302,o),
(348,367,o),
(408,367,cs),
(453,367,o),
(487,325,o),
(490,266,c),
(283,260,l),
(279,231,l),
(559,225,l),
(571,239,l),
(571,330,o),
(509,395,o),
(422,395,cs),
(310,395,o),
(245,309,o),
(245,188,cs),
(245,71,o),
(302,-11,o),
(403,-11,cs),
(465,-11,o),
(534,33,o),
(569,95,c),
(551,108,l),
(528,75,o),
(476,52,o),
(424,52,cs),
(355,52,o),
(306,117,o),
(306,210,cs)
);
}
);
width = 594;
}
);
unicode = 230;
},
{
color = 4;
glyphname = b;
lastChange = "2025-01-05 09:07:22 +0000";
layers = (
{
anchors = (
{
name = bottom;
pos = (244,0);
},
{
name = center;
pos = (122,555);
},
{
name = top;
pos = (244,384);
}
);
background = {
shapes = (
{
closed = 1;
nodes = (
(117,1,o),
(146,-11,o),
(194,-11,cs),
(241,-11,o),
(273,1,o),
(317,36,c,{
"Letterink-NibData" = {
AngleInDegrees = "0";
};
}),
(399,68,o),
(443,128,o),
(443,210,cs),
(443,310,o),
(359,395,o),
(260,395,cs),
(213,395,o),
(182,383,o),
(140,350,c),
(140,664,l,{
"Letterink-NibData" = {
AngleInDegrees = "359.99999";
};
}),
(114,687,o),
(98,697,o),
(67,707,c,{
"Letterink-NibData" = {
AngleInDegrees = "359.99999";
};
}),
(-7,664,l,{
"Letterink-NibData" = {
AngleInDegrees = "0";
};
}),
(30,652,o),
(45,644,o),
(68,624,c),
(68,40,l,{
"Letterink-NibData" = {
AngleInDegrees = "360";
};
})
);
},
{
closed = 1;
nodes = (
(164,347,o),
(176,349,o),
(194,349,cs),
(294,349,o),
(371,273,o),
(371,174,cs),
(371,125,o),
(352,82,o),
(313,43,c,{
"Letterink-NibData" = {
AngleInDegrees = "0";
};
}),
(289,37,o),
(277,35,o),
(260,35,cs),
(213,35,o),
(182,47,o),
(140,80,c),
(140,342,l,{
"Letterink-NibData" = {
AngleInDegrees = "360";
};
}),
(141,341,l,{
"Letterink-NibData" = {
AngleInDegrees = "0";
};
})
);
},
{
closed = 0;
nodes = (
(140,619,l),
(142,698,l),
(127,705,l),
(18,667,l),
(18,646,l),
(37,638,o),
(68,625,o),
(68,603,cs)
);
},
{
closed = 0;
nodes = (
(230,-10,ls),
(355,-10,o),
(443,78,o),
(443,208,cs),
(443,318,o),
(373,395,o),
(275,395,cs)
);
},
{
closed = 0;
nodes = (
(230,335,ls),
(310,335,o),
(368,271,o),
(368,180,cs),
(368,89,o),
(314,24,o),
(240,24,cs)
);
}
);
};
layerId = m005;
shapes = (
{
closed = 1;
nodes = (
(146,551,l),
(149,658,l),
(134,668,l),
(2,637,l),
(2,616,l),
(43,601,o),
(72,578,o),
(72,560,cs),
(72,255,o),
(72,40,o),
(72,40,c),
(144,24,l)
);
},
{
closed = 1;
nodes = (
(385,188,l),
(384,96,o),
(327,26,o),
(247,26,cs),
(197,26,o),
(142,67,o),
(118,125,c),
(72,40,l),
(109,10,o),
(173,-11,o),
(225,-11,cs),
(363,-11,o),
(459,88,o),
(459,221,c)
);
},
{
closed = 1;
nodes = (
(459,221,l),
(459,326,o),
(386,395,o),
(283,395,cs),
(230,395,o),
(157,360,o),
(108,310,c),
(108,291,l),
(138,317,o),
(192,335,o),
(237,335,cs),
(325,335,o),
(385,277,o),
(385,188,c)
);
}
);
width = 495;
}
);
note = b;
unicode = 98;
},
{
color = 6;
glyphname = c;
lastChange = "2025-01-05 09:07:04 +0000";
layers = (
{
anchors = (
{
name = bottom;
pos = (200,0);
},
{
name = top;
pos = (200,384);
}
);
background = {
shapes = (
{
closed = 1;
nodes = (
(111,302,o),
(153,362,o),
(213,362,cs),
(258,362,o),
(292,325,o),
(295,266,c),
(88,260,l),
(84,231,l),
(364,225,l),
(376,239,l),
(376,330,o),
(314,395,o),
(227,395,cs),
(115,395,o),
(36,309,o),
(36,188,cs),
(36,71,o),
(107,-11,o),
(208,-11,cs),
(270,-11,o),
(339,33,o),
(374,95,c),
(356,108,l),
(333,75,o),
(281,52,o),
(229,52,cs),
(160,52,o),
(111,117,o),
(111,210,cs)
);
}
);
};
layerId = m005;
shapes = (
{
closed = 1;
nodes = (
(111,302,o),
(157,367,o),
(217,367,c),
(231,395,l),
(119,395,o),
(36,309,o),
(36,188,cs),
(36,71,o),
(111,-11,o),
(212,-11,cs),
(277,-11,o),
(346,33,o),
(378,95,c),
(360,108,l),
(335,75,o),
(283,52,o),
(233,52,cs),
(164,52,o),
(111,117,o),
(111,210,cs)
);
},
{
closed = 1;
nodes = (
(217,367,l),
(274,367,o),
(317,322,o),
(319,251,c),
(356,251,l),
(354,303,o),
(355,347,o),
(359,371,c),
(327,382,o),
(272,395,o),
(231,395,c)
);
}
);
width = 387;
}
);
unicode = 99;
},
{
color = 6;
glyphname = d;
lastChange = "2025-01-05 09:06:31 +0000";
layers = (
{
anchors = (
{
name = bottom;
pos = (248,0);
},
{
name = center;
pos = (370,555);
},
{
name = top;
pos = (248,384);
},
{
name = topright;
pos = (472,694);
}
);
background = {
anchors = (
{
name = bottom;
pos = (208,0);
},
{
name = ogonek;
pos = (371,10);
},
{
name = top;
pos = (208,384);
}
);
shapes = (
{
closed = 1;
nodes = (
(111,302,o),
(153,362,o),
(213,362,cs),
(258,362,o),
(292,325,o),
(295,266,c),
(88,260,l),
(84,231,l),
(364,225,l),
(376,239,l),
(376,330,o),
(314,395,o),
(227,395,cs),
(115,395,o),
(36,309,o),
(36,188,cs),
(36,71,o),
(107,-11,o),
(208,-11,cs),
(270,-11,o),
(339,33,o),
(374,95,c),
(356,108,l),
(333,75,o),
(281,52,o),
(229,52,cs),
(160,52,o),
(111,117,o),
(111,210,cs)
);
},
{
closed = 1;
nodes = (
(111,302,o),
(153,362,o),
(213,362,cs),
(258,362,o),
(292,325,o),
(295,266,c),
(88,260,l),
(84,231,l),
(364,225,l),
(376,239,l),
(376,330,o),
(314,395,o),
(227,395,cs),
(115,395,o),
(36,309,o),
(36,188,cs),
(36,71,o),
(107,-11,o),
(208,-11,cs),
(270,-11,o),
(339,33,o),
(374,95,c),
(356,108,l),
(333,75,o),
(281,52,o),
(229,52,cs),
(160,52,o),
(111,117,o),
(111,210,cs)
);
}
);
};
layerId = m005;
shapes = (
{
closed = 1;
nodes = (
(36,189,l),
(36,72,o),
(105,-11,o),
(200,-11,cs),
(245,-11,o),
(317,22,o),
(374,69,c),
(374,88,l),
(336,65,o),
(283,49,o),
(245,49,cs),
(168,49,o),
(113,120,o),
(113,220,c)
);
},
{
closed = 1;
nodes = (
(342,58,l),
(343,58,l),
(342,-6,l),
(355,-12,l),
(476,21,l),
(476,42,l),
(440,57,o),
(414,75,o),
(414,85,c)
);
},
{
closed = 1;
nodes = (
(113,220,l),
(113,301,o),
(165,358,o),
(236,358,cs),
(286,358,o),
(339,320,o),
(364,267,c),
(390,356,l),
(358,379,o),
(304,395,o),
(257,395,cs),
(128,395,o),
(36,310,o),
(36,189,c)
);
},
{
closed = 1;
nodes = (
(414,85,l),
(414,557,l),
(416,658,l),
(401,668,l),
(272,637,l),
(272,616,l),
(313,599,o),
(342,577,o),
(342,563,cs),
(342,58,l)
);
}
);
width = 495;
}
);
unicode = 100;
},
{
color = 2;
glyphname = eth;
lastChange = "2025-01-05 22:19:42 +0000";
layers = (
{
layerId = m005;
shapes = (
{
closed = 1;
nodes = (
(391,-11,o),
(476,80,o),
(476,208,cs),
(476,383,o),
(336,563,o),
(138,642,c),
(120,597,l),
(277,534,o),
(390,373,o),
(390,208,cs),
(390,103,o),
(332,29,o),
(254,29,cs),
(183,29,o),
(131,100,o),
(131,201,cs),
(131,291,o),
(183,354,o),
(254,354,cs),
(332,354,o),
(390,294,o),
(390,208,c),
(428,190,l),
(428,310,o),
(348,395,o),
(237,395,cs),
(123,395,o),
(43,318,o),
(43,210,cs),
(43,81,o),
(137,-11,o),
(270,-11,cs)
);
},
{
closed = 1;
nodes = (
(192,439,l),
(359,606,l),
(327,638,l),
(160,471,l)
);
}
);
width = 513;
}
);
unicode = 240;
},
{
color = 4;
glyphname = e;
lastChange = "2025-01-05 09:06:09 +0000";
layers = (
{
anchors = (
{
name = bottom;
pos = (208,0);
},
{
name = ogonek;
pos = (371,10);
},
{
name = top;
pos = (208,384);
}
);
background = {
shapes = (
{
closed = 1;
nodes = (
(109,168,l,{
"Letterink-NibData" = {
AngleInDegrees = "0";
};
}),
(407,340,l,{
"Letterink-NibData" = {
AngleInDegrees = "359.99998";
};
}),
(404,346,l,{
"Letterink-NibData" = {
AngleInDegrees = "360";
};
}),
(364,380,o),
(326,395,o),
(281,395,cs),
(234,395,o),
(202,383,o),
(158,348,c,{
"Letterink-NibData" = {
AngleInDegrees = "360";
};
}),
(75,315,o),
(32,256,o),
(32,174,cs),
(32,74,o),
(116,-11,o),
(215,-11,cs),
(264,-11,o),
(294,1,o),
(341,39,c,{
"Letterink-NibData" = {
AngleInDegrees = "0";
};
}),
(338,44,l,{
"Letterink-NibData" = {
AngleInDegrees = "360";
};
}),
(309,37,o),
(300,35,o),
(281,35,cs),
(196,35,o),
(130,87,o),
(108,170,c,{
"Letterink-NibData" = {
AngleInDegrees = "0";
};
})
);
},
{
closed = 1;
nodes = (
(107,177,l,{
"Letterink-NibData" = {
AngleInDegrees = "0";
};
}),
(105,192,o),
(104,198,o),
(104,210,cs),
(104,259,o),
(123,301,o),
(162,341,c,{
"Letterink-NibData" = {
AngleInDegrees = "360";
};
}),
(186,347,o),
(198,349,o),
(215,349,cs),
(260,349,o),
(292,337,o),
(332,306,c,{
"Letterink-NibData" = {
AngleInDegrees = "360";
};
})
);
},
{
closed = 1;
nodes = (
(32,189,l),
(32,72,o),
(99,-11,o),
(193,-11,cs),
(236,-11,o),
(308,26,o),
(366,79,c),
(366,98,l),
(326,69,o),
(273,49,o),
(238,49,cs),
(163,49,o),
(110,120,o),
(110,220,c)
);
}
);
};
layerId = m005;
shapes = (
{
closed = 1;
nodes = (
(111,302,o),
(154,362,o),
(214,362,cs),
(260,362,o),
(294,325,o),
(297,266,c),
(88,260,l),
(84,231,l),
(366,225,l),
(378,239,l),
(378,330,o),
(316,395,o),
(228,395,cs),
(116,395,o),
(36,309,o),
(36,188,cs),
(36,71,o),
(108,-11,o),
(209,-11,cs),
(272,-11,o),
(341,33,o),
(376,95,c),
(358,108,l),
(335,75,o),
(283,52,o),
(230,52,cs),
(161,52,o),
(111,117,o),
(111,210,cs)
);
}
);
width = 405;
}
);
note = e;
unicode = 101;
},
{
color = 4;
glyphname = f;
lastChange = "2025-01-05 23:10:58 +0000";
layers = (
{
anchors = (
{
name = bottom;
pos = (158,0);
},
{
name = top;
pos = (158,694);
}
);
background = {
shapes = (
{
closed = 1;
nodes = (
(91,386,l),
(91,387,l,{
"Letterink-NibData" = {
AngleInDegrees = "360";
};
}),
(18,346,l,{
"Letterink-NibData" = {
AngleInDegrees = "360";
};
}),
(21,341,l),
(91,341,l),
(91,40,l,{
"Letterink-NibData" = {
AngleInDegrees = "0";
};
}),
(116,18,o),
(135,7,o),
(164,-3,c,{
"Letterink-NibData" = {
AngleInDegrees = "0";
};
}),
(239,40,l,{
"Letterink-NibData" = {
AngleInDegrees = "0";
};
}),
(202,52,o),
(186,60,o),
(163,80,c),
(163,342,l,{
"Letterink-NibData" = {
AngleInDegrees = "360";
};
}),
(164,341,l),
(270,341,l,{
"Letterink-NibData" = {
AngleInDegrees = "360";
};
}),
(343,382,l,{
"Letterink-NibData" = {
AngleInDegrees = "0";
};
}),
(340,387,l),
(163,387,l),
(163,662,l,{
"Letterink-NibData" = {
AngleInDegrees = "360";
};
}),
(164,661,l,{
"Letterink-NibData" = {
AngleInDegrees = "0";
};
}),
(187,667,o),
(198,669,o),
(217,669,cs),
(265,669,o),
(294,657,o),
(340,621,c,{
"Letterink-NibData" = {
AngleInDegrees = "0";
};
}),
(411,662,l,{
"Letterink-NibData" = {
AngleInDegrees = "0";
};
}),
(357,705,o),
(332,715,o),
(282,715,cs),
(235,715,o),
(203,703,o),
(160,667,c,{
"Letterink-NibData" = {
AngleInDegrees = "360";
};
}),
(91,628,l)
);
},
{
closed = 0;
nodes = (
(92,68,l),
(92,37,o),
(75,32,o),
(36,18,c),
(36,0,l),
(249,0,l),
(249,18,l),
(180,32,o),
(163,38,o),
(163,68,cs)
);
}
);
};
guides = (
{
angle = 46;
lockAngle = 1;
pos = (301,567);
}
);
layerId = m005;
shapes = (
{
closed = 1;
nodes = (
(26,0,l),
(259,0,l),
(259,18,l),
(205,31,o),
(169,31,o),
(167,69,cs),
(162,163,o),
(162,304,o),
(167,449,cs),
(169,510,o),
(164,624,o),
(233,624,cs),
(256,624,o),
(265,617,o),
(274,606,cs),
(283,593,o),
(287,576,o),
(298,567,cs),
(321,546,o),
(383,615,o),
(361,638,cs),
(343,656,o),
(310,665,o),
(269,665,cs),
(211,665,o),
(163,631,o),
(135,590,cs),
(101,540,o),
(95,492,o),
(91,387,cs),
(90,355,o),
(90,221,o),
(91,69,cs),
(91,30,o),
(58,32,o),
(26,18,c)
);
},
{
closed = 1;
nodes = (
(306,334,l),
(306,389,l),
(97,384,l),
(21,359,l),
(21,349,l)
);
}
);
width = 315;
}
);
note = f;
unicode = 102;
},
{
color = 4;
glyphname = g;
lastChange = "2025-01-05 23:10:58 +0000";
layers = (
{
anchors = (
{
name = bottom;
pos = (208,-232);
},
{
name = top;
pos = (208,384);
}
);
background = {
shapes = (
{
closed = 1;
nodes = (
(318,384,o),
(290,395,o),
(242,395,cs),
(194,395,o),
(163,383,o),
(119,347,c,{
"Letterink-NibData" = {
AngleInDegrees = "359.99999";
};
}),
(37,316,o),
(-7,256,o),
(-7,174,cs),
(-7,74,o),
(77,-11,o),
(176,-11,cs),
(222,-11,o),
(254,1,o),
(295,34,c),
(295,-238,l),
(295,-237,l,{
"Letterink-NibData" = {
AngleInDegrees = "359.99999";
};
}),
(272,-243,o),
(260,-245,o),
(242,-245,cs),
(194,-245,o),
(165,-234,o),
(119,-197,c,{
"Letterink-NibData" = {
AngleInDegrees = "0";
};
}),
(48,-238,l,{
"Letterink-NibData" = {
AngleInDegrees = "359.99999";
};
}),
(100,-280,o),
(128,-291,o),
(176,-291,cs),
(224,-291,o),
(255,-279,o),
(299,-244,c,{
"Letterink-NibData" = {
AngleInDegrees = "0";
};
}),
(367,-204,l),
(367,344,l,{
"Letterink-NibData" = {
AngleInDegrees = "0";
};
})
);
},
{
closed = 1;
nodes = (
(272,37,o),
(260,35,o),
(242,35,cs),
(142,35,o),
(65,111,o),
(65,210,cs),
(65,259,o),
(84,302,o),
(123,341,c,{
"Letterink-NibData" = {
AngleInDegrees = "360";
};
}),
(147,347,o),
(158,349,o),
(176,349,cs),
(222,349,o),
(254,337,o),
(295,304,c),
(295,42,l),
(295,43,l,{
"Letterink-NibData" = {
AngleInDegrees = "359.99999";
};
})
);
}
);
};
layerId = m005;
shapes = (
{
closed = 1;
nodes = (
(258,342,l),
(405,332,l),
(405,389,l),
(226,374,l)
);
},
{
closed = 1;
nodes = (
(36,13,o),
(75,-14,o),
(129,-14,cs),
(162,-14,o),
(222,-14,o),
(271,-14,cs),
(316,-14,o),
(348,-32,o),
(348,-58,cs),
(348,-128,o),
(284,-183,o),
(194,-183,cs),
(127,-183,o),
(79,-139,o),
(79,-86,cs),
(79,-48,o),
(101,0,o),
(132,9,c),
(104,15,l),
(51,-7,o),
(13,-72,o),
(13,-119,cs),
(13,-175,o),
(69,-221,o),
(147,-221,cs),
(293,-221,o),
(396,-135,o),
(396,-21,cs),
(396,22,o),
(358,52,o),
(305,52,cs),
(168,52,ls),
(130,52,o),
(103,66,o),
(103,85,cs),
(103,98,o),
(122,122,o),
(148,142,c),
(124,151,l),
(72,125,o),
(36,84,o),
(36,51,cs)
);
},
{
closed = 1;
nodes = (
(123,330,o),
(152,368,o),
(192,368,cs),
(240,368,o),
(274,315,o),
(274,239,cs),
(274,184,o),
(245,145,o),
(205,145,cs),
(157,145,o),
(123,199,o),
(123,276,cs)
);
},
{
closed = 1;
nodes = (
(45,175,o),
(108,120,o),
(197,120,cs),
(287,120,o),
(350,178,o),
(350,261,cs),
(350,338,o),
(288,393,o),
(201,393,cs),
(110,393,o),
(45,335,o),
(45,253,cs)
);
}
);
width = 414;
}
);
note = g;
unicode = 103;
},
{
color = 6;
glyphname = h;
lastChange = "2025-01-05 09:05:08 +0000";
layers = (
{
anchors = (
{
name = bottom;
pos = (245,0);
},
{
name = center;
pos = (123,555);
},
{
name = top;
pos = (245,694);
}
);
layerId = m005;
shapes = (
{
closed = 1;
nodes = (
(16,0,l),
(219,0,l),
(219,18,l),
(178,32,o),
(153,39,o),
(153,68,cs),
(153,557,l),
(155,658,l),
(140,668,l),
(11,637,l),
(11,616,l),
(30,608,o),
(81,595,o),
(81,563,cs),
(81,68,ls),
(81,39,o),
(57,32,o),
(16,18,c)
);
},
{
closed = 1;
nodes = (
(479,0,l),
(479,18,l),
(440,32,o),
(414,37,o),
(414,68,cs),
(414,273,ls),
(414,355,o),
(380,395,o),
(307,395,cs),
(257,395,o),
(198,365,o),
(132,305,c),
(132,286,l),
(192,329,o),
(228,335,o),
(263,335,cs),
(314,335,o),
(338,306,o),
(342,246,cs),
(346,187,o),
(346,127,o),
(342,68,cs),
(340,38,o),
(312,32,o),
(274,18,c),
(274,0,l)
);
}
);
width = 495;
}
);
unicode = 104;
},
{
color = 4;
glyphname = i;
lastChange = "2025-01-05 09:04:20 +0000";
layers = (
{
anchors = (
{
name = bottom;
pos = (115,0);
}
);
background = {
shapes = (
{
closed = 1;
nodes = (
(84,40,l,{
"Letterink-NibData" = {
AngleInDegrees = "0";
};
}),
(109,18,o),
(128,7,o),
(158,-3,c,{
"Letterink-NibData" = {
AngleInDegrees = "360";
};
}),
(232,40,l,{
"Letterink-NibData" = {
AngleInDegrees = "0";
};
}),
(194,52,o),
(180,60,o),
(156,80,c),
(156,344,l,{
"Letterink-NibData" = {
AngleInDegrees = "359.99999";
};
}),
(130,367,o),
(114,377,o),
(83,387,c,{
"Letterink-NibData" = {
AngleInDegrees = "359.99999";
};
}),
(9,344,l,{
"Letterink-NibData" = {
AngleInDegrees = "0";
};
}),
(46,332,o),
(61,324,o),
(84,304,c)
);
},
{
closed = 1;
nodes = (
(212,0,l),
(212,18,l),
(173,32,o),
(156,38,o),
(156,68,cs),
(156,315,l),
(155,315,l),
(156,389,l),
(143,395,l),
(34,357,l),
(34,336,l),
(53,328,o),
(84,314,o),
(84,293,cs),
(84,68,ls),
(84,37,o),
(68,32,o),
(29,18,c),
(29,0,l)
);
}
);
};
layerId = m005;
shapes = (
{
closed = 1;
nodes = (
(19,0,l),
(228,0,l),
(228,18,l),
(187,32,o),
(162,39,o),
(162,68,cs),
(162,148,o),
(162,234,o),
(162,314,c),
(164,393,l),
(148,403,l),
(24,362,l),
(24,341,l),
(43,333,o),
(86,320,o),
(87,298,cs),
(91,223,o),
(91,143,o),
(87,68,cs),
(85,39,o),
(63,32,o),
(19,18,c)
);
},
{
closed = 1;
nodes = (
(71,539,o),
(95,515,o),
(120,515,cs),
(147,515,o),
(171,539,o),
(171,564,cs),
(171,591,o),
(147,615,o),
(120,615,cs),
(95,615,o),
(71,591,o),
(71,564,cs)
);
}
);
width = 243;
}
);
note = i;
unicode = 105;
},
{
color = 4;
glyphname = idotless;
lastChange = "2025-01-05 22:20:01 +0000";
layers = (
{
anchors = (
{
name = bottom;
pos = (120,0);
},
{
name = ogonek;
pos = (225,0);
},
{
name = top;
pos = (120,384);
}
);
background = {
shapes = (
{
closed = 1;
nodes = (
(86,40,l,{
"Letterink-NibData" = {
AngleInDegrees = "0";
};
}),
(111,18,o),
(130,7,o),
(160,-3,c,{
"Letterink-NibData" = {
AngleInDegrees = "360";
};
}),
(234,40,l,{
"Letterink-NibData" = {
AngleInDegrees = "0";
};
}),
(196,52,o),
(182,60,o),
(158,80,c),
(158,344,l,{
"Letterink-NibData" = {
AngleInDegrees = "359.99999";
};
}),
(132,367,o),
(116,377,o),
(85,387,c,{
"Letterink-NibData" = {
AngleInDegrees = "359.99999";
};
}),
(11,344,l,{
"Letterink-NibData" = {
AngleInDegrees = "0";
};
}),
(48,332,o),
(63,324,o),
(86,304,c)
);
},
{
closed = 1;
nodes = (
(214,0,l),
(214,18,l),
(175,32,o),
(158,38,o),
(158,68,cs),
(158,315,l),
(157,315,l),
(158,389,l),
(145,395,l),
(36,357,l),
(36,336,l),
(55,328,o),
(86,314,o),
(86,293,cs),
(86,68,ls),
(86,37,o),
(70,32,o),
(31,18,c),
(31,0,l)
);
}
);
};
layerId = m005;
shapes = (
{
closed = 1;
nodes = (
(24,0,l),
(225,0,l),
(225,18,l),
(184,32,o),
(160,39,o),
(159,68,cs),
(157,148,o),
(157,234,o),
(159,314,c),
(161,393,l),
(146,403,l),
(24,362,l),
(24,341,l),
(46,333,o),
(86,320,o),
(87,298,cs),
(90,223,o),
(90,143,o),
(87,68,cs),
(86,39,o),
(71,32,o),
(24,18,c)
);
}
);
width = 243;
}
);
note = i;
unicode = 305;
},
{
color = 6;
glyphname = j;
lastChange = "2025-01-05 09:03:02 +0000";
layers = (
{
layerId = m005;
shapes = (
{
closed = 1;
nodes = (
(30,-223,o),
(32,-222,o),
(33,-222,c),
(43,-218,o),
(56,-209,o),
(66,-201,cs),
(116,-164,o),
(153,-51,o),
(153,68,cs),
(153,314,l),
(155,393,l),
(140,403,l),
(19,362,l),
(19,341,l),
(54,326,o),
(79,309,o),
(79,298,cs),
(81,254,o),
(82,128,o),
(82,1,cs),
(82,-87,o),
(66,-160,o),
(43,-178,c),
(40,-179,o),
(36,-179,o),
(32,-179,cs),
(28,-179,o),
(24,-179,o),
(21,-178,cs),
(7,-174,o),
(12,-168,o),
(-3,-164,cs),
(-24,-158,o),
(-47,-191,o),
(-47,-212,cs),
(-47,-221,o),
(-44,-228,o),
(-35,-230,cs),
(-29,-231,o),
(-23,-232,o),
(-16,-232,cs),
(-1,-232,o),
(15,-229,o),
(28,-224,cs)
);
},
{
closed = 1;
nodes = (
(142,515,o),
(163,535,o),
(163,564,cs),
(163,594,o),
(142,615,o),
(112,615,cs),
(83,615,o),
(63,594,o),
(63,564,cs),
(63,535,o),
(83,515,o),
(112,515,cs)
);
}
);
width = 225;
}
);
unicode = 106;
},
{
color = 2;
glyphname = jdotless;
lastChange = "2025-01-05 22:20:18 +0000";
layers = (
{
anchors = (
{
name = bottom;
pos = (108,-232);
},
{
name = top;
pos = (108,384);
}
);
layerId = m005;
shapes = (
{
closed = 1;
nodes = (
(29,-223,o),
(31,-222,o),
(32,-222,c),
(42,-218,o),
(55,-209,o),
(65,-201,cs),
(115,-164,o),
(150,-51,o),
(150,68,cs),
(150,314,l),
(152,393,l),
(137,403,l),
(18,362,l),
(18,341,l),
(53,326,o),
(78,309,o),
(78,298,cs),
(80,254,o),
(81,128,o),
(81,1,cs),
(81,-87,o),
(65,-160,o),
(42,-178,c),
(39,-179,o),
(35,-179,o),
(31,-179,cs),
(27,-179,o),
(23,-179,o),
(20,-178,cs),
(6,-174,o),
(11,-168,o),
(-4,-164,cs),
(-25,-158,o),
(-48,-191,o),
(-48,-212,cs),
(-48,-221,o),
(-45,-228,o),
(-36,-230,cs),
(-30,-231,o),
(-24,-232,o),
(-17,-232,cs),
(-2,-232,o),
(14,-229,o),
(27,-224,cs)
);
}
);
width = 225;
}
);
unicode = 567;
},
{
color = 6;
glyphname = k;
lastChange = "2025-01-05 09:02:38 +0000";
layers = (
{
anchors = (
{
name = bottom;
pos = (237,0);
},
{
name = top;
pos = (237,694);
}
);
layerId = m005;
shapes = (
{
closed = 1;
nodes = (
(16,0,l),
(223,0,l),
(223,18,l),
(182,32,o),
(153,39,o),
(153,68,cs),
(153,557,l),
(155,658,l),
(140,665,l),
(11,637,l),
(11,616,l),
(30,608,o),
(81,595,o),
(81,563,cs),
(81,68,ls),
(81,39,o),
(57,32,o),
(16,18,c)
);
},
{
closed = 1;
nodes = (
(132,145,l),
(334,326,ls),
(350,341,o),
(391,354,o),
(436,361,c),
(436,384,l),
(259,384,l),
(259,361,l),
(310,353,o),
(309,344,o),
(263,304,cs),
(120,178,l)
);
},
{
closed = 1;
nodes = (
(198,229,l),
(316,54,ls),
(325,40,o),
(322,26,o),
(287,23,c),
(287,0,l),
(477,0,l),
(477,23,l),
(447,26,o),
(419,38,o),
(408,55,cs),
(261,278,l)
);
}
);
width = 477;
}
);
unicode = 107;
},
{
color = 4;
glyphname = l;
lastChange = "2025-01-04 18:37:07 +0000";
layers = (
{
anchors = (
{
name = bottom;
pos = (117,0);
},
{
name = center;
pos = (117,192);
},
{
name = top;
pos = (117,694);
},
{
name = topright;
pos = (213,694);
}
);
background = {
shapes = (
{
closed = 1;
nodes = (
(81,40,l,{
"Letterink-NibData" = {
AngleInDegrees = "0";
};
}),
(106,18,o),
(125,7,o),
(155,-3,c,{
"Letterink-NibData" = {
AngleInDegrees = "360";
};
}),
(229,40,l,{
"Letterink-NibData" = {
AngleInDegrees = "0";
};
}),
(191,52,o),
(177,60,o),
(153,80,c),
(153,664,l,{
"Letterink-NibData" = {
AngleInDegrees = "359.99999";
};
}),
(127,687,o),
(111,697,o),
(80,707,c,{
"Letterink-NibData" = {
AngleInDegrees = "359.99999";
};
}),
(6,664,l,{
"Letterink-NibData" = {
AngleInDegrees = "0";
};
}),
(43,652,o),
(58,644,o),
(81,624,c)
);
}
);
};
layerId = m005;
shapes = (
{
closed = 1;
nodes = (
(16,0,l),
(219,0,l),
(219,18,l),
(178,32,o),
(153,39,o),
(153,68,cs),
(153,557,l),
(155,658,l),
(140,668,l),
(11,637,l),
(11,616,l),
(30,608,o),
(81,595,o),
(81,563,cs),
(81,68,ls),
(81,39,o),
(57,32,o),
(16,18,c)
);
}
);
width = 234;
}
);
note = l;
unicode = 108;
},
{
color = 4;
glyphname = m;
lastChange = "2025-01-05 09:01:51 +0000";
layers = (
{
anchors = (
{
name = bottom;
pos = (370,0);
},
{
name = top;
pos = (370,384);
}
);
background = {
shapes = (
{
closed = 1;
nodes = (
(88,40,l,{
"Letterink-NibData" = {
AngleInDegrees = "0";
};
}),
(113,18,o),
(132,7,o),
(162,-3,c,{
"Letterink-NibData" = {
AngleInDegrees = "360";
};
}),
(236,40,l,{
"Letterink-NibData" = {
AngleInDegrees = "0";
};
}),
(198,52,o),
(184,60,o),
(160,80,c),
(160,342,l,{
"Letterink-NibData" = {
AngleInDegrees = "360";
};
}),
(161,341,l,{
"Letterink-NibData" = {
AngleInDegrees = "0";
};
}),
(184,347,o),
(196,349,o),
(214,349,cs),
(260,349,o),
(292,337,o),
(333,304,c),
(333,40,l,{
"Letterink-NibData" = {
AngleInDegrees = "0";
};
}),
(358,18,o),
(377,6,o),
(406,-3,c,{
"Letterink-NibData" = {
AngleInDegrees = "0";
};
}),
(481,40,l,{
"Letterink-NibData" = {
AngleInDegrees = "0";
};
}),
(443,52,o),
(428,60,o),
(405,80,c),
(405,342,l,{
"Letterink-NibData" = {
AngleInDegrees = "360";
};
}),
(406,341,l,{
"Letterink-NibData" = {
AngleInDegrees = "0";
};
}),
(429,347,o),
(440,349,o),
(459,349,cs),
(505,349,o),
(537,337,o),
(578,304,c),
(578,40,l,{
"Letterink-NibData" = {
AngleInDegrees = "0";
};
}),
(603,18,o),
(622,7,o),
(651,-3,c,{
"Letterink-NibData" = {
AngleInDegrees = "360";
};
}),
(725,40,l,{
"Letterink-NibData" = {
AngleInDegrees = "359.99999";
};
}),
(689,52,o),
(673,60,o),
(650,80,c),
(650,344,l,{
"Letterink-NibData" = {
AngleInDegrees = "0";
};
}),
(600,384,o),
(572,395,o),
(524,395,cs),
(477,395,o),
(445,383,o),
(402,347,c,{
"Letterink-NibData" = {
AngleInDegrees = "360";
};
}),
(403,346,ls,{
"Letterink-NibData" = {
AngleInDegrees = "0";
};
}),
(358,382,o),
(325,395,o),
(280,395,cs),
(232,395,o),
(201,383,o),
(157,347,c,{
"Letterink-NibData" = {
AngleInDegrees = "360";
};
}),
(158,346,ls,{
"Letterink-NibData" = {
AngleInDegrees = "359.99999";
};
}),
(134,367,o),
(116,377,o),
(87,387,c,{
"Letterink-NibData" = {
AngleInDegrees = "359.99999";
};
}),
(13,344,l,{
"Letterink-NibData" = {
AngleInDegrees = "0";
};
}),
(50,332,o),
(65,324,o),
(88,304,c)
);
},
{
closed = 1;
nodes = (
(399,298,l),
(439,325,o),
(469,335,o),
(502,335,cs),
(554,335,o),
(577,307,o),
(577,246,cs),
(577,68,ls),
(577,37,o),
(561,32,o),
(522,18,c),
(522,0,l),
(704,0,l),
(704,18,l),
(665,32,o),
(649,37,o),
(649,68,cs),
(649,273,ls),
(649,352,o),
(614,395,o),
(545,395,cs),
(492,395,o),
(448,367,o),
(389,310,c)
);
}
);
};
layerId = m005;
shapes = (
{
closed = 1;
nodes = (
(473,0,l),
(473,18,l),
(434,32,o),
(408,37,o),
(408,68,cs),
(408,273,ls),
(408,355,o),
(374,395,o),
(304,395,cs),
(254,395,o),
(198,365,o),
(132,305,c),
(132,286,l),
(192,329,o),
(225,335,o),
(260,335,cs),
(311,335,o),
(333,306,o),
(336,246,cs),
(339,187,o),
(339,127,o),
(336,68,cs),
(334,38,o),
(309,24,o),
(273,18,c),
(273,0,l)
);
},
{
closed = 1;
nodes = (
(226,0,l),
(226,18,l),
(187,32,o),
(160,38,o),
(160,68,cs),
(160,315,l),
(159,315,l),
(160,394,l),
(149,403,l),
(28,362,l),
(28,341,l),
(47,333,o),
(87,319,o),
(88,298,cs),
(91,223,o),
(91,143,o),
(88,68,cs),
(87,37,o),
(62,32,o),
(23,18,c),
(23,0,l)
);
},
{
closed = 1;
nodes = (
(721,0,l),
(721,18,l),
(683,32,o),
(657,37,o),
(657,68,cs),
(657,273,ls),
(657,355,o),
(623,395,o),
(553,395,cs),
(503,395,o),
(446,365,o),
(380,305,c),
(380,286,l),
(440,329,o),
(473,335,o),
(508,335,cs),
(560,335,o),
(580,306,o),
(584,246,cs),
(588,187,o),
(588,127,o),
(584,68,cs),
(582,38,o),
(568,24,o),
(521,18,c),
(521,0,l)
);
}
);
width = 738;
}
);
note = m;
unicode = 109;
},
{
color = 4;
glyphname = n;
lastChange = "2025-01-05 08:45:15 +0000";
layers = (
{
anchors = (
{
name = bottom;
pos = (246,0);
},
{
name = top;
pos = (246,384);
}
);
background = {
shapes = (
{
closed = 1;
nodes = (
(94,40,l),
(119,18,o),
(138,7,o),
(168,-3,c),
(242,40,l),
(204,52,o),
(190,60,o),
(166,80,c),
(166,342,l),
(167,341,l),
(190,347,o),
(202,349,o),
(220,349,cs),
(266,349,o),
(298,337,o),
(339,304,c),
(339,40,l),
(364,18,o),
(383,6,o),
(412,-3,c),
(487,40,l),
(449,52,o),
(434,60,o),
(411,80,c),
(411,344,l),
(361,384,o),
(334,395,o),
(286,395,cs),
(238,395,o),
(207,383,o),
(163,347,c),
(164,346,ls),
(140,367,o),
(122,377,o),
(93,387,c),
(19,344,l),
(56,332,o),
(71,324,o),
(94,304,c)
);
},
{
closed = 1;
nodes = (
(94,40,l,{
"Letterink-NibData" = {
AngleInDegrees = "0";
};
}),
(119,18,o),
(138,7,o),
(168,-3,c,{
"Letterink-NibData" = {
AngleInDegrees = "360";
};
}),
(242,40,l,{
"Letterink-NibData" = {
AngleInDegrees = "0";
};
}),
(204,52,o),
(190,60,o),
(166,80,c),
(166,342,l,{
"Letterink-NibData" = {
AngleInDegrees = "360";
};
}),
(167,341,l,{
"Letterink-NibData" = {
AngleInDegrees = "0";
};
}),
(190,347,o),
(202,349,o),
(220,349,cs),
(266,349,o),
(298,337,o),
(339,304,c),
(339,40,l,{
"Letterink-NibData" = {
AngleInDegrees = "0";
};
}),
(364,18,o),
(383,6,o),
(412,-3,c,{
"Letterink-NibData" = {
AngleInDegrees = "0";
};
}),
(487,40,l,{
"Letterink-NibData" = {
AngleInDegrees = "0";
};
}),
(449,52,o),
(434,60,o),
(411,80,c),
(411,344,l,{
"Letterink-NibData" = {
AngleInDegrees = "0";
};
}),
(361,384,o),
(334,395,o),
(286,395,cs),
(238,395,o),
(207,383,o),
(163,347,c,{
"Letterink-NibData" = {
AngleInDegrees = "360";
};
}),
(164,346,ls,{
"Letterink-NibData" = {
AngleInDegrees = "359.99999";
};
}),
(140,367,o),
(122,377,o),
(93,387,c,{
"Letterink-NibData" = {
AngleInDegrees = "359.99999";
};
}),
(19,344,l,{
"Letterink-NibData" = {
AngleInDegrees = "0";
};
}),
(56,332,o),
(71,324,o),
(94,304,c)
);
}
);
};
layerId = m005;
shapes = (
{
closed = 1;
nodes = (
(479,0,l),
(479,18,l),
(440,32,o),
(414,37,o),
(414,68,cs),
(414,273,ls),
(414,355,o),
(380,395,o),
(310,395,cs),
(260,395,o),
(199,365,o),
(133,305,c),
(133,286,l),
(193,329,o),
(230,335,o),
(265,335,cs),
(317,335,o),
(338,306,o),
(342,246,cs),
(346,189,o),
(346,125,o),
(342,68,cs),
(340,38,o),
(314,24,o),
(276,18,c),
(276,0,l)
);
},
{
closed = 1;
nodes = (
(227,0,l),
(227,18,l),
(188,32,o),
(161,38,o),
(161,68,cs),
(161,315,l),
(162,315,l),
(163,397,l),
(148,403,l),
(29,362,l),
(29,341,l),
(48,333,o),
(88,319,o),
(89,298,cs),
(90,284,o),
(91,129,o),
(89,68,cs),
(88,37,o),
(63,32,o),
(24,18,c),
(24,0,l)
);
}
);
width = 495;
}
);
note = n;
unicode = 110;
},
{
color = 4;
glyphname = o;
lastChange = "2025-01-05 08:46:03 +0000";
layers = (
{
anchors = (
{
name = bottom;
pos = (248,0);
},
{
name = center;
pos = (248,192);
},
{
name = ogonek;
pos = (443,10);
},
{
name = top;
pos = (248,384);
},
{
name = topright;
pos = (472,384);
}
);
background = {
shapes = (
{
closed = 1;
nodes = (
(76,316,o),
(32,256,o),
(32,174,cs),
(32,74,o),
(116,-11,o),
(215,-11,cs),
(263,-11,o),
(294,1,o),
(338,36,c),
(421,68,o),
(464,128,o),
(464,210,cs),
(464,310,o),
(380,395,o),
(281,395,cs),
(233,395,o),
(202,383,o),
(158,347,c)
);
},
{
closed = 1;
nodes = (
(186,347,o),
(197,349,o),
(215,349,cs),
(315,349,o),
(392,273,o),
(392,174,cs),
(392,125,o),
(373,82,o),
(334,43,c),
(310,37,o),
(298,35,o),
(281,35,cs),
(181,35,o),
(104,111,o),
(104,210,cs),
(104,259,o),
(123,302,o),
(162,341,c)
);
},
{
closed = 1;
nodes = (
(88,320,o),
(32,244,o),
(32,174,cs),
(32,71,o),
(113,-11,o),
(215,-11,cs),
(249,-11,o),
(304,10,o),
(338,36,c,{
"Letterink-NibData" = {
AngleInDegrees = "0";
};
}),
(408,63,o),
(464,140,o),
(464,210,cs),
(464,313,o),
(383,395,o),
(281,395,cs),
(259,395,o),
(205,374,o),
(158,347,c,{
"Letterink-NibData" = {
AngleInDegrees = "359.99999";
};
})
);
},
{
closed = 1;
nodes = (
(230,346,o),
(247,349,o),
(215,349,cs),
(314,349,o),
(392,271,o),
(392,174,cs),
(392,133,o),
(366,75,o),
(334,43,c,{
"Letterink-NibData" = {
AngleInDegrees = "360";
};
}),
(307,39,o),
(281,35,o),
(281,35,cs),
(182,35,o),
(104,113,o),
(104,210,cs),
(104,251,o),
(130,309,o),
(162,341,c,{
"Letterink-NibData" = {
AngleInDegrees = "360";
};
})
);
}
);
};
layerId = m005;
shapes = (
{
closed = 1;
nodes = (
(370,-11,o),
(459,75,o),
(459,196,cs),
(459,313,o),
(370,395,o),
(244,395,cs),
(122,395,o),
(36,308,o),
(36,185,cs),
(36,70,o),
(122,-11,o),
(244,-11,cs)
);
},
{
closed = 1;
nodes = (
(124,296,o),
(170,359,o),
(236,359,cs),
(315,359,o),
(371,282,o),
(371,174,cs),
(371,87,o),
(321,25,o),
(252,25,cs),
(177,25,o),
(124,101,o),
(124,208,cs)
);
}
);
width = 495;
}
);
note = o;
unicode = 111;
},
{
color = 2;
glyphname = oslash;
lastChange = "2025-01-05 08:48:14 +0000";
layers = (
{
anchors = (
{
name = bottom;
pos = (244,0);
},
{
name = center;
pos = (244,192);
},
{
name = ogonek;
pos = (439,10);
},
{
name = top;
pos = (244,384);
},
{
name = topright;
pos = (468,384);
}
);
layerId = m005;
shapes = (
{
closed = 1;
nodes = (
(29,12,l),
(57,-16,l),
(450,378,l),
(422,406,l)
);
},
{
ref = o;
}
);
width = 495;
}
);
metricWidth = o;
unicode = 248;
},
{
glyphname = oe;
lastChange = "2025-01-05 08:49:03 +0000";
layers = (
{
layerId = m005;
shapes = (
{
closed = 1;
nodes = (
(366,-11,o),
(447,75,o),
(447,196,cs),
(447,313,o),
(366,395,o),
(241,395,cs),
(119,395,o),
(35,308,o),
(35,185,cs),
(35,70,o),
(119,-11,o),
(241,-11,cs)
);
},
{
closed = 1;
nodes = (
(123,296,o),
(167,359,o),
(233,359,cs),
(311,359,o),
(367,282,o),
(367,174,cs),
(367,87,o),
(317,25,o),
(249,25,cs),
(174,25,o),
(123,101,o),
(123,208,cs)
);
},
{
closed = 1;
nodes = (
(450,302,o),
(491,362,o),
(551,362,cs),
(596,362,o),
(630,325,o),
(633,266,c),
(427,260,l),
(423,231,l),
(702,225,l),
(714,239,l),
(714,330,o),
(652,395,o),
(565,395,cs),
(453,395,o),
(375,309,o),
(375,188,cs),
(375,71,o),
(445,-11,o),
(546,-11,cs),
(608,-11,o),
(677,33,o),
(712,95,c),
(694,108,l),
(671,75,o),
(619,52,o),
(567,52,cs),
(498,52,o),
(450,117,o),
(450,210,cs)
);
}
);
width = 747;
}
);
unicode = 339;
},
{
color = 4;
glyphname = p;
lastChange = "2025-01-05 08:49:32 +0000";
layers = (
{
associatedMasterId = m005;
background = {
shapes = (
{
closed = 1;
nodes = (
(76,-240,l,{
"Letterink-NibData" = {
AngleInDegrees = "0";
};
}),
(101,-262,o),
(120,-273,o),
(150,-283,c,{
"Letterink-NibData" = {
AngleInDegrees = "360";
};
}),
(224,-240,l,{
"Letterink-NibData" = {
AngleInDegrees = "0";
};
}),
(186,-228,o),
(172,-220,o),
(148,-200,c),
(148,-2,l,{
"Letterink-NibData" = {
AngleInDegrees = "360";
};
}),
(149,-3,l,{
"Letterink-NibData" = {
AngleInDegrees = "360";
};
}),
(172,-9,o),
(184,-11,o),
(202,-11,cs),
(249,-11,o),
(281,1,o),
(325,36,c,{
"Letterink-NibData" = {
AngleInDegrees = "0";
};
}),
(407,68,o),
(451,128,o),
(451,210,cs),
(451,310,o),
(367,395,o),
(268,395,cs),
(220,395,o),
(189,383,o),
(145,347,c,{
"Letterink-NibData" = {
AngleInDegrees = "360";
};
}),
(146,346,ls,{
"Letterink-NibData" = {
AngleInDegrees = "359.99999";
};
}),
(122,367,o),
(104,377,o),
(75,387,c,{
"Letterink-NibData" = {
AngleInDegrees = "359.99999";
};
}),
(1,344,l,{
"Letterink-NibData" = {
AngleInDegrees = "0";
};
}),
(38,332,o),
(53,324,o),
(76,304,c)
);
},
{
closed = 1;
nodes = (
(148,302,l),
(165,321,o),
(197,335,o),
(236,335,cs),
(317,335,o),
(373,269,o),
(373,183,cs),
(373,90,o),
(321,26,o),
(245,26,cs),
(189,26,o),
(155,64,o),
(148,101,c)
);
},
{
closed = 1;
nodes = (
(369,183,l),
(368,91,o),
(317,26,o),
(244,26,cs),
(191,26,o),
(137,67,o),
(113,125,c),
(67,40,l),
(104,10,o),
(168,-11,o),
(223,-11,cs),
(351,-11,o),
(443,83,o),
(443,216,c)
);
},
{
closed = 1;
nodes = (
(443,216,l),
(443,321,o),
(374,395,o),
(280,395,cs),
(228,395,o),
(156,360,o),
(107,310,c),
(107,291,l),
(137,317,o),
(190,335,o),
(235,335,cs),
(315,335,o),
(369,272,o),
(369,183,c)
);
}
);
};
layerId = "4BE9B7BC-113F-472C-95D8-B3830030B9AE";
name = "29. Dez. 24, 12:25";
shapes = (
{
closed = 1;
nodes = (
(456,226,l),
(456,325,o),
(393,395,o),
(304,395,cs),
(260,395,o),
(189,358,o),
(131,305,c),
(131,286,l),
(171,315,o),
(224,335,o),
(259,335,cs),
(318,335,o),
(363,281,o),
(368,204,c)
);
},
{
closed = 1;
nodes = (
(225,-260,l),
(225,-242,l),
(186,-228,o),
(159,-207,o),
(159,-192,cs),
(159,315,l),
(160,315,l),
(161,397,l),
(146,403,l),
(27,362,l),
(27,341,l),
(61,326,o),
(86,309,o),
(87,298,cs),
(93,208,o),
(93,5,o),
(87,-192,cs),
(86,-209,o),
(59,-229,o),
(22,-242,c),
(22,-260,l)
);
},
{
closed = 1;
nodes = (
(368,204,l),
(368,99,o),
(327,25,o),
(268,25,cs),
(215,25,o),
(163,56,o),
(142,101,c),
(105,31,l),
(136,6,o),
(201,-11,o),
(260,-11,cs),
(375,-11,o),
(456,87,o),
(456,226,c)
);
}
);
width = 488;
},
{
associatedMasterId = m005;
background = {
shapes = (
{
closed = 1;
nodes = (
(76,-240,l,{
"Letterink-NibData" = {
AngleInDegrees = "0";
};
}),
(101,-262,o),
(120,-273,o),
(150,-283,c,{
"Letterink-NibData" = {
AngleInDegrees = "360";
};
}),
(224,-240,l,{
"Letterink-NibData" = {
AngleInDegrees = "0";
};
}),
(186,-228,o),
(172,-220,o),
(148,-200,c),
(148,-2,l,{
"Letterink-NibData" = {
AngleInDegrees = "360";
};
}),
(149,-3,l,{
"Letterink-NibData" = {
AngleInDegrees = "360";
};
}),
(172,-9,o),
(184,-11,o),
(202,-11,cs),
(249,-11,o),
(281,1,o),
(325,36,c,{
"Letterink-NibData" = {
AngleInDegrees = "0";
};
}),
(407,68,o),
(451,128,o),
(451,210,cs),
(451,310,o),
(367,395,o),
(268,395,cs),
(220,395,o),
(189,383,o),
(145,347,c,{
"Letterink-NibData" = {
AngleInDegrees = "360";
};
}),
(146,346,ls,{
"Letterink-NibData" = {
AngleInDegrees = "359.99999";
};
}),
(122,367,o),
(104,377,o),
(75,387,c,{
"Letterink-NibData" = {
AngleInDegrees = "359.99999";
};
}),
(1,344,l,{
"Letterink-NibData" = {
AngleInDegrees = "0";
};
}),
(38,332,o),
(53,324,o),
(76,304,c)
);
},
{
closed = 1;
nodes = (
(148,302,l),
(165,321,o),
(197,335,o),
(236,335,cs),
(317,335,o),
(373,269,o),
(373,183,cs),
(373,90,o),
(321,26,o),
(245,26,cs),
(189,26,o),
(155,64,o),
(148,101,c)
);
},
{
closed = 1;
nodes = (
(369,183,l),
(368,91,o),
(317,26,o),
(244,26,cs),
(191,26,o),
(137,67,o),
(113,125,c),
(67,40,l),
(104,10,o),
(168,-11,o),
(223,-11,cs),
(351,-11,o),
(443,83,o),
(443,216,c)
);
},
{
closed = 1;
nodes = (
(443,216,l),
(443,321,o),
(374,395,o),
(280,395,cs),
(228,395,o),
(156,360,o),
(107,310,c),
(107,291,l),
(137,317,o),
(190,335,o),
(235,335,cs),
(315,335,o),
(369,272,o),
(369,183,c)
);
}
);
};
layerId = "8E049EDF-ED14-4448-BB42-4E4333D0143E";
name = "29. Dez. 24, 12:26";
shapes = (
{
closed = 1;
nodes = (
(456,226,l),
(456,325,o),
(393,395,o),
(304,395,cs),
(261,395,o),
(189,358,o),
(131,305,c),
(131,286,l),
(171,315,o),
(224,335,o),
(259,335,cs),
(318,335,o),
(363,281,o),
(368,204,c)
);
},
{
closed = 1;
nodes = (
(225,-260,l),
(225,-242,l),
(186,-228,o),
(159,-207,o),
(159,-192,cs),
(159,315,l),
(160,315,l),
(161,397,l),
(146,403,l),
(27,362,l),
(27,341,l),
(62,326,o),
(86,309,o),
(87,298,cs),
(93,208,o),
(93,5,o),
(87,-192,cs),
(86,-208,o),
(60,-229,o),
(22,-242,c),
(22,-260,l)
);
},
{
closed = 1;
nodes = (
(368,204,l),
(368,99,o),
(318,25,o),
(248,25,cs),
(207,25,o),
(163,56,o),
(142,101,c),
(105,31,l),
(137,6,o),
(193,-11,o),
(240,-11,cs),
(367,-11,o),
(456,87,o),
(456,226,c)
);
}
);
width = 488;
},
{
anchors = (
{
name = bottom;
pos = (245,0);
},
{
name = top;
pos = (245,384);
}
);
background = {
shapes = (
{
closed = 1;
nodes = (
(77,-240,l,{
"Letterink-NibData" = {
AngleInDegrees = "0";
};
}),
(102,-262,o),
(121,-273,o),
(151,-283,c,{
"Letterink-NibData" = {
AngleInDegrees = "360";
};
}),
(225,-240,l,{
"Letterink-NibData" = {
AngleInDegrees = "0";
};
}),
(187,-228,o),
(173,-220,o),
(149,-200,c),
(149,-2,l,{
"Letterink-NibData" = {
AngleInDegrees = "360";
};
}),
(150,-3,l,{
"Letterink-NibData" = {
AngleInDegrees = "360";
};
}),
(173,-9,o),
(185,-11,o),
(203,-11,cs),
(250,-11,o),
(282,1,o),
(326,36,c,{
"Letterink-NibData" = {
AngleInDegrees = "0";
};
}),
(408,68,o),
(452,128,o),
(452,210,cs),
(452,310,o),
(368,395,o),
(269,395,cs),
(221,395,o),
(190,383,o),
(146,347,c,{
"Letterink-NibData" = {
AngleInDegrees = "360";
};
}),
(147,346,ls,{
"Letterink-NibData" = {
AngleInDegrees = "359.99999";
};
}),
(123,367,o),
(105,377,o),
(76,387,c,{
"Letterink-NibData" = {
AngleInDegrees = "359.99999";
};
}),
(2,344,l,{
"Letterink-NibData" = {
AngleInDegrees = "0";
};
}),
(39,332,o),
(54,324,o),
(77,304,c)
);
},
{
closed = 1;
nodes = (
(149,302,l),
(166,321,o),
(198,335,o),
(237,335,cs),
(318,335,o),
(374,269,o),
(374,183,cs),
(374,90,o),
(322,26,o),
(246,26,cs),
(190,26,o),
(156,64,o),
(149,101,c)
);
},
{
closed = 1;
nodes = (
(370,183,l),
(369,91,o),
(318,26,o),
(245,26,cs),
(192,26,o),
(138,67,o),
(114,125,c),
(68,40,l),
(105,10,o),
(169,-11,o),
(224,-11,cs),
(352,-11,o),
(444,83,o),
(444,216,c)
);
},
{
closed = 1;
nodes = (
(444,216,l),
(444,321,o),
(375,395,o),
(281,395,cs),
(229,395,o),
(157,360,o),
(108,310,c),
(108,291,l),
(138,317,o),
(191,335,o),
(236,335,cs),
(316,335,o),
(370,272,o),
(370,183,c)
);
}
);
};
layerId = m005;
name = Regular;
shapes = (
{
closed = 1;
nodes = (
(459,205,l),
(459,316,o),
(390,395,o),
(292,395,cs),
(247,395,o),
(174,362,o),
(117,315,c),
(117,296,l),
(155,319,o),
(209,335,o),
(246,335,cs),
(325,335,o),
(380,268,o),
(380,174,c)
);
},
{
closed = 1;
nodes = (
(239,-232,l),
(239,-214,l),
(189,-204,o),
(153,-183,o),
(153,-164,cs),
(153,316,l),
(152,316,l),
(153,395,l),
(140,403,l),
(21,363,l),
(21,342,l),
(56,327,o),
(81,310,o),
(81,299,cs),
(81,-164,ls),
(81,-179,o),
(54,-200,o),
(16,-214,c),
(16,-232,l)
);
},
{
closed = 1;
nodes = (
(380,174,l),
(380,87,o),
(324,26,o),
(245,26,cs),
(202,26,o),
(152,64,o),
(127,117,c),
(101,28,l),
(133,5,o),
(184,-11,o),
(224,-11,cs),
(362,-11,o),
(459,78,o),
(459,205,c)
);
}
);
width = 495;
}
);
note = p;
unicode = 112;
},
{
color = 2;
glyphname = thorn;
lastChange = "2025-01-05 08:49:45 +0000";
layers = (
{
layerId = m005;
shapes = (
{
closed = 1;
nodes = (
(459,205,l),
(459,316,o),
(390,395,o),
(291,395,cs),
(246,395,o),
(174,362,o),
(117,315,c),
(117,296,l),
(155,319,o),
(209,335,o),
(246,335,cs),
(325,335,o),
(380,268,o),
(380,174,c)
);
},
{
closed = 1;
nodes = (
(239,-232,l),
(239,-214,l),
(189,-204,o),
(153,-183,o),
(153,-164,cs),
(153,316,l),
(152,316,l),
(153,570,l),
(155,660,l),
(142,668,l),
(21,628,l),
(21,607,l),
(56,592,o),
(81,575,o),
(81,564,cs),
(81,-164,ls),
(81,-179,o),
(54,-200,o),
(16,-214,c),
(16,-232,l)
);
},
{
closed = 1;
nodes = (
(380,174,l),
(380,87,o),
(324,26,o),
(245,26,cs),
(202,26,o),
(152,64,o),
(127,117,c),
(101,28,l),
(133,5,o),
(184,-11,o),
(224,-11,cs),
(362,-11,o),
(459,78,o),
(459,205,c)
);
}
);
width = 495;
}
);
unicode = 254;
},
{
color = 6;
glyphname = q;
lastChange = "2025-01-05 08:50:11 +0000";
layers = (
{
anchors = (
{
name = bottom;
pos = (248,0);
},
{
name = top;
pos = (248,384);
}
);
layerId = m005;
shapes = (
{
closed = 1;
nodes = (
(350,-164,l),
(424,-164,l),
(423,-39,o),
(423,269,o),
(424,394,c),
(400,383,o),
(376,371,o),
(352,377,c)
);
},
{
closed = 1;
nodes = (
(110,201,l),
(111,288,o),
(167,358,o),
(236,358,cs),
(288,358,o),
(346,314,o),
(369,259,c),
(415,344,l),
(380,372,o),
(311,395,o),
(257,395,cs),
(134,395,o),
(36,294,o),
(36,168,c)
);
},
{
closed = 1;
nodes = (
(36,168,l),
(36,68,o),
(109,-11,o),
(200,-11,cs),
(250,-11,o),
(329,27,o),
(375,74,c),
(375,93,l),
(347,68,o),
(290,49,o),
(245,49,cs),
(170,49,o),
(110,116,o),
(110,201,c)
);
},
{
closed = 1;
nodes = (
(350,-201,o),
(325,-202,o),
(263,-214,c),
(263,-232,l),
(479,-232,l),
(479,-214,l),
(447,-202,o),
(424,-201,o),
(424,-164,c),
(350,-164,l)
);
}
);
width = 495;
}
);
unicode = 113;
},
{
color = 4;
glyphname = r;
lastChange = "2025-01-05 08:50:37 +0000";
layers = (
{
anchors = (
{
name = bottom;
pos = (162,0);
},
{
name = top;
pos = (162,384);
}
);
background = {
shapes = (
{
closed = 1;
nodes = (
(88,40,l,{
"Letterink-NibData" = {
AngleInDegrees = "0";
};
}),
(113,18,o),
(132,7,o),
(162,-3,c,{
"Letterink-NibData" = {
AngleInDegrees = "360";
};
}),
(236,40,l,{
"Letterink-NibData" = {
AngleInDegrees = "0";
};
}),
(198,52,o),
(184,60,o),
(160,80,c),
(160,342,l,{
"Letterink-NibData" = {
AngleInDegrees = "360";
};
}),
(161,341,l,{
"Letterink-NibData" = {
AngleInDegrees = "0";
};
}),
(184,347,o),
(196,349,o),
(214,349,cs),
(262,349,o),
(291,338,o),
(337,301,c,{
"Letterink-NibData" = {
AngleInDegrees = "0";
};
}),
(408,342,l,{
"Letterink-NibData" = {
AngleInDegrees = "0";
};
}),
(356,384,o),
(328,395,o),
(280,395,cs),
(232,395,o),
(201,383,o),
(157,347,c,{
"Letterink-NibData" = {
AngleInDegrees = "360";
};
}),
(158,346,ls,{
"Letterink-NibData" = {
AngleInDegrees = "359.99999";
};
}),
(134,367,o),
(116,377,o),
(87,387,c,{
"Letterink-NibData" = {
AngleInDegrees = "359.99999";
};
}),
(13,344,l,{
"Letterink-NibData" = {
AngleInDegrees = "0";
};
}),
(50,332,o),
(65,324,o),
(88,304,c)
);
}
);
};
guides = (
{
angle = 46;
lockAngle = 1;
pos = (326,376);
}
);
layerId = m005;
shapes = (
{
closed = 1;
nodes = (
(132,228,l),
(180,287,o),
(196,321,o),
(227,321,cs),
(238,321,o),
(248,308,o),
(260,296,cs),
(281,275,o),
(341,350,o),
(320,371,cs),
(309,382,o),
(291,390,o),
(270,390,cs),
(232,390,o),
(206,362,o),
(130,267,c)
);
},
{
closed = 1;
nodes = (
(257,0,l),
(257,18,l),
(188,32,o),
(160,38,o),
(160,68,cs),
(160,295,l),
(159,295,l),
(162,394,l),
(147,403,l),
(28,362,l),
(28,341,l),
(47,333,o),
(86,319,o),
(87,298,cs),
(91,223,o),
(91,143,o),
(89,68,cs),
(88,37,o),
(62,32,o),
(23,18,c),
(23,0,l)
);
}
);
width = 324;
}
);
note = r;
unicode = 114;
},
{
color = 4;
glyphname = s;
lastChange = "2025-01-05 08:52:25 +0000";
layers = (
{
anchors = (
{
name = bottom;
pos = (168,0);
},
{
name = top;
pos = (168,384);
}
);
background = {
shapes = (
{
closed = 1;
nodes = (
(82,386,l),
(82,387,l,{
"Letterink-NibData" = {
AngleInDegrees = "360";
};
}),
(9,346,l,{
"Letterink-NibData" = {
AngleInDegrees = "360";
};
}),
(12,341,l),
(82,341,l),
(82,40,l,{
"Letterink-NibData" = {
AngleInDegrees = "0";
};
}),
(107,18,o),
(126,7,o),
(155,-3,c,{
"Letterink-NibData" = {
AngleInDegrees = "0";
};
}),
(230,40,l,{
"Letterink-NibData" = {
AngleInDegrees = "0";
};
}),
(193,52,o),
(177,60,o),
(154,80,c),
(154,662,l,{
"Letterink-NibData" = {
AngleInDegrees = "360";
};
}),
(155,661,l,{
"Letterink-NibData" = {
AngleInDegrees = "0";
};
}),
(178,667,o),
(189,669,o),
(208,669,cs),
(256,669,o),
(285,657,o),
(331,621,c,{
"Letterink-NibData" = {
AngleInDegrees = "0";
};
}),
(402,662,l,{
"Letterink-NibData" = {
AngleInDegrees = "0";
};
}),
(348,705,o),
(323,715,o),
(273,715,cs),
(226,715,o),
(194,703,o),
(151,667,c,{
"Letterink-NibData" = {
AngleInDegrees = "360";
};
}),
(82,628,l)
);
}
);
};
layerId = m005;
shapes = (
{
closed = 1;
nodes = (
(245,-9,o),
(306,39,o),
(306,108,cs),
(306,226,o),
(110,222,o),
(112,310,cs),
(113,343,o),
(139,368,o),
(174,368,cs),
(224,368,o),
(258,334,o),
(260,285,c),
(286,285,l),
(285,325,o),
(286,362,o),
(289,376,c),
(256,388,o),
(207,396,o),
(174,396,cs),
(100,396,o),
(44,347,o),
(44,278,cs),
(44,154,o),
(238,171,o),
(238,80,cs),
(238,41,o),
(204,16,o),
(159,19,cs),
(115,22,o),
(68,79,o),
(63,128,c),
(36,128,l),
(39,114,o),
(41,55,o),
(39,12,c),
(81,0,o),
(136,-9,o),
(155,-9,cs)
);
}
);
width = 342;
}
);
note = s;
unicode = 115;
},
{
glyphname = germandbls;
lastChange = "2025-01-05 22:56:57 +0000";
layers = (
{
background = {
shapes = (
{
closed = 1;
nodes = (
(427,-9,o),
(488,39,o),
(488,108,cs),
(488,226,o),
(295,222,o),
(297,310,cs),
(298,343,o),
(323,368,o),
(358,368,cs),
(406,368,o),
(440,334,o),
(442,285,c),
(468,285,l),
(467,325,o),
(468,362,o),
(471,376,c),
(438,388,o),
(391,396,o),
(358,396,cs),
(284,396,o),
(231,347,o),
(231,278,cs),
(231,154,o),
(420,171,o),
(420,80,cs),
(420,41,o),
(388,16,o),
(343,19,cs),
(299,22,o),
(255,79,o),
(250,128,c),
(223,128,l),
(226,114,o),
(228,55,o),
(226,12,c),
(268,0,o),
(321,-9,o),
(340,-9,cs)
);
}
);
};
layerId = m005;
shapes = (
{
closed = 1;
nodes = (
(158,0,l),
(156,69,ls),
(152,188,o),
(152,367,o),
(155,499,cs),
(157,574,o),
(193,627,o),
(236,627,c),
(273,665,l),
(167,665,o),
(85,583,o),
(82,467,cs),
(80,392,o),
(81,238,o),
(81,69,cs),
(81,46,o),
(47,35,o),
(9,18,c),
(9,0,l)
);
},
{
closed = 1;
nodes = (
(414,-6,o),
(486,47,o),
(486,129,cs),
(486,247,o),
(301,261,o),
(301,339,cs),
(301,430,o),
(409,394,o),
(409,550,cs),
(409,613,o),
(351,665,o),
(273,665,c),
(236,627,l),
(295,627,o),
(338,580,o),
(338,524,cs),
(338,388,o),
(232,420,o),
(232,309,cs),
(232,189,o),
(415,194,o),
(415,103,cs),
(415,50,o),
(373,19,o),
(340,22,cs),
(302,25,o),
(262,64,o),
(256,122,c),
(229,122,l),
(233,110,o),
(234,62,o),
(232,6,c),
(264,-3,o),
(312,-6,o),
(337,-6,cs)
);
},
{
closed = 1;
nodes = (
(136,334,l),
(136,389,l),
(77,384,l),
(1,359,l),
(1,349,l)
);
}
);
width = 513;
}
);
unicode = 223;
},
{
color = 4;
glyphname = t;
lastChange = "2025-01-05 08:53:20 +0000";
layers = (
{
anchors = (
{
name = bottom;
pos = (148,0);
},
{
name = center;
pos = (148,192);
},
{
name = top;
pos = (148,474);
},
{
name = topright;
pos = (276,694);
}
);
background = {
shapes = (
{
closed = 1;
nodes = (
(124,1,o),
(153,-11,o),
(201,-11,cs),
(250,-11,o),
(278,0,o),
(326,39,c,{
"Letterink-NibData" = {
AngleInDegrees = "0";
};
}),
(323,44,l),
(320,44,o),
(316,43,o),
(316,42,c,{
"Letterink-NibData" = {
AngleInDegrees = "0";
};
}),
(298,37,o),
(285,35,o),
(266,35,cs),
(220,35,o),
(188,47,o),
(147,80,c),
(147,342,l,{
"Letterink-NibData" = {
AngleInDegrees = "360";
};
}),
(148,341,l),
(254,341,l,{
"Letterink-NibData" = {
AngleInDegrees = "360";
};
}),
(327,382,l,{
"Letterink-NibData" = {
AngleInDegrees = "0";
};
}),
(324,387,l),
(147,387,l),
(147,429,l,{
"Letterink-NibData" = {
AngleInDegrees = "0";
};
}),
(2,346,l,{
"Letterink-NibData" = {
AngleInDegrees = "360";
};
}),
(5,341,l),
(75,341,l),
(75,40,l,{
"Letterink-NibData" = {
AngleInDegrees = "360";
};
})
);
}
);
};
guides = (
{
angle = 11.5;
pos = (285,39);
}
);
layerId = m005;
shapes = (
{
closed = 1;
nodes = (
(198,-11,o),
(253,5,o),
(288,27,c),
(278,48,l),
(259,40,o),
(230,34,o),
(210,34,cs),
(177,34,o),
(151,52,o),
(149,78,cs),
(147,108,o),
(146,153,o),
(146,186,cs),
(146,316,o),
(154,433,o),
(159,468,c),
(140,474,l),
(78,381,l),
(72,237,o),
(68,98,o),
(74,46,cs),
(78,13,o),
(113,-11,o),
(158,-11,cs)
);
},
{
closed = 1;
nodes = (
(282,334,l),
(282,389,l),
(82,384,l),
(6,359,l),
(6,349,l)
);
},
{
closed = 1;
nodes = (
(114,361,l),
(140,474,l),
(104,423,o),
(48,375,o),
(6,359,c)
);
}
);
width = 297;
}
);
note = t;
unicode = 116;
},
{
color = 4;
glyphname = u;
lastChange = "2025-01-05 08:53:37 +0000";
layers = (
{
anchors = (
{
name = bottom;
pos = (245,0);
},
{
name = ogonek;
pos = (440,10);
},
{
name = top;
pos = (245,384);
},
{
name = topright;
pos = (469,384);
}
);
background = {
shapes = (
{
closed = 1;
nodes = (
(80,40,l,{
"Letterink-NibData" = {
AngleInDegrees = "360";
};
}),
(129,1,o),
(158,-11,o),
(206,-11,cs),
(253,-11,o),
(285,1,o),
(329,37,c,{
"Letterink-NibData" = {
AngleInDegrees = "360";
};
}),
(328,38,ls,{
"Letterink-NibData" = {
AngleInDegrees = "0";
};
}),
(351,17,o),
(370,6,o),
(398,-3,c,{
"Letterink-NibData" = {
AngleInDegrees = "0";
};
}),
(473,40,l,{
"Letterink-NibData" = {
AngleInDegrees = "0";
};
}),
(435,52,o),
(420,60,o),
(397,80,c),
(397,344,l,{
"Letterink-NibData" = {
AngleInDegrees = "359.99999";
};
}),
(371,367,o),
(355,377,o),
(324,387,c,{
"Letterink-NibData" = {
AngleInDegrees = "359.99999";
};
}),
(250,344,l,{
"Letterink-NibData" = {
AngleInDegrees = "0";
};
}),
(287,332,o),
(302,324,o),
(325,304,c),
(325,42,l),
(325,43,l,{
"Letterink-NibData" = {
AngleInDegrees = "0";
};
}),
(301,37,o),
(290,35,o),
(272,35,cs),
(225,35,o),
(194,47,o),
(152,80,c),
(152,344,l,{
"Letterink-NibData" = {
AngleInDegrees = "359.99999";
};
}),
(126,367,o),
(110,377,o),
(79,387,c,{
"Letterink-NibData" = {
AngleInDegrees = "359.99999";
};
}),
(5,344,l,{
"Letterink-NibData" = {
AngleInDegrees = "0";
};
}),
(42,332,o),
(57,324,o),
(80,304,c)
);
}
);
};
layerId = m005;
shapes = (
{
closed = 1;
nodes = (
(144,403,l),
(18,369,l),
(18,351,l),
(57,337,o),
(83,332,o),
(83,301,cs),
(80,111,ls),
(79,40,o),
(137,-11,o),
(204,-11,cs),
(252,-11,o),
(309,32,o),
(361,89,c),
(361,108,l),
(329,75,o),
(280,49,o),
(243,49,cs),
(192,49,o),
(154,77,o),
(152,145,cs),
(150,201,o),
(154,265,o),
(155,321,cs),
(155,345,o),
(157,370,o),
(157,394,c)
);
},
{
closed = 1;
nodes = (
(395,403,l),
(268,369,l),
(268,351,l),
(307,337,o),
(330,331,o),
(332,301,cs),
(337,219,o),
(334,146,o),
(329,64,c),
(332,64,l),
(331,-5,l),
(344,-11,l),
(473,17,l),
(473,38,l),
(444,41,o),
(403,55,o),
(403,76,cs),
(406,321,l),
(408,394,l)
);
}
);
width = 495;
}
);
note = u;
unicode = 117;
},
{
color = 4;
glyphname = v;
lastChange = "2025-01-05 08:54:24 +0000";
layers = (
{
anchors = (
{
name = bottom;
pos = (208,0);
},
{
name = top;
pos = (208,384);
}
);
background = {
shapes = (
{
closed = 1;
nodes = (
(233,-12,l,{
"Letterink-NibData" = {
AngleInDegrees = "360";
};
}),
(391,343,l,{
"Letterink-NibData" = {
AngleInDegrees = "0";
};
}),
(364,367,o),
(348,376,o),
(317,387,c,{
"Letterink-NibData" = {
AngleInDegrees = "0";
};
}),
(257,327,l,{
"Letterink-NibData" = {
AngleInDegrees = "360";
};
}),
(291,316,o),
(307,307,o),
(329,289,c,{
"Letterink-NibData" = {
AngleInDegrees = "360";
};
}),
(253,119,l,{
"Letterink-NibData" = {
AngleInDegrees = "360";
};
}),
(143,346,l,{
"Letterink-NibData" = {
AngleInDegrees = "359.99999";
};
}),
(119,367,o),
(102,377,o),
(72,387,c,{
"Letterink-NibData" = {
AngleInDegrees = "0";
};
}),
(12,327,l,{
"Letterink-NibData" = {
AngleInDegrees = "0";
};
}),
(48,315,o),
(63,307,o),
(88,286,c,{
"Letterink-NibData" = {
AngleInDegrees = "360";
};
})
);
}
);
};
layerId = m005;
shapes = (
{
closed = 1;
nodes = (
(192,0,l),
(220,0,l),
(348,302,ls),
(357,322,o),
(366,335,o),
(377,345,cs),
(387,353,o),
(399,358,o),
(414,361,c),
(414,384,l),
(268,384,l),
(268,361,l),
(281,359,o),
(300,358,o),
(311,351,cs),
(317,348,o),
(321,343,o),
(321,336,cs),
(321,330,o),
(318,319,o),
(312,304,cs),
(221,72,l),
(241,72,l),
(144,318,ls),
(141,327,o),
(139,333,o),
(139,337,cs),
(139,344,o),
(143,349,o),
(150,353,cs),
(163,359,o),
(185,360,o),
(199,361,c),
(199,384,l),
(0,384,l),
(0,361,l),
(15,359,o),
(36,356,o),
(45,348,cs),
(53,340,o),
(60,328,o),
(68,308,cs)
);
}
);
width = 414;
}
);
note = v;
unicode = 118;
},
{
color = 6;
glyphname = w;
lastChange = "2025-01-05 08:55:15 +0000";
layers = (
{
anchors = (
{
name = bottom;
pos = (308,0);
},
{
name = top;
pos = (308,384);
}
);
layerId = m005;
shapes = (
{
closed = 1;
nodes = (
(388,0,l),
(416,0,l),
(546,302,ls),
(555,322,o),
(564,335,o),
(575,345,cs),
(585,353,o),
(597,358,o),
(612,361,c),
(612,384,l),
(466,384,l),
(466,361,l),
(479,359,o),
(498,358,o),
(509,351,cs),
(515,348,o),
(519,343,o),
(519,336,cs),
(519,330,o),
(516,319,o),
(510,304,cs),
(417,72,l),
(438,72,l),
(348,318,ls),
(345,327,o),
(343,333,o),
(343,337,cs),
(343,344,o),
(347,349,o),
(354,353,cs),
(367,359,o),
(386,360,o),
(400,361,c),
(400,384,l),
(223,384,l),
(223,361,l),
(238,359,o),
(239,356,o),
(248,348,cs),
(256,340,o),
(263,328,o),
(271,308,cs)
);
},
{
closed = 1;
nodes = (
(311,279,l),
(220,72,l),
(241,72,l),
(145,318,ls),
(141,327,o),
(140,333,o),
(140,337,cs),
(140,344,o),
(144,349,o),
(151,353,cs),
(164,359,o),
(166,360,o),
(180,361,c),
(180,384,l),
(0,384,l),
(0,361,l),
(15,359,o),
(36,356,o),
(45,348,cs),
(53,340,o),
(60,328,o),
(68,308,cs),
(191,0,l),
(219,0,l),
(330,241,l)
);
}
);
width = 612;
}
);
unicode = 119;
},
{
color = 6;
glyphname = x;
lastChange = "2025-01-05 08:55:40 +0000";
layers = (
{
anchors = (
{
name = bottom;
pos = (208,0);
},
{
name = top;
pos = (208,384);
}
);
layerId = m005;
shapes = (
{
closed = 1;
nodes = (
(195,159,l),
(209,154,l),
(341,322,ls),
(354,339,o),
(381,356,o),
(407,361,c),
(407,384,l),
(262,384,l),
(262,365,l),
(293,360,o),
(307,344,o),
(292,324,cs),
(218,226,l),
(239,221,l),
(157,338,ls),
(142,359,o),
(170,364,o),
(185,365,c),
(185,384,l),
(8,384,l),
(8,361,l),
(33,358,o),
(55,346,o),
(69,328,cs)
);
},
{
closed = 1;
nodes = (
(239,223,l),
(212,238,l),
(73,62,ls),
(54,38,o),
(36,30,o),
(0,23,c),
(0,0,l),
(169,0,l),
(169,19,l),
(138,24,o),
(105,30,o),
(120,50,cs),
(206,170,l),
(195,161,l),
(280,46,ls),
(292,30,o),
(263,21,o),
(238,19,c),
(238,0,l),
(423,0,l),
(423,23,l),
(398,26,o),
(383,36,o),
(368,56,cs)
);
}
);
width = 423;
}
);
unicode = 120;
},
{
color = 6;
glyphname = y;
lastChange = "2025-01-05 08:56:00 +0000";
layers = (
{
anchors = (
{
name = bottom;
pos = (208,0);
},
{
name = top;
pos = (208,384);
}
);
layerId = m005;
shapes = (
{
closed = 1;
nodes = (
(238,0,l),
(357,302,ls),
(365,322,o),
(375,335,o),
(386,345,cs),
(396,353,o),
(408,358,o),
(423,361,c),
(423,384,l),
(276,384,l),
(276,361,l),
(289,359,o),
(306,358,o),
(317,351,cs),
(323,348,o),
(327,343,o),
(327,336,cs),
(327,330,o),
(324,319,o),
(318,304,cs),
(212,27,l),
(235,55,l),
(147,318,ls),
(144,327,o),
(142,333,o),
(142,337,cs),
(142,344,o),
(146,349,o),
(153,353,cs),
(166,359,o),
(188,360,o),
(202,361,c),
(202,384,l),
(0,384,l),
(0,361,l),
(15,359,o),
(36,356,o),
(45,348,cs),
(53,340,o),
(61,328,o),
(68,308,cs),
(196,-61,l)
);
},
{
closed = 1;
nodes = (
(121,-232,o),
(175,-139,o),
(203,-75,cs),
(232,-17,o),
(218,-46,o),
(238,0,c),
(213,25,l),
(152,-116,l),
(136,-142,o),
(128,-161,o),
(99,-161,cs),
(80,-161,o),
(78,-141,o),
(56,-141,cs),
(32,-141,o),
(8,-170,o),
(8,-202,cs),
(8,-226,o),
(24,-232,o),
(48,-232,cs)
);
}
);
width = 423;
},
{
associatedMasterId = m005;
layerId = "50AA2D8F-A47F-47B7-8402-81B2F32D7E55";
name = "29. Dez. 24, 16:03";
shapes = (
{
closed = 1;
nodes = (
(180,0,l),
(242,0,l),
(360,302,ls),
(368,322,o),
(378,335,o),
(389,345,cs),
(399,353,o),
(411,358,o),
(426,361,c),
(426,384,l),
(280,384,l),
(280,361,l),
(293,359,o),
(310,358,o),
(321,351,cs),
(327,348,o),
(331,343,o),
(331,336,cs),
(331,330,o),
(328,319,o),
(322,304,cs),
(217,27,l),
(240,55,l),
(152,318,ls),
(149,327,o),
(147,333,o),
(147,337,cs),
(147,344,o),
(151,349,o),
(158,353,cs),
(171,359,o),
(193,360,o),
(207,361,c),
(207,384,l),
(6,384,l),
(6,361,l),
(21,359,o),
(42,356,o),
(51,348,cs),
(59,340,o),
(67,328,o),
(74,308,cs)
);
},
{
closed = 1;
nodes = (
(213,25,l),
(167,-106,o),
(128,-166,o),
(113,-166,cs),
(102,-166,o),
(93,-160,o),
(84,-149,cs),
(74,-137,o),
(74,-125,o),
(68,-119,cs),
(45,-98,o),
(-17,-165,o),
(5,-188,cs),
(21,-204,o),
(59,-215,o),
(97,-215,cs),
(110,-215,o),
(124,-208,o),
(136,-196,cs),
(181,-153,o),
(222,-46,o),
(242,0,c)
);
},
{
closed = 0;
nodes = (
(338,-122,l)
);
}
);
width = 426;
}
);
unicode = 121;
},
{
color = 6;
glyphname = z;
lastChange = "2025-01-04 18:37:07 +0000";
layers = (
{
anchors = (
{
name = bottom;
pos = (200,0);
},
{
name = center;
pos = (200,192);
},
{
name = top;
pos = (200,384);
}
);
layerId = m005;
shapes = (
{
closed = 1;
nodes = (
(150,1,o),
(258,0,o),
(369,0,c),
(369,157,l),
(341,157,l),
(332,102,o),
(324,62,o),
(299,62,cs),
(83,62,l),
(93,46,l),
(363,354,l),
(363,391,l),
(272,386,o),
(220,384,o),
(137,384,cs),
(125,384,o),
(105,388,o),
(109,403,c),
(79,412,l),
(36,264,l),
(66,255,l),
(79,307,o),
(98,323,o),
(119,323,cs),
(313,323,l),
(313,359,l),
(39,44,l),
(39,-5,l)
);
}
);
width = 405;
}
);
unicode = 122;
},
{
color = 2;
glyphname = eth.001;
lastChange = "2025-01-05 08:57:08 +0000";
layers = (
{
layerId = m005;
shapes = (
{
closed = 1;
nodes = (
(383,-11,o),
(466,80,o),
(466,208,cs),
(466,383,o),
(326,563,o),
(138,642,c),
(120,597,l),
(270,534,o),
(380,373,o),
(380,208,cs),
(380,103,o),
(322,29,o),
(247,29,cs),
(176,29,o),
(131,100,o),
(131,201,cs),
(131,291,o),
(176,354,o),
(247,354,cs),
(322,354,o),
(380,294,o),
(380,208,c),
(418,190,l),
(418,310,o),
(338,395,o),
(230,395,cs),
(116,395,o),
(43,318,o),
(43,210,cs),
(43,81,o),
(130,-11,o),
(263,-11,cs)
);
},
{
closed = 1;
nodes = (
(188,439,l),
(349,606,l),
(317,638,l),
(160,471,l)
);
}
);
width = 513;
}
);
},
{
color = 9;
glyphname = c_t;
lastChange = "2025-01-05 22:20:58 +0000";
layers = (
{
layerId = m005;
shapes = (
{
ref = c;
},
{
pos = (392,0);
ref = t;
},
{
closed = 1;
nodes = (
(551,466,l),
(551,546,o),
(494,603,o),
(413,603,cs),
(332,603,o),
(275,546,o),
(275,465,cs),
(275,419,o),
(293,381,o),
(323,356,c),
(346,372,l),
(319,392,o),
(302,426,o),
(302,465,cs),
(302,529,o),
(348,575,o),
(413,575,cs),
(477,575,o),
(527,529,o),
(527,465,cs),
(527,455,o),
(526,446,o),
(524,437,c)
);
}
);
width = 702;
}
);
metricLeft = c;
metricRight = t;
},
{
color = 9;
glyphname = f_f;
lastChange = "2025-01-05 22:21:03 +0000";
layers = (
{
layerId = m005;
shapes = (
{
closed = 1;
nodes = (
(20,0,l),
(253,0,l),
(253,18,l),
(199,31,o),
(162,31,o),
(160,69,cs),
(155,163,o),
(147,354,o),
(159,499,cs),
(164,560,o),
(177,627,o),
(246,627,cs),
(269,627,o),
(279,619,o),
(288,608,cs),
(297,595,o),
(301,578,o),
(312,569,cs),
(335,548,o),
(397,615,o),
(375,638,cs),
(357,656,o),
(324,665,o),
(283,665,cs),
(225,665,o),
(170,644,o),
(132,603,cs),
(90,559,o),
(89,522,o),
(85,417,cs),
(84,385,o),
(84,221,o),
(85,69,cs),
(85,30,o),
(52,32,o),
(20,18,c)
);
},
{
closed = 1;
nodes = (
(580,334,l),
(580,389,l),
(91,384,l),
(15,359,l),
(15,349,l)
);
},
{
pos = (284,0);
ref = f;
}
);
width = 594;
}
);
metricLeft = f;
metricRight = f;
},
{
color = 9;
glyphname = f_f_i;
lastChange = "2025-01-05 22:21:09 +0000";
layers = (
{
layerId = m005;
shapes = (
{
closed = 1;
nodes = (
(24,0,l),
(257,0,l),
(257,18,l),
(203,31,o),
(167,31,o),
(165,69,cs),
(160,163,o),
(160,304,o),
(165,449,cs),
(167,510,o),
(162,624,o),
(231,624,cs),
(254,624,o),
(263,617,o),
(272,606,cs),
(281,593,o),
(285,576,o),
(296,567,cs),
(319,546,o),
(381,615,o),
(359,638,cs),
(341,656,o),
(308,665,o),
(267,665,cs),
(209,665,o),
(161,631,o),
(133,590,cs),
(99,540,o),
(93,492,o),
(89,387,cs),
(88,355,o),
(88,221,o),
(89,69,cs),
(89,30,o),
(56,32,o),
(24,18,c)
);
},
{
closed = 1;
nodes = (
(718,334,l),
(718,389,l),
(95,384,l),
(19,359,l),
(19,349,l)
);
},
{
pos = (296,0);
ref = f_i;
}
);
width = 801;
}
);
metricLeft = f;
metricRight = i;
},
{
color = 9;
glyphname = f_f_l;
lastChange = "2025-01-05 22:21:12 +0000";
layers = (
{
layerId = m005;
shapes = (
{
closed = 1;
nodes = (
(24,0,l),
(257,0,l),
(257,18,l),
(203,31,o),
(167,31,o),
(165,69,cs),
(160,163,o),
(160,304,o),
(165,449,cs),
(167,510,o),
(162,624,o),
(231,624,cs),
(254,624,o),
(263,617,o),
(272,606,cs),
(281,593,o),
(285,576,o),
(296,567,cs),
(319,546,o),
(381,615,o),
(359,638,cs),
(341,656,o),
(308,665,o),
(267,665,cs),
(209,665,o),
(161,631,o),
(133,590,cs),
(99,540,o),
(93,492,o),
(89,387,cs),
(88,355,o),
(88,221,o),
(89,69,cs),
(89,30,o),
(56,32,o),
(24,18,c)
);
},
{
closed = 1;
nodes = (
(588,334,l),
(588,389,l),
(95,384,l),
(19,359,l),
(19,349,l)
);
},
{
pos = (288,0);
ref = f_l;
}
);
width = 801;
}
);
metricLeft = f;
metricRight = l;
},
{
color = 9;
glyphname = f_i;
lastChange = "2025-01-04 09:15:56 +0000";
layers = (
{
layerId = m005;
shapes = (
{
closed = 1;
nodes = (
(253,0,l),
(253,18,l),
(199,31,o),
(161,52,o),
(160,69,cs),
(152,227,o),
(159,405,o),
(159,499,cs),
(159,603,o),
(203,627,o),
(236,627,cs),
(287,627,o),
(307,600,o),
(326,561,cs),
(335,543,o),
(352,525,o),
(373,525,cs),
(400,525,o),
(424,549,o),
(424,574,cs),
(424,591,o),
(414,607,o),
(401,616,c),
(379,636,o),
(353,665,o),
(263,665,cs),
(212,665,o),
(174,647,o),
(147,616,cs),
(106,571,o),
(88,499,o),
(85,417,cs),
(84,382,o),
(84,237,o),
(85,69,cs),
(85,56,o),
(58,35,o),
(20,18,c),
(20,0,l)
);
},
{
closed = 1;
nodes = (
(417,395,l),
(91,384,l),
(15,359,l),
(15,349,l),
(417,332,l)
);
},
{
closed = 1;
nodes = (
(497,0,l),
(497,18,l),
(456,32,o),
(432,39,o),
(431,68,cs),
(429,148,o),
(429,229,o),
(431,309,cs),
(433,388,l),
(418,395,l),
(299,387,l),
(299,376,l),
(318,368,o),
(358,355,o),
(359,333,cs),
(362,258,o),
(362,143,o),
(359,68,cs),
(358,39,o),
(335,32,o),
(294,18,c),
(294,0,l)
);
}
);
width = 504;
}
);
metricLeft = f;
metricRight = i;
},
{
color = 9;
glyphname = f_l;
lastChange = "2025-01-05 22:21:15 +0000";
layers = (
{
layerId = m005;
shapes = (
{
closed = 1;
nodes = (
(20,0,l),
(253,0,l),
(253,18,l),
(199,31,o),
(162,31,o),
(160,69,cs),
(155,163,o),
(143,354,o),
(155,499,cs),
(160,560,o),
(157,627,o),
(226,627,cs),
(249,627,o),
(278,622,o),
(295,616,cs),
(330,603,o),
(407,605,o),
(385,628,cs),
(367,646,o),
(304,665,o),
(263,665,cs),
(205,665,o),
(170,644,o),
(132,603,cs),
(90,559,o),
(89,522,o),
(85,417,cs),
(84,385,o),
(84,221,o),
(85,69,cs),
(85,30,o),
(52,32,o),
(20,18,c)
);
},
{
closed = 1;
nodes = (
(300,334,l),
(300,389,l),
(91,384,l),
(15,359,l),
(15,349,l)
);
},
{
pos = (284,0);
ref = l;
}
);
width = 513;
}
);
metricLeft = f;
metricRight = l;
},
{
color = 9;
glyphname = s_t;
lastChange = "2025-01-05 22:21:19 +0000";
layers = (
{
layerId = m005;
shapes = (
{
ref = s;
},
{
pos = (328,0);
ref = t;
},
{
closed = 1;
nodes = (
(486,466,l),
(486,546,o),
(429,603,o),
(348,603,cs),
(267,603,o),
(210,546,o),
(210,465,cs),
(210,419,o),
(228,381,o),
(258,356,c),
(280,376,l),
(253,396,o),
(237,426,o),
(237,465,cs),
(237,529,o),
(283,575,o),
(348,575,cs),
(412,575,o),
(462,529,o),
(462,465,cs),
(462,455,o),
(461,446,o),
(459,437,c)
);
}
);
width = 630;
}
);
metricLeft = s;
metricRight = t;
},
{
glyphname = zero;
lastChange = "2025-01-05 08:57:43 +0000";
layers = (
{
layerId = m005;
shapes = (
{
closed = 1;
nodes = (
(372,-11,o),
(459,81,o),
(459,212,cs),
(459,343,o),
(372,435,o),
(247,435,cs),
(124,435,o),
(36,344,o),
(36,213,cs),
(36,82,o),
(124,-11,o),
(247,-11,cs)
);
},
{
closed = 1;
nodes = (
(170,17,o),
(124,86,o),
(124,210,cs),
(124,337,o),
(170,407,o),
(247,407,cs),
(326,407,o),
(371,339,o),
(371,217,cs),
(371,88,o),
(326,17,o),
(247,17,cs)
);
}
);
width = 495;
}
);
unicode = 48;
},
{
glyphname = one;
lastChange = "2025-01-05 08:57:52 +0000";
layers = (
{
background = {
shapes = (
{
closed = 0;
nodes = (
(224,68,ls),
(222,39,o),
(200,32,o),
(159,18,c),
(159,0,l),
(362,0,l),
(362,18,l),
(321,32,o),
(296,39,o),
(296,68,cs)
);
}
);
};
layerId = m005;
shapes = (
{
closed = 1;
nodes = (
(382,0,l),
(382,20,l),
(333,39,o),
(302,25,o),
(300,89,cs),
(295,264,o),
(296,268,o),
(302,443,c),
(285,449,l),
(89,381,l),
(97,346,l),
(261,369,l),
(221,389,l),
(225,236,o),
(227,127,o),
(224,89,cs),
(219,25,o),
(203,39,o),
(141,20,c),
(141,0,l)
);
}
);
width = 504;
}
);
unicode = 49;
},
{
glyphname = two;
lastChange = "2025-01-05 08:58:14 +0000";
layers = (
{
background = {
shapes = (
{
closed = 1;
nodes = (
(110,439,o),
(35,397,o),
(35,338,cs),
(35,314,o),
(57,297,o),
(89,297,cs),
(117,297,o),
(136,310,o),
(136,329,cs),
(136,344,o),
(105,338,o),
(105,360,cs),
(105,390,o),
(144,411,o),
(199,411,c),
(216,439,l)
);
},
{
closed = 1;
nodes = (
(423,0,l),
(439,118,l),
(423,118,l),
(421,103,o),
(406,73,o),
(399,73,c)
);
}
);
};
layerId = m005;
shapes = (
{
closed = 1;
nodes = (
(416,0,l),
(441,134,l),
(418,134,l),
(410,109,o),
(386,74,o),
(370,73,cs),
(76,55,l),
(84,49,l),
(82,127,o),
(409,143,o),
(409,312,cs),
(409,386,o),
(329,439,o),
(214,439,c),
(215,399,l),
(276,399,o),
(323,363,o),
(323,311,cs),
(323,193,o),
(27,127,o),
(27,49,c),
(27,0,l)
);
},
{
closed = 1;
nodes = (
(108,439,o),
(35,379,o),
(35,295,cs),
(35,260,o),
(57,236,o),
(89,236,cs),
(117,236,o),
(136,255,o),
(136,282,cs),
(136,303,o),
(105,295,o),
(105,326,cs),
(105,369,o),
(149,399,o),
(215,399,c),
(214,439,l)
);
}
);
width = 477;
}
);
unicode = 50;
},
{
glyphname = three;
lastChange = "2025-01-05 08:58:32 +0000";
layers = (
{
background = {
shapes = (
{
closed = 1;
nodes = (
(41,472,o),
(50,439,o),
(68,421,cs),
(91,399,o),
(160,461,o),
(139,484,cs),
(130,495,o),
(113,499,o),
(100,508,cs),
(89,517,o),
(82,526,o),
(82,549,c),
(41,513,l)
);
}
);
};
layerId = m005;
shapes = (
{
closed = 1;
nodes = (
(342,-199,o),
(432,-130,o),
(432,-32,cs),
(432,62,o),
(357,128,o),
(252,128,c),
(251,123,l),
(346,123,o),
(414,194,o),
(414,294,cs),
(414,379,o),
(339,439,o),
(233,439,c),
(216,399,l),
(279,399,o),
(326,352,o),
(326,286,cs),
(326,203,o),
(256,144,o),
(164,144,c),
(164,105,l),
(267,105,o),
(344,52,o),
(344,-22,cs),
(344,-102,o),
(286,-159,o),
(209,-159,cs),
(148,-159,o),
(106,-129,o),
(106,-86,cs),
(106,-55,o),
(137,-63,o),
(137,-42,cs),
(137,-15,o),
(118,4,o),
(90,4,cs),
(58,4,o),
(36,-20,o),
(36,-55,cs),
(36,-139,o),
(109,-199,o),
(215,-199,cs)
);
},
{
closed = 1;
nodes = (
(127,439,o),
(54,379,o),
(54,295,cs),
(54,260,o),
(76,236,o),
(108,236,cs),
(136,236,o),
(155,255,o),
(155,282,cs),
(155,303,o),
(124,295,o),
(124,326,cs),
(124,369,o),
(155,399,o),
(216,399,c),
(233,439,l)
);
}
);
width = 486;
}
);
unicode = 51;
},
{
glyphname = four;
lastChange = "2025-01-04 18:37:07 +0000";
layers = (
{
guides = (
{
pos = (348,-171);
}
);
layerId = m005;
shapes = (
{
closed = 1;
nodes = (
(391,-171,l),
(391,460,l),
(294,435,l),
(27,0,l),
(504,0,l),
(504,60,l),
(83,60,l),
(94,44,l),
(331,418,l),
(319,420,l),
(313,257,o),
(313,-149,o),
(311,-171,c)
);
}
);
width = 540;
}
);
unicode = 52;
},
{
glyphname = five;
lastChange = "2025-01-05 08:58:52 +0000";
layers = (
{
background = {
shapes = (
{
closed = 1;
nodes = (
(360,-11,o),
(454,81,o),
(454,210,cs),
(454,318,o),
(374,395,o),
(260,395,cs),
(149,395,o),
(71,310,o),
(71,190,c),
(109,208,l),
(109,294,o),
(165,354,o),
(243,354,cs),
(314,354,o),
(364,291,o),
(364,201,cs),
(364,100,o),
(314,29,o),
(243,29,cs),
(165,29,o),
(109,103,o),
(109,208,cs),
(109,373,o),
(220,534,o),
(377,597,c),
(359,642,l),
(161,563,o),
(21,383,o),
(21,208,cs),
(21,80,o),
(106,-11,o),
(227,-11,cs)
);
}
);
};
layerId = m005;
shapes = (
{
closed = 1;
nodes = (
(355,-188,o),
(450,-94,o),
(450,39,cs),
(450,143,o),
(372,217,o),
(262,217,cs),
(190,217,o),
(136,183,o),
(115,144,c),
(126,144,l),
(151,395,l),
(134,376,l),
(397,367,l),
(421,501,l),
(405,501,l),
(401,475,o),
(383,440,o),
(373,440,c),
(110,439,l),
(78,111,l),
(132,113,l),
(148,146,o),
(187,176,o),
(242,176,cs),
(311,176,o),
(362,111,o),
(362,20,cs),
(362,-78,o),
(308,-148,o),
(236,-148,c),
(223,-188,l)
);
},
{
closed = 1;
nodes = (
(236,-148,l),
(175,-148,o),
(133,-118,o),
(133,-75,cs),
(133,-44,o),
(164,-52,o),
(164,-31,cs),
(164,-4,o),
(145,15,o),
(117,15,cs),
(85,15,o),
(63,-9,o),
(63,-44,cs),
(63,-128,o),
(129,-188,o),
(223,-188,c)
);
},
{
closed = 1;
nodes = (
(397,367,l),
(422,501,l),
(399,501,l),
(391,475,o),
(366,441,o),
(351,440,c)
);
}
);
width = 522;
}
);
unicode = 53;
},
{
glyphname = six;
lastChange = "2025-01-05 08:59:02 +0000";
layers = (
{
layerId = m005;
shapes = (
{
closed = 1;
nodes = (
(374,-11,o),
(468,81,o),
(468,210,cs),
(468,318,o),
(388,395,o),
(274,395,cs),
(163,395,o),
(84,310,o),
(84,190,c),
(122,208,l),
(122,294,o),
(179,354,o),
(257,354,cs),
(328,354,o),
(380,291,o),
(380,201,cs),
(380,100,o),
(328,29,o),
(257,29,cs),
(179,29,o),
(122,103,o),
(122,208,cs),
(122,373,o),
(234,534,o),
(391,597,c),
(373,642,l),
(175,563,o),
(36,383,o),
(36,208,cs),
(36,80,o),
(120,-11,o),
(241,-11,cs)
);
}
);
width = 504;
}
);
unicode = 54;
},
{
glyphname = seven;
lastChange = "2025-01-05 09:01:20 +0000";
layers = (
{
layerId = m005;
shapes = (
{
closed = 1;
nodes = (
(238,-177,l),
(281,75,o),
(364,318,o),
(486,411,c),
(470,439,l),
(36,439,l),
(55,273,l),
(82,277,l),
(71,334,o),
(90,369,o),
(122,369,cs),
(401,369,l),
(403,392,l),
(259,214,o),
(174,-22,o),
(149,-177,c)
);
}
);
width = 513;
}
);
unicode = 55;
},
{
glyphname = eight;
lastChange = "2025-01-05 08:59:21 +0000";
layers = (
{
layerId = m005;
shapes = (
{
closed = 1;
nodes = (
(386,-11,o),
(477,66,o),
(477,176,cs),
(477,270,o),
(388,337,o),
(263,337,cs),
(140,337,o),
(54,268,o),
(54,171,cs),
(54,64,o),
(138,-11,o),
(258,-11,cs)
);
},
{
closed = 1;
nodes = (
(196,29,o),
(142,89,o),
(142,174,cs),
(142,247,o),
(193,299,o),
(263,299,cs),
(335,299,o),
(389,246,o),
(389,170,cs),
(389,87,o),
(338,29,o),
(270,29,cs)
);
},
{
closed = 1;
nodes = (
(373,303,o),
(449,375,o),
(449,476,cs),
(449,564,o),
(372,626,o),
(264,626,cs),
(153,626,o),
(76,560,o),
(76,466,cs),
(76,371,o),
(155,303,o),
(267,303,cs)
);
},
{
closed = 1;
nodes = (
(198,340,o),
(156,394,o),
(156,470,cs),
(156,538,o),
(196,586,o),
(254,586,cs),
(321,586,o),
(369,538,o),
(369,470,cs),
(369,394,o),
(323,340,o),
(259,340,cs)
);
}
);
width = 531;
}
);
unicode = 56;
},
{
glyphname = nine;
lastChange = "2025-01-05 08:59:29 +0000";
layers = (
{
background = {
shapes = (
{
closed = 1;
nodes = (
(139,627,o),
(45,535,o),
(45,406,cs),
(45,298,o),
(125,221,o),
(239,221,cs),
(350,221,o),
(428,306,o),
(428,426,c),
(390,408,l),
(390,322,o),
(334,262,o),
(256,262,cs),
(185,262,o),
(135,325,o),
(135,415,cs),
(135,516,o),
(185,587,o),
(256,587,cs),
(334,587,o),
(390,513,o),
(390,408,cs),
(390,243,o),
(279,82,o),
(122,19,c),
(140,-26,l),
(338,53,o),
(478,233,o),
(478,408,cs),
(478,536,o),
(393,627,o),
(272,627,cs)
);
}
);
};
layerId = m005;
shapes = (
{
closed = 1;
nodes = (
(139,439,o),
(45,347,o),
(45,218,cs),
(45,110,o),
(125,33,o),
(239,33,cs),
(349,33,o),
(429,118,o),
(429,238,c),
(391,220,l),
(391,134,o),
(333,74,o),
(256,74,cs),
(185,74,o),
(133,137,o),
(133,227,cs),
(133,328,o),
(185,399,o),
(256,399,cs),
(333,399,o),
(391,325,o),
(391,220,cs),
(391,55,o),
(279,-106,o),
(122,-169,c),
(140,-214,l),
(337,-135,o),
(477,45,o),
(477,220,cs),
(477,348,o),
(392,439,o),
(272,439,cs)
);
}
);
width = 522;
},
{
associatedMasterId = m005;
background = {
shapes = (
{
closed = 1;
nodes = (
(182,627,o),
(88,535,o),
(88,406,cs),
(88,298,o),
(168,221,o),
(282,221,cs),
(393,221,o),
(471,306,o),
(471,426,c),
(433,408,l),
(433,322,o),
(377,262,o),
(299,262,cs),
(228,262,o),
(178,325,o),
(178,415,cs),
(178,516,o),
(228,587,o),
(299,587,cs),
(377,587,o),
(433,513,o),
(433,408,cs),
(433,243,o),
(322,82,o),
(165,19,c),
(183,-26,l),
(381,53,o),
(521,233,o),
(521,408,cs),
(521,536,o),
(436,627,o),
(315,627,cs)
);
}
);
};
layerId = "8880FCC1-7A68-4D74-A1C2-63291C007941";
name = "29. Dez. 24, 15:16";
shapes = (
{
closed = 1;
nodes = (
(384,48,o),
(523,228,o),
(523,397,cs),
(523,530,o),
(432,624,o),
(303,624,cs),
(174,624,o),
(83,530,o),
(83,397,cs),
(83,283,o),
(159,203,o),
(266,203,cs),
(397,203,o),
(489,263,o),
(489,347,c),
(441,351,l),
(441,290,o),
(385,246,o),
(305,246,cs),
(226,246,o),
(170,319,o),
(170,423,cs),
(170,517,o),
(224,584,o),
(301,584,cs),
(379,584,o),
(434,497,o),
(434,373,cs),
(434,211,o),
(326,66,o),
(173,21,c),
(187,-39,l)
);
}
);
width = 600;
}
);
unicode = 57;
},
{
glyphname = zero.tf;
lastChange = "2025-01-05 09:00:37 +0000";
layers = (
{
layerId = m005;
shapes = (
{
closed = 1;
nodes = (
(427,-11,o),
(514,121,o),
(514,308,cs),
(514,495,o),
(427,627,o),
(304,627,cs),
(181,627,o),
(94,496,o),
(94,310,cs),
(94,122,o),
(181,-11,o),
(304,-11,cs)
);
},
{
closed = 1;
nodes = (
(227,29,o),
(184,128,o),
(184,305,cs),
(184,486,o),
(227,587,o),
(304,587,cs),
(381,587,o),
(424,490,o),
(424,315,cs),
(424,131,o),
(381,29,o),
(304,29,cs)
);
}
);
width = 594;
}
);
},
{
glyphname = one.tf;
lastChange = "2025-01-05 09:00:42 +0000";
layers = (
{
background = {
shapes = (
{
closed = 0;
nodes = (
(371,553,l),
(372,635,l),
(357,641,l),
(238,600,l)
);
}
);
};
layerId = m005;
shapes = (
{
closed = 1;
nodes = (
(498,0,l),
(498,20,l),
(449,31,o),
(376,31,o),
(374,103,cs),
(370,278,o),
(370,460,o),
(376,635,c),
(361,641,l),
(164,573,l),
(172,538,l),
(337,561,l),
(296,581,l),
(300,428,o),
(302,132,o),
(299,94,cs),
(294,32,o),
(230,37,o),
(168,20,c),
(168,0,l)
);
}
);
width = 594;
}
);
},
{
glyphname = two.tf;
lastChange = "2025-01-05 09:00:45 +0000";
layers = (
{
background = {
shapes = (
{
closed = 1;
nodes = (
(496,0,l),
(521,134,l),
(498,134,l),
(490,109,o),
(466,74,o),
(450,73,cs),
(150,55,l),
(158,49,l),
(156,127,o),
(489,143,o),
(489,312,cs),
(489,386,o),
(407,439,o),
(290,439,c),
(291,399,l),
(354,399,o),
(399,363,o),
(399,311,cs),
(399,193,o),
(101,127,o),
(101,49,c),
(101,0,l)
);
},
{
closed = 1;
nodes = (
(184,439,o),
(109,379,o),
(109,295,cs),
(109,260,o),
(131,236,o),
(163,236,cs),
(191,236,o),
(210,255,o),
(210,282,cs),
(210,303,o),
(179,295,o),
(179,326,cs),
(179,369,o),
(225,399,o),
(291,399,c),
(290,439,l)
);
}
);
};
layerId = m005;
shapes = (
{
closed = 1;
nodes = (
(498,0,l),
(509,164,l),
(488,164,l),
(472,112,o),
(443,77,o),
(418,75,cs),
(160,55,l),
(168,49,l),
(166,97,o),
(491,279,o),
(491,468,cs),
(491,566,o),
(417,627,o),
(300,627,c),
(283,587,l),
(357,587,o),
(401,543,o),
(401,468,cs),
(401,280,o),
(103,97,o),
(103,49,c),
(103,0,l)
);
},
{
closed = 1;
nodes = (
(194,627,o),
(119,567,o),
(119,483,cs),
(119,448,o),
(141,424,o),
(173,424,cs),
(201,424,o),
(220,443,o),
(220,470,cs),
(220,491,o),
(189,483,o),
(189,514,cs),
(189,557,o),
(228,587,o),
(283,587,c),
(300,627,l)
);
}
);
width = 594;
}
);
},
{
glyphname = three.tf;
lastChange = "2025-01-05 09:00:48 +0000";
layers = (
{
background = {
shapes = (
{
closed = 1;
nodes = (
(414,-11,o),
(504,58,o),
(504,156,cs),
(504,250,o),
(429,316,o),
(323,316,c),
(322,311,l),
(418,311,o),
(486,382,o),
(486,482,cs),
(486,567,o),
(411,627,o),
(304,627,c),
(287,587,l),
(351,587,o),
(396,540,o),
(396,474,cs),
(396,391,o),
(328,332,o),
(233,332,c),
(233,293,l),
(339,293,o),
(414,240,o),
(414,166,cs),
(414,86,o),
(358,29,o),
(280,29,cs),
(219,29,o),
(175,59,o),
(175,102,cs),
(175,133,o),
(206,125,o),
(206,146,cs),
(206,173,o),
(187,192,o),
(159,192,cs),
(127,192,o),
(105,168,o),
(105,133,cs),
(105,49,o),
(180,-11,o),
(286,-11,cs)
);
},
{
closed = 1;
nodes = (
(198,627,o),
(123,567,o),
(123,483,cs),
(123,448,o),
(145,424,o),
(177,424,cs),
(205,424,o),
(224,443,o),
(224,470,cs),
(224,491,o),
(193,483,o),
(193,514,cs),
(193,557,o),
(226,587,o),
(287,587,c),
(304,627,l)
);
}
);
};
layerId = m005;
shapes = (
{
closed = 1;
nodes = (
(418,-11,o),
(508,58,o),
(508,156,cs),
(508,250,o),
(433,316,o),
(327,316,c),
(326,311,l),
(422,311,o),
(490,382,o),
(490,482,cs),
(490,567,o),
(415,627,o),
(308,627,c),
(291,587,l),
(355,587,o),
(400,540,o),
(400,474,cs),
(400,391,o),
(332,332,o),
(237,332,c),
(237,293,l),
(343,293,o),
(418,240,o),
(418,166,cs),
(418,86,o),
(362,29,o),
(284,29,cs),
(223,29,o),
(179,59,o),
(179,102,cs),
(179,133,o),
(210,125,o),
(210,146,cs),
(210,173,o),
(191,192,o),
(163,192,cs),
(131,192,o),
(109,168,o),
(109,133,cs),
(109,49,o),
(184,-11,o),
(290,-11,cs)
);
},
{
closed = 1;
nodes = (
(202,627,o),
(127,567,o),
(127,483,cs),
(127,448,o),
(149,424,o),
(181,424,cs),
(209,424,o),
(228,443,o),
(228,470,cs),
(228,491,o),
(197,483,o),
(197,514,cs),
(197,557,o),
(230,587,o),
(291,587,c),
(308,627,l)
);
}
);
width = 594;
}
);
},
{
glyphname = four.tf;
lastChange = "2025-01-05 09:00:51 +0000";
layers = (
{
background = {
shapes = (
{
closed = 1;
nodes = (
(478,0,l),
(478,24,l),
(432,32,o),
(401,46,o),
(401,73,cs),
(401,631,l),
(304,606,l),
(37,176,l),
(527,171,l),
(503,244,l),
(93,244,l),
(104,215,l),
(341,589,l),
(334,591,l),
(328,428,o),
(328,104,o),
(326,82,cs),
(322,30,o),
(270,33,o),
(238,25,c),
(238,0,l)
);
},
{
closed = 1;
nodes = (
(527,171,l),
(543,289,l),
(527,289,l),
(525,274,o),
(510,244,o),
(503,244,c)
);
}
);
};
layerId = m005;
shapes = (
{
closed = 1;
nodes = (
(410,0,l),
(410,631,l),
(313,606,l),
(46,171,l),
(523,171,l),
(523,231,l),
(102,231,l),
(113,215,l),
(350,589,l),
(338,591,l),
(332,428,o),
(332,22,o),
(330,0,c)
);
}
);
width = 594;
}
);
},
{
glyphname = five.tf;
lastChange = "2025-01-05 09:00:54 +0000";
layers = (
{
background = {
shapes = (
{
closed = 1;
nodes = (
(417,-11,o),
(512,83,o),
(512,216,cs),
(512,320,o),
(434,394,o),
(324,394,cs),
(252,394,o),
(195,360,o),
(174,321,c),
(185,321,l),
(210,572,l),
(193,553,l),
(459,544,l),
(475,662,l),
(459,662,l),
(455,636,o),
(445,617,o),
(435,617,c),
(169,616,l),
(137,288,l),
(191,290,l),
(207,323,o),
(249,353,o),
(304,353,cs),
(373,353,o),
(422,288,o),
(422,197,cs),
(422,99,o),
(370,29,o),
(296,29,c),
(283,-11,l)
);
},
{
closed = 1;
nodes = (
(296,29,l),
(235,29,o),
(192,59,o),
(192,102,cs),
(192,133,o),
(223,125,o),
(223,146,cs),
(223,173,o),
(204,192,o),
(176,192,cs),
(144,192,o),
(122,168,o),
(122,133,cs),
(122,49,o),
(189,-11,o),
(283,-11,c)
);
}
);
};
layerId = m005;
shapes = (
{
closed = 1;
nodes = (
(421,-11,o),
(516,83,o),
(516,216,cs),
(516,320,o),
(438,394,o),
(328,394,cs),
(256,394,o),
(199,360,o),
(178,321,c),
(189,321,l),
(214,572,l),
(197,553,l),
(463,544,l),
(487,678,l),
(471,678,l),
(467,652,o),
(449,617,o),
(439,617,c),
(173,616,l),
(141,288,l),
(195,290,l),
(211,323,o),
(253,353,o),
(308,353,cs),
(377,353,o),
(426,288,o),
(426,197,cs),
(426,99,o),
(374,29,o),
(300,29,c),
(287,-11,l)
);
},
{
closed = 1;
nodes = (
(300,29,l),
(239,29,o),
(196,59,o),
(196,102,cs),
(196,133,o),
(227,125,o),
(227,146,cs),
(227,173,o),
(208,192,o),
(180,192,cs),
(148,192,o),
(126,168,o),
(126,133,cs),
(126,49,o),
(193,-11,o),
(287,-11,c)
);
},
{
closed = 1;
nodes = (
(463,544,l),
(488,678,l),
(465,678,l),
(457,652,o),
(432,618,o),
(417,617,c)
);
}
);
width = 594;
}
);
},
{
glyphname = six.tf;
lastChange = "2025-01-05 09:00:57 +0000";
layers = (
{
background = {
shapes = (
{
closed = 1;
nodes = (
(419,-11,o),
(513,81,o),
(513,210,cs),
(513,318,o),
(433,395,o),
(319,395,cs),
(208,395,o),
(130,310,o),
(130,190,c),
(168,208,l),
(168,294,o),
(224,354,o),
(302,354,cs),
(373,354,o),
(423,291,o),
(423,201,cs),
(423,100,o),
(373,29,o),
(302,29,cs),
(224,29,o),
(168,103,o),
(168,208,cs),
(168,373,o),
(279,534,o),
(436,597,c),
(418,642,l),
(220,563,o),
(80,383,o),
(80,208,cs),
(80,80,o),
(165,-11,o),
(286,-11,cs)
);
}
);
};
layerId = m005;
shapes = (
{
closed = 1;
nodes = (
(423,-11,o),
(517,81,o),
(517,210,cs),
(517,318,o),
(437,395,o),
(323,395,cs),
(212,395,o),
(134,310,o),
(134,190,c),
(172,208,l),
(172,294,o),
(228,354,o),
(306,354,cs),
(377,354,o),
(427,291,o),
(427,201,cs),
(427,100,o),
(377,29,o),
(306,29,cs),
(228,29,o),
(172,103,o),
(172,208,cs),
(172,373,o),
(283,534,o),
(440,597,c),
(422,642,l),
(224,563,o),
(84,383,o),
(84,208,cs),
(84,80,o),
(169,-11,o),
(290,-11,cs)
);
}
);
width = 594;
}
);
},
{
glyphname = seven.tf;
lastChange = "2025-01-05 09:00:59 +0000";
layers = (
{
background = {
shapes = (
{
closed = 1;
nodes = (
(293,0,l),
(337,252,o),
(420,495,o),
(542,588,c),
(526,616,l),
(91,616,l),
(121,452,l),
(158,462,l),
(149,511,o),
(157,546,o),
(190,546,cs),
(457,546,l),
(459,569,l),
(315,391,o),
(229,155,o),
(204,0,c)
);
}
);
};
layerId = m005;
shapes = (
{
closed = 1;
nodes = (
(297,-1,l),
(341,251,o),
(424,494,o),
(546,587,c),
(530,615,l),
(95,615,l),
(114,449,l),
(141,453,l),
(130,510,o),
(149,545,o),
(181,545,cs),
(461,545,l),
(463,568,l),
(319,390,o),
(233,154,o),
(208,-1,c)
);
}
);
width = 594;
}
);
},
{
glyphname = eight.tf;
lastChange = "2025-01-05 09:01:02 +0000";
layers = (
{
background = {
shapes = (
{
closed = 1;
nodes = (
(424,-11,o),
(515,66,o),
(515,176,cs),
(515,270,o),
(426,337,o),
(300,337,cs),
(177,337,o),
(90,268,o),
(90,171,cs),
(90,64,o),
(175,-11,o),
(295,-11,cs)
);
},
{
closed = 1;
nodes = (
(233,29,o),
(180,89,o),
(180,174,cs),
(180,247,o),
(230,299,o),
(300,299,cs),
(373,299,o),
(425,246,o),
(425,170,cs),
(425,87,o),
(376,29,o),
(307,29,cs)
);
},
{
closed = 1;
nodes = (
(411,303,o),
(487,375,o),
(487,476,cs),
(487,564,o),
(410,626,o),
(301,626,cs),
(190,626,o),
(112,560,o),
(112,466,cs),
(112,371,o),
(192,303,o),
(304,303,cs)
);
},
{
closed = 1;
nodes = (
(235,340,o),
(192,394,o),
(192,470,cs),
(192,538,o),
(233,586,o),
(291,586,cs),
(359,586,o),
(407,538,o),
(407,470,cs),
(407,394,o),
(361,340,o),
(296,340,cs)
);
}
);
};
layerId = m005;
shapes = (
{
closed = 1;
nodes = (
(428,-11,o),
(519,66,o),
(519,176,cs),
(519,270,o),
(430,337,o),
(304,337,cs),
(181,337,o),
(94,268,o),
(94,171,cs),
(94,64,o),
(179,-11,o),
(299,-11,cs)
);
},
{
closed = 1;
nodes = (
(237,29,o),
(184,89,o),
(184,174,cs),
(184,247,o),
(234,299,o),
(304,299,cs),
(377,299,o),
(429,246,o),
(429,170,cs),
(429,87,o),
(380,29,o),
(311,29,cs)
);
},
{
closed = 1;
nodes = (
(415,303,o),
(491,375,o),
(491,476,cs),
(491,564,o),
(414,626,o),
(305,626,cs),
(194,626,o),
(116,560,o),
(116,466,cs),
(116,371,o),
(196,303,o),
(308,303,cs)
);
},
{
closed = 1;
nodes = (
(239,340,o),
(196,394,o),
(196,470,cs),
(196,538,o),
(237,586,o),
(295,586,cs),
(363,586,o),
(411,538,o),
(411,470,cs),
(411,394,o),
(365,340,o),
(300,340,cs)
);
}
);
width = 594;
}
);
},
{
glyphname = nine.tf;
lastChange = "2025-01-05 09:01:04 +0000";
layers = (
{
background = {
shapes = (
{
closed = 1;
nodes = (
(182,627,o),
(88,535,o),
(88,406,cs),
(88,298,o),
(168,221,o),
(282,221,cs),
(393,221,o),
(471,306,o),
(471,426,c),
(433,408,l),
(433,322,o),
(377,262,o),
(299,262,cs),
(228,262,o),
(178,325,o),
(178,415,cs),
(178,516,o),
(228,587,o),
(299,587,cs),
(377,587,o),
(433,513,o),
(433,408,cs),
(433,243,o),
(322,82,o),
(165,19,c),
(183,-26,l),
(381,53,o),
(521,233,o),
(521,408,cs),
(521,536,o),
(436,627,o),
(315,627,cs)
);
},
{
closed = 1;
nodes = (
(182,627,o),
(88,535,o),
(88,406,cs),
(88,298,o),
(168,221,o),
(282,221,cs),
(393,221,o),
(471,306,o),
(471,426,c),
(433,408,l),
(433,322,o),
(377,262,o),
(299,262,cs),
(228,262,o),
(178,325,o),
(178,415,cs),
(178,516,o),
(228,587,o),
(299,587,cs),
(377,587,o),
(433,513,o),
(433,408,cs),
(433,243,o),
(322,82,o),
(165,19,c),
(183,-26,l),
(381,53,o),
(521,233,o),
(521,408,cs),
(521,536,o),
(436,627,o),
(315,627,cs)
);
}
);
};
layerId = m005;
shapes = (
{
closed = 1;
nodes = (
(186,627,o),
(92,535,o),
(92,406,cs),
(92,298,o),
(172,221,o),
(286,221,cs),
(397,221,o),
(475,306,o),
(475,426,c),
(437,408,l),
(437,322,o),
(381,262,o),
(303,262,cs),
(232,262,o),
(182,325,o),
(182,415,cs),
(182,516,o),
(232,587,o),
(303,587,cs),
(381,587,o),
(437,513,o),
(437,408,cs),
(437,243,o),
(326,82,o),
(169,19,c),
(187,-26,l),
(385,53,o),
(525,233,o),
(525,408,cs),
(525,536,o),
(440,627,o),
(319,627,cs)
);
}
);
width = 594;
},
{
associatedMasterId = m005;
background = {
shapes = (
{
closed = 1;
nodes = (
(182,627,o),
(88,535,o),
(88,406,cs),
(88,298,o),
(168,221,o),
(282,221,cs),
(393,221,o),
(471,306,o),
(471,426,c),
(433,408,l),
(433,322,o),
(377,262,o),
(299,262,cs),
(228,262,o),
(178,325,o),
(178,415,cs),
(178,516,o),
(228,587,o),
(299,587,cs),
(377,587,o),
(433,513,o),
(433,408,cs),
(433,243,o),
(322,82,o),
(165,19,c),
(183,-26,l),
(381,53,o),
(521,233,o),
(521,408,cs),
(521,536,o),
(436,627,o),
(315,627,cs)
);
}
);
};
layerId = "8880FCC1-7A68-4D74-A1C2-63291C007941";
name = "29. Dez. 24, 15:16";
shapes = (
{
closed = 1;
nodes = (
(384,48,o),
(523,228,o),
(523,397,cs),
(523,530,o),
(432,624,o),
(303,624,cs),
(174,624,o),
(83,530,o),
(83,397,cs),
(83,283,o),
(159,203,o),
(266,203,cs),
(397,203,o),
(489,263,o),
(489,347,c),
(441,351,l),
(441,290,o),
(385,246,o),
(305,246,cs),
(226,246,o),
(170,319,o),
(170,423,cs),
(170,517,o),
(224,584,o),
(301,584,cs),
(379,584,o),
(434,497,o),
(434,373,cs),
(434,211,o),
(326,66,o),
(173,21,c),
(187,-39,l)
);
}
);
width = 600;
}
);
},
{
glyphname = period;
lastChange = "2025-01-05 22:22:31 +0000";
layers = (
{
layerId = m005;
shapes = (
{
closed = 1;
nodes = (
(146,-6,o),
(171,18,o),
(171,51,cs),
(171,84,o),
(147,108,o),
(114,108,cs),
(79,108,o),
(54,84,o),
(54,51,cs),
(54,18,o),
(78,-6,o),
(111,-6,cs)
);
}
);
width = 225;
}
);
unicode = 46;
},
{
glyphname = comma;
lastChange = "2025-01-05 22:22:54 +0000";
layers = (
{
layerId = m005;
shapes = (
{
closed = 1;
nodes = (
(64,-165,l),
(137,-135,o),
(189,-63,o),
(189,8,cs),
(189,54,o),
(155,91,o),
(107,91,cs),
(71,91,o),
(45,67,o),
(45,38,cs),
(45,16,o),
(59,-5,o),
(79,-5,cs),
(97,-5,o),
(100,2,o),
(115,2,cs),
(127,2,o),
(135,-14,o),
(135,-37,cs),
(135,-86,o),
(102,-125,o),
(54,-138,c)
);
}
);
width = 243;
}
);
unicode = 44;
},
{
glyphname = colon;
lastChange = "2025-01-05 22:23:29 +0000";
layers = (
{
layerId = m005;
shapes = (
{
closed = 1;
nodes = (
(163,213,o),
(189,234,o),
(189,259,cs),
(189,284,o),
(163,305,o),
(132,305,cs),
(101,305,o),
(73,284,o),
(73,259,cs),
(73,234,o),
(101,213,o),
(132,213,cs)
);
},
{
closed = 1;
nodes = (
(147,-5,o),
(170,16,o),
(170,41,cs),
(170,66,o),
(147,87,o),
(115,87,cs),
(84,87,o),
(54,66,o),
(54,41,cs),
(54,16,o),
(84,-5,o),
(115,-5,cs)
);
}
);
width = 243;
}
);
unicode = 58;
},
{
glyphname = semicolon;
lastChange = "2025-01-05 22:23:41 +0000";
layers = (
{
layerId = m005;
shapes = (
{
closed = 1;
nodes = (
(72,-176,l),
(136,-146,o),
(183,-68,o),
(183,12,cs),
(183,59,o),
(153,92,o),
(113,92,cs),
(79,92,o),
(54,73,o),
(54,44,cs),
(54,17,o),
(67,-3,o),
(86,-3,cs),
(103,-3,o),
(106,5,o),
(121,5,cs),
(132,5,o),
(140,-12,o),
(140,-37,cs),
(140,-88,o),
(109,-134,o),
(63,-147,c)
);
},
{
closed = 1;
nodes = (
(167,213,o),
(189,233,o),
(189,258,cs),
(189,281,o),
(167,300,o),
(136,300,cs),
(107,300,o),
(84,281,o),
(84,258,cs),
(84,233,o),
(107,213,o),
(136,213,cs)
);
}
);
width = 243;
}
);
unicode = 59;
},
{
glyphname = exclam;
lastChange = "2025-01-05 22:24:15 +0000";
layers = (
{
layerId = m005;
shapes = (
{
closed = 1;
nodes = (
(135,-6,o),
(149,12,o),
(153,34,cs),
(157,56,o),
(139,74,o),
(109,74,cs),
(87,74,o),
(69,56,o),
(69,34,cs),
(69,12,o),
(87,-6,o),
(109,-6,cs)
);
},
{
closed = 1;
nodes = (
(139,190,l),
(133,325,o),
(136,501,o),
(162,636,c),
(54,618,l),
(86,487,o),
(79,307,o),
(79,176,c)
);
}
);
width = 216;
}
);
unicode = 33;
},
{
glyphname = exclamdown;
lastChange = "2025-01-05 22:24:26 +0000";
layers = (
{
layerId = m005;
shapes = (
{
closed = 1;
nodes = (
(81,459,o),
(67,441,o),
(63,419,cs),
(59,397,o),
(77,379,o),
(103,379,cs),
(129,379,o),
(147,397,o),
(147,419,cs),
(147,441,o),
(129,459,o),
(103,459,cs)
);
},
{
closed = 1;
nodes = (
(77,263,l),
(83,128,o),
(80,-48,o),
(54,-183,c),
(162,-165,l),
(130,-34,o),
(137,146,o),
(137,277,c)
);
}
);
width = 216;
}
);
unicode = 161;
},
{
glyphname = question;
lastChange = "2025-01-05 22:24:35 +0000";
layers = (
{
layerId = m005;
shapes = (
{
closed = 1;
nodes = (
(194,170,o),
(231,184,o),
(270,203,c),
(268,216,l),
(236,217,ls),
(211,218,o),
(189,236,o),
(189,260,cs),
(189,347,o),
(331,346,o),
(333,466,c),
(333,527,o),
(290,571,o),
(229,571,cs),
(200,571,o),
(156,554,o),
(117,530,cs),
(85,508,o),
(63,471,o),
(63,440,cs),
(63,409,o),
(135,423,o),
(135,454,cs),
(135,470,o),
(128,466,o),
(128,481,cs),
(128,508,o),
(151,527,o),
(179,527,cs),
(233,527,o),
(262,500,o),
(261,460,cs),
(256,317,o),
(117,317,o),
(117,233,cs),
(117,196,o),
(149,170,o),
(185,170,cs)
);
},
{
closed = 1;
nodes = (
(220,-6,o),
(238,12,o),
(238,34,cs),
(238,56,o),
(220,74,o),
(194,74,cs),
(172,74,o),
(154,56,o),
(154,34,cs),
(154,12,o),
(172,-6,o),
(194,-6,cs)
);
}
);
width = 378;
}
);
unicode = 63;
},
{
glyphname = questiondown;
lastChange = "2025-01-05 22:24:45 +0000";
layers = (
{
layerId = m005;
shapes = (
{
closed = 1;
nodes = (
(184,284,o),
(147,270,o),
(108,251,c),
(110,238,l),
(142,237,ls),
(167,236,o),
(189,218,o),
(189,194,cs),
(189,107,o),
(47,108,o),
(45,-12,c),
(45,-73,o),
(88,-117,o),
(149,-117,cs),
(178,-117,o),
(222,-100,o),
(261,-76,cs),
(293,-54,o),
(315,-17,o),
(315,14,cs),
(315,45,o),
(243,31,o),
(243,0,cs),
(243,-16,o),
(250,-12,o),
(250,-27,cs),
(250,-54,o),
(227,-73,o),
(199,-73,cs),
(149,-73,o),
(116,-46,o),
(117,-6,cs),
(122,137,o),
(261,137,o),
(261,221,cs),
(261,258,o),
(229,284,o),
(193,284,cs)
);
},
{
closed = 1;
nodes = (
(158,460,o),
(140,442,o),
(140,420,cs),
(140,398,o),
(158,380,o),
(180,380,cs),
(206,380,o),
(224,398,o),
(224,420,cs),
(224,442,o),
(206,460,o),
(180,460,cs)
);
}
);
width = 378;
}
);
unicode = 191;
},
{
color = 3;
glyphname = periodcentered;
lastChange = "2025-01-05 22:24:57 +0000";
layers = (
{
layerId = m005;
shapes = (
{
closed = 1;
nodes = (
(142,202,o),
(171,228,o),
(171,259,cs),
(171,290,o),
(145,316,o),
(114,316,cs),
(83,316,o),
(54,290,o),
(54,259,cs),
(54,228,o),
(80,202,o),
(111,202,cs)
);
}
);
width = 225;
}
);
unicode = 183;
},
{
color = 3;
glyphname = bullet;
lastChange = "2025-01-05 22:25:06 +0000";
layers = (
{
layerId = m005;
shapes = (
{
closed = 1;
nodes = (
(274,117,o),
(342,182,o),
(342,259,cs),
(342,337,o),
(277,402,o),
(199,402,cs),
(122,402,o),
(54,337,o),
(54,259,cs),
(54,182,o),
(119,117,o),
(196,117,cs)
);
}
);
width = 396;
}
);
unicode = 8226;
},
{
glyphname = asterisk;
lastChange = "2025-01-04 18:35:07 +0000";
layers = (
{
layerId = m005;
shapes = (
{
closed = 1;
nodes = (
(161,533,l),
(161,540,o),
(181,582,o),
(181,597,cs),
(181,613,o),
(171,624,o),
(156,624,cs),
(141,624,o),
(130,614,o),
(130,598,cs),
(130,586,o),
(155,541,o),
(155,533,cs)
);
},
{
closed = 1;
nodes = (
(183,522,l),
(188,527,o),
(231,542,o),
(242,554,c),
(253,565,o),
(254,580,o),
(243,591,cs),
(233,601,o),
(217,601,o),
(207,590,cs),
(198,582,o),
(183,532,o),
(178,527,cs)
);
},
{
closed = 1;
nodes = (
(189,498,l),
(196,498,o),
(237,478,o),
(253,478,cs),
(269,478,o),
(280,489,o),
(280,504,cs),
(280,518,o),
(269,529,o),
(254,529,cs),
(241,529,o),
(197,505,o),
(189,505,cs)
);
},
{
closed = 1;
nodes = (
(178,478,l),
(183,473,o),
(198,430,o),
(209,418,cs),
(221,407,o),
(236,406,o),
(247,417,cs),
(257,428,o),
(257,443,o),
(246,454,cs),
(237,463,o),
(188,477,o),
(183,483,cs)
);
},
{
closed = 1;
nodes = (
(155,472,l),
(155,464,o),
(135,423,o),
(135,407,cs),
(135,391,o),
(146,380,o),
(161,380,cs),
(176,380,o),
(186,390,o),
(186,406,cs),
(186,418,o),
(162,463,o),
(162,472,cs)
);
},
{
closed = 1;
nodes = (
(134,482,l),
(129,477,o),
(86,462,o),
(75,451,c),
(63,439,o),
(63,424,o),
(73,413,cs),
(84,403,o),
(99,403,o),
(110,414,cs),
(119,423,o),
(133,472,o),
(139,477,cs)
);
},
{
closed = 1;
nodes = (
(128,506,l),
(121,506,o),
(79,526,o),
(64,526,cs),
(47,526,o),
(36,515,o),
(36,500,cs),
(36,486,o),
(47,475,o),
(63,475,cs),
(75,475,o),
(120,500,o),
(128,500,cs)
);
},
{
closed = 1;
nodes = (
(139,526,l),
(133,532,o),
(119,574,o),
(107,586,cs),
(96,597,o),
(80,598,o),
(70,587,cs),
(59,577,o),
(59,561,o),
(71,550,cs),
(79,542,o),
(128,527,o),
(134,522,cs)
);
}
);
width = 316;
}
);
unicode = 42;
},
{
color = 4;
glyphname = numbersign;
lastChange = "2025-01-05 22:25:23 +0000";
layers = (
{
associatedMasterId = m005;
background = {
shapes = (
{
closed = 1;
nodes = (
(367,5,l),
(417,218,l),
(395,200,l),
(520,200,l),
(553,260,l),
(410,260,l),
(424,242,l),
(474,458,l),
(452,440,l),
(560,440,l),
(593,500,l),
(466,500,l),
(480,482,l),
(540,734,l),
(470,700,l),
(418,482,l),
(440,500,l),
(222,500,l),
(236,482,l),
(296,734,l),
(226,700,l),
(174,482,l),
(196,500,l),
(78,500,l),
(51,440,l),
(182,440,l),
(168,458,l),
(117,242,l),
(139,260,l),
(38,260,l),
(11,200,l),
(125,200,l),
(111,218,l),
(59,-2,l),
(123,5,l),
(173,218,l),
(151,200,l),
(369,200,l),
(355,218,l),
(303,-2,l)
);
},
{
closed = 1;
nodes = (
(230,458,l),
(208,440,l),
(426,440,l),
(412,458,l),
(361,242,l),
(383,260,l),
(166,260,l),
(180,242,l)
);
}
);
};
layerId = m01;
name = Regular;
shapes = (
{
closed = 1;
nodes = (
(149,5,l),
(197,200,l),
(366,200,l),
(318,-2,l),
(389,5,l),
(433,200,l),
(537,200,l),
(566,267,l),
(449,267,l),
(489,442,l),
(583,442,l),
(610,512,l),
(502,512,l),
(552,726,l),
(472,701,l),
(433,512,l),
(270,512,l),
(322,726,l),
(243,701,l),
(199,512,l),
(85,512,l),
(62,442,l),
(184,442,l),
(140,267,l),
(51,267,l),
(28,200,l),
(126,200,l),
(76,-2,l)
);
},
{
closed = 1;
nodes = (
(253,438,l),
(420,438,l),
(380,269,l),
(211,269,l)
);
}
);
width = 600;
},
{
associatedMasterId = m005;
hints = (
{
horizontal = 1;
place = (-2,21);
target = up;
type = BottomGhost;
},
{
horizontal = 1;
place = (200,69);
type = Stem;
},
{
horizontal = 1;
place = (438,74);
type = Stem;
},
{
place = (11,589);
type = Stem;
},
{
horizontal = 1;
place = (200,67);
type = Stem;
},
{
horizontal = 1;
place = (442,70);
type = Stem;
}
);
layerId = "E0989092-07D5-4BE4-A82B-4E03160A36DB";
name = Black;
shapes = (
{
closed = 1;
nodes = (
(142,5,l),
(187,180,l),
(356,180,l),
(311,-2,l),
(382,5,l),
(423,180,l),
(530,180,l),
(563,292,l),
(447,292,l),
(477,417,l),
(571,417,l),
(610,532,l),
(500,532,l),
(545,734,l),
(465,701,l),
(424,532,l),
(261,532,l),
(315,734,l),
(236,701,l),
(197,532,l),
(85,532,l),
(50,417,l),
(172,417,l),
(138,292,l),
(48,292,l),
(21,180,l),
(116,180,l),
(69,-2,l)
);
},
{
closed = 1;
nodes = (
(241,413,l),
(408,413,l),
(378,294,l),
(209,294,l)
);
}
);
width = 610;
},
{
associatedMasterId = m005;
hints = (
{
horizontal = 1;
place = (90,21);
target = up;
type = BottomGhost;
},
{
horizontal = 1;
place = (233,140);
type = Stem;
},
{
horizontal = 1;
place = (402,144);
type = Stem;
},
{
place = (99,510);
type = Stem;
},
{
horizontal = 1;
place = (233,139);
type = Stem;
},
{
horizontal = 1;
place = (405,141);
type = Stem;
}
);
layerId = m003;
name = BlackCondensed;
shapes = (
{
closed = 1;
nodes = (
(192,5,l),
(224,180,l),
(344,180,l),
(312,-2,l),
(363,5,l),
(392,180,l),
(468,180,l),
(491,292,l),
(409,292,l),
(430,417,l),
(497,417,l),
(525,532,l),
(446,532,l),
(478,734,l),
(422,701,l),
(393,532,l),
(277,532,l),
(315,734,l),
(259,701,l),
(231,532,l),
(152,532,l),
(127,417,l),
(214,417,l),
(189,292,l),
(126,292,l),
(106,180,l),
(174,180,l),
(140,-2,l)
);
},
{
closed = 1;
nodes = (
(263,413,l),
(381,413,l),
(360,294,l),
(240,294,l)
);
}
);
width = 610;
},
{
background = {
shapes = (
{
closed = 1;
nodes = (
(326,5,l),
(376,218,l),
(354,200,l),
(479,200,l),
(512,260,l),
(369,260,l),
(383,242,l),
(433,458,l),
(411,440,l),
(519,440,l),
(552,500,l),
(425,500,l),
(439,482,l),
(499,734,l),
(429,700,l),
(377,482,l),
(399,500,l),
(181,500,l),
(195,482,l),
(255,734,l),
(185,700,l),
(133,482,l),
(155,500,l),
(37,500,l),
(10,440,l),
(141,440,l),
(127,458,l),
(76,242,l),
(98,260,l),
(-3,260,l),
(-30,200,l),
(84,200,l),
(70,218,l),
(18,-2,l),
(82,5,l),
(132,218,l),
(110,200,l),
(328,200,l),
(314,218,l),
(262,-2,l)
);
},
{
closed = 1;
nodes = (
(189,458,l),
(167,440,l),
(385,440,l),
(371,458,l),
(320,242,l),
(342,260,l),
(125,260,l),
(139,242,l)
);
}
);
};
layerId = m005;
shapes = (
{
closed = 1;
nodes = (
(122,8,l),
(157,158,l),
(324,158,l),
(280,-28,l),
(347,8,l),
(379,158,l),
(482,158,l),
(508,220,l),
(393,220,l),
(430,381,l),
(524,381,l),
(549,445,l),
(442,445,l),
(488,642,l),
(422,619,l),
(386,445,l),
(232,445,l),
(280,642,l),
(207,619,l),
(167,445,l),
(62,445,l),
(41,381,l),
(153,381,l),
(112,220,l),
(30,220,l),
(9,158,l),
(99,158,l),
(53,-28,l)
);
},
{
closed = 1;
nodes = (
(209,377,l),
(374,377,l),
(337,221,l),
(170,221,l)
);
}
);
width = 558;
}
);
unicode = 35;
},
{
glyphname = slash;
lastChange = "2025-01-05 22:25:33 +0000";
layers = (
{
layerId = m005;
shapes = (
{
closed = 1;
nodes = (
(89,-162,l),
(378,694,l),
(325,694,l),
(36,-162,l)
);
}
);
width = 414;
}
);
unicode = 47;
},
{
color = 4;
glyphname = backslash;
lastChange = "2025-01-05 22:25:43 +0000";
layers = (
{
associatedMasterId = m005;
layerId = m01;
name = Regular;
shapes = (
{
closed = 1;
nodes = (
(356,-85,l),
(77,888,l),
(31,872,l),
(298,-102,l)
);
}
);
width = 400;
},
{
associatedMasterId = m005;
hints = (
{
horizontal = 1;
place = (-163,901);
type = Stem;
},
{
place = (144,322);
type = Stem;
}
);
layerId = "E0989092-07D5-4BE4-A82B-4E03160A36DB";
name = Black;
shapes = (
{
closed = 1;
nodes = (
(378,-85,l),
(104,893,l),
(-12,861,l),
(266,-113,l)
);
}
);
width = 400;
},
{
associatedMasterId = m005;
hints = (
{
horizontal = 1;
place = (-63,693);
type = Stem;
},
{
place = (155,282);
type = Stem;
}
);
layerId = m003;
name = BlackCondensed;
shapes = (
{
closed = 1;
nodes = (
(321,-85,l),
(127,893,l),
(45,861,l),
(242,-113,l)
);
}
);
width = 400;
},
{
layerId = m005;
shapes = (
{
closed = 1;
nodes = (
(351,-85,l),
(84,887,l),
(36,872,l),
(304,-102,l)
);
}
);
width = 387;
}
);
unicode = 92;
},
{
glyphname = hyphen;
lastChange = "2025-01-05 22:26:00 +0000";
layers = (
{
layerId = m005;
shapes = (
{
closed = 1;
nodes = (
(285,190,l),
(288,253,l),
(239,253,l),
(77,239,l),
(36,231,l),
(39,186,l)
);
}
);
width = 324;
}
);
unicode = 45;
},
{
glyphname = endash;
lastChange = "2025-01-04 18:35:07 +0000";
layers = (
{
layerId = m005;
shapes = (
{
closed = 1;
nodes = (
(480,190,l),
(486,253,l),
(404,253,l),
(80,239,l),
(0,231,l),
(6,186,l)
);
}
);
width = 486;
}
);
unicode = 8211;
},
{
glyphname = emdash;
lastChange = "2025-01-04 18:35:07 +0000";
layers = (
{
layerId = m005;
shapes = (
{
closed = 1;
nodes = (
(686,190,l),
(693,253,l),
(611,253,l),
(83,239,l),
(0,231,l),
(6,186,l)
);
}
);
width = 693;
}
);
unicode = 8212;
},
{
glyphname = underscore;
lastChange = "2025-01-05 22:26:16 +0000";
layers = (
{
layerId = m005;
shapes = (
{
closed = 1;
nodes = (
(0,-90,l),
(594,-90,l),
(594,-50,l),
(0,-50,l)
);
}
);
width = 594;
}
);
unicode = 95;
},
{
glyphname = parenleft;
lastChange = "2025-01-05 22:26:32 +0000";
layers = (
{
layerId = m005;
shapes = (
{
closed = 1;
nodes = (
(152,437,o),
(206,607,o),
(270,692,c),
(245,720,l),
(152,634,o),
(81,452,o),
(81,281,cs),
(81,110,o),
(152,-72,o),
(245,-158,c),
(270,-130,l),
(206,-45,o),
(152,125,o),
(152,281,cs)
);
}
);
width = 297;
}
);
unicode = 40;
},
{
glyphname = parenright;
lastChange = "2025-01-05 22:26:51 +0000";
layers = (
{
layerId = m005;
shapes = (
{
closed = 1;
nodes = (
(145,125,o),
(91,-45,o),
(27,-130,c),
(52,-158,l),
(145,-72,o),
(216,110,o),
(216,281,cs),
(216,452,o),
(145,634,o),
(52,720,c),
(27,692,l),
(91,607,o),
(145,437,o),
(145,281,cs)
);
}
);
width = 297;
}
);
unicode = 41;
},
{
color = 4;
glyphname = braceleft;
lastChange = "2025-01-05 22:27:02 +0000";
layers = (
{
associatedMasterId = m005;
layerId = m01;
name = Regular;
shapes = (
{
closed = 1;
nodes = (
(304,-92,l),
(248,-92,o),
(208,-61,o),
(208,-16,cs),
(208,173,ls),
(208,212,o),
(185,256,o),
(152,279,c),
(185,302,o),
(208,346,o),
(208,385,cs),
(208,574,ls),
(208,619,o),
(248,650,o),
(304,650,c),
(304,702,l),
(211,702,o),
(145,649,o),
(145,574,cs),
(145,385,ls),
(145,333,o),
(101,297,o),
(39,297,c),
(39,261,l),
(101,261,o),
(145,225,o),
(145,173,cs),
(145,-16,ls),
(145,-91,o),
(211,-144,o),
(304,-144,c)
);
}
);
width = 343;
},
{
associatedMasterId = m005;
hints = (
{
horizontal = 1;
place = (-146,61);
type = Stem;
},
{
horizontal = 1;
place = (249,60);
type = Stem;
},
{
horizontal = 1;
place = (643,61);
type = Stem;
},
{
place = (250,150);
type = Stem;
}
);
layerId = "E0989092-07D5-4BE4-A82B-4E03160A36DB";
name = Black;
shapes = (
{
closed = 1;
nodes = (
(426,-95,l),
(340,-95,o),
(280,-56,o),
(280,-16,cs),
(280,173,ls),
(280,207,o),
(250,251,o),
(209,279,c),
(250,307,o),
(280,351,o),
(280,385,cs),
(280,574,ls),
(280,614,o),
(340,653,o),
(426,653,c),
(426,704,l),
(253,704,o),
(130,681,o),
(130,604,cs),
(130,385,ls),
(130,341,o),
(86,309,o),
(24,309,c),
(24,249,l),
(86,249,o),
(130,217,o),
(130,173,cs),
(130,-46,ls),
(130,-123,o),
(253,-146,o),
(426,-146,c)
);
}
);
width = 380;
},
{
associatedMasterId = m005;
hints = (
{
horizontal = 1;
place = (-38,109);
type = Stem;
},
{
horizontal = 1;
place = (242,108);
type = Stem;
},
{
horizontal = 1;
place = (522,109);
type = Stem;
},
{
place = (243,172);
type = Stem;
}
);
layerId = m003;
name = BlackCondensed;
shapes = (
{
closed = 1;
nodes = (
(368,-95,l),
(307,-95,o),
(264,-56,o),
(264,-16,cs),
(264,173,ls),
(264,207,o),
(243,251,o),
(214,279,c),
(243,307,o),
(264,351,o),
(264,385,cs),
(264,574,ls),
(264,614,o),
(307,653,o),
(368,653,c),
(368,704,l),
(245,704,o),
(168,681,o),
(168,604,cs),
(168,385,ls),
(168,341,o),
(126,309,o),
(82,309,c),
(82,249,l),
(126,249,o),
(168,217,o),
(168,173,cs),
(168,-46,ls),
(168,-123,o),
(245,-146,o),
(368,-146,c)
);
}
);
width = 380;
},
{
layerId = m005;
shapes = (
{
closed = 1;
nodes = (
(333,-108,l),
(277,-108,o),
(237,-70,o),
(237,-16,cs),
(237,157,ls),
(237,201,o),
(202,252,o),
(153,279,c),
(202,306,o),
(237,357,o),
(237,401,cs),
(237,574,ls),
(237,628,o),
(277,666,o),
(333,666,c),
(333,702,l),
(242,702,o),
(178,649,o),
(178,574,cs),
(178,385,ls),
(178,329,o),
(128,289,o),
(54,289,c),
(54,269,l),
(128,269,o),
(178,229,o),
(178,173,cs),
(178,-16,ls),
(178,-91,o),
(242,-144,o),
(333,-144,c)
);
}
);
width = 369;
}
);
unicode = 123;
},
{
color = 4;
glyphname = braceright;
lastChange = "2025-01-05 22:27:12 +0000";
layers = (
{
associatedMasterId = m005;
layerId = m01;
name = Regular;
shapes = (
{
closed = 1;
nodes = (
(132,-144,o),
(198,-91,o),
(198,-16,cs),
(198,173,ls),
(198,225,o),
(242,261,o),
(304,261,c),
(304,297,l),
(242,297,o),
(198,333,o),
(198,385,cs),
(198,574,ls),
(198,649,o),
(132,702,o),
(39,702,c),
(39,650,l),
(95,650,o),
(135,619,o),
(135,574,cs),
(135,385,ls),
(135,346,o),
(158,302,o),
(191,279,c),
(158,256,o),
(135,212,o),
(135,173,cs),
(135,-16,ls),
(135,-61,o),
(95,-92,o),
(39,-92,c),
(39,-144,l)
);
}
);
width = 343;
},
{
associatedMasterId = m005;
hints = (
{
horizontal = 1;
place = (-146,61);
type = Stem;
},
{
horizontal = 1;
place = (249,60);
type = Stem;
},
{
horizontal = 1;
place = (643,61);
type = Stem;
},
{
place = (283,150);
type = Stem;
}
);
layerId = "E0989092-07D5-4BE4-A82B-4E03160A36DB";
name = Black;
shapes = (
{
closed = 1;
nodes = (
(137,-146,o),
(260,-123,o),
(260,-46,cs),
(260,173,ls),
(260,217,o),
(304,249,o),
(366,249,c),
(366,309,l),
(304,309,o),
(260,341,o),
(260,385,cs),
(260,604,ls),
(260,681,o),
(137,704,o),
(-36,704,c),
(-36,653,l),
(50,653,o),
(110,614,o),
(110,574,cs),
(110,385,ls),
(110,351,o),
(140,307,o),
(181,279,c),
(140,251,o),
(110,207,o),
(110,173,cs),
(110,-16,ls),
(110,-56,o),
(50,-95,o),
(-36,-95,c),
(-36,-146,l)
);
}
);
width = 380;
},
{
associatedMasterId = m005;
hints = (
{
horizontal = 1;
place = (-56,91);
type = Stem;
},
{
horizontal = 1;
place = (225,90);
type = Stem;
},
{
horizontal = 1;
place = (504,91);
type = Stem;
},
{
place = (249,154);
type = Stem;
}
);
layerId = m003;
name = BlackCondensed;
shapes = (
{
closed = 1;
nodes = (
(145,-146,o),
(222,-123,o),
(222,-46,cs),
(222,173,ls),
(222,217,o),
(264,249,o),
(308,249,c),
(308,309,l),
(264,309,o),
(222,341,o),
(222,385,cs),
(222,604,ls),
(222,681,o),
(145,704,o),
(22,704,c),
(22,653,l),
(83,653,o),
(126,614,o),
(126,574,cs),
(126,385,ls),
(126,351,o),
(147,307,o),
(176,279,c),
(147,251,o),
(126,207,o),
(126,173,cs),
(126,-16,ls),
(126,-56,o),
(83,-95,o),
(22,-95,c),
(22,-146,l)
);
}
);
width = 380;
},
{
layerId = m005;
shapes = (
{
closed = 1;
nodes = (
(127,-144,o),
(191,-91,o),
(191,-16,cs),
(191,173,ls),
(191,229,o),
(241,269,o),
(315,269,c),
(315,289,l),
(241,289,o),
(191,329,o),
(191,385,cs),
(191,574,ls),
(191,649,o),
(127,702,o),
(36,702,c),
(36,666,l),
(92,666,o),
(132,628,o),
(132,574,cs),
(132,401,ls),
(132,357,o),
(167,306,o),
(216,279,c),
(167,252,o),
(132,201,o),
(132,157,cs),
(132,-16,ls),
(132,-70,o),
(92,-108,o),
(36,-108,c),
(36,-144,l)
);
}
);
width = 369;
}
);
unicode = 125;
},
{
glyphname = bracketleft;
lastChange = "2025-01-05 22:27:23 +0000";
layers = (
{
layerId = m005;
shapes = (
{
closed = 1;
nodes = (
(288,656,l),
(288,692,l),
(88,692,l),
(103,416,o),
(103,140,o),
(88,-136,c),
(288,-136,l),
(288,-100,l),
(160,-100,l),
(160,656,l)
);
}
);
width = 315;
}
);
unicode = 91;
},
{
glyphname = bracketright;
lastChange = "2025-01-05 22:27:31 +0000";
layers = (
{
layerId = m005;
shapes = (
{
closed = 1;
nodes = (
(155,-100,l),
(27,-100,l),
(27,-136,l),
(227,-136,l),
(212,140,o),
(212,416,o),
(227,692,c),
(27,692,l),
(27,656,l),
(155,656,l)
);
}
);
width = 324;
}
);
unicode = 93;
},
{
glyphname = quotesinglbase;
lastChange = "2025-01-05 22:27:44 +0000";
layers = (
{
layerId = m005;
shapes = (
{
closed = 1;
nodes = (
(64,-165,l),
(139,-135,o),
(189,-63,o),
(189,8,cs),
(189,54,o),
(155,91,o),
(105,91,cs),
(69,91,o),
(45,67,o),
(45,38,cs),
(45,16,o),
(59,-5,o),
(79,-5,cs),
(95,-5,o),
(98,2,o),
(113,2,cs),
(127,2,o),
(135,-14,o),
(135,-37,cs),
(135,-86,o),
(102,-125,o),
(54,-138,c)
);
}
);
width = 234;
}
);
unicode = 8218;
},
{
glyphname = quotedblbase;
lastChange = "2025-01-05 22:27:55 +0000";
layers = (
{
layerId = m005;
shapes = (
{
closed = 1;
nodes = (
(64,-165,l),
(139,-135,o),
(191,-63,o),
(191,8,cs),
(191,54,o),
(157,91,o),
(107,91,cs),
(71,91,o),
(45,67,o),
(45,38,cs),
(45,16,o),
(59,-5,o),
(79,-5,cs),
(97,-5,o),
(100,2,o),
(115,2,cs),
(129,2,o),
(137,-14,o),
(137,-37,cs),
(137,-86,o),
(102,-125,o),
(54,-138,c)
);
},
{
closed = 1;
nodes = (
(251,-165,l),
(326,-135,o),
(378,-63,o),
(378,8,cs),
(378,54,o),
(344,91,o),
(294,91,cs),
(258,91,o),
(232,67,o),
(232,38,cs),
(232,16,o),
(246,-5,o),
(266,-5,cs),
(284,-5,o),
(287,2,o),
(302,2,cs),
(316,2,o),
(324,-14,o),
(324,-37,cs),
(324,-86,o),
(289,-125,o),
(241,-138,c)
);
}
);
width = 423;
}
);
unicode = 8222;
},
{
glyphname = quotedblleft;
lastChange = "2025-01-05 22:28:06 +0000";
layers = (
{
layerId = m005;
shapes = (
{
closed = 1;
nodes = (
(359,651,l),
(284,621,o),
(229,549,o),
(229,478,cs),
(229,432,o),
(266,395,o),
(316,395,cs),
(352,395,o),
(378,419,o),
(378,448,cs),
(378,470,o),
(364,491,o),
(344,491,cs),
(326,491,o),
(323,484,o),
(308,484,cs),
(294,484,o),
(286,500,o),
(286,523,cs),
(286,572,o),
(321,611,o),
(369,624,c)
);
},
{
closed = 1;
nodes = (
(172,651,l),
(97,621,o),
(45,549,o),
(45,478,cs),
(45,432,o),
(79,395,o),
(129,395,cs),
(165,395,o),
(191,419,o),
(191,448,cs),
(191,470,o),
(177,491,o),
(157,491,cs),
(139,491,o),
(136,484,o),
(121,484,cs),
(107,484,o),
(99,500,o),
(99,523,cs),
(99,572,o),
(134,611,o),
(182,624,c)
);
}
);
width = 423;
}
);
unicode = 8220;
},
{
glyphname = quotedblright;
lastChange = "2025-01-05 22:28:12 +0000";
layers = (
{
layerId = m005;
shapes = (
{
closed = 1;
nodes = (
(64,369,l),
(139,399,o),
(191,471,o),
(191,542,cs),
(191,588,o),
(157,625,o),
(107,625,cs),
(71,625,o),
(45,601,o),
(45,572,cs),
(45,550,o),
(59,529,o),
(79,529,cs),
(97,529,o),
(100,536,o),
(115,536,cs),
(129,536,o),
(137,520,o),
(137,497,cs),
(137,448,o),
(102,409,o),
(54,396,c)
);
},
{
closed = 1;
nodes = (
(251,369,l),
(326,399,o),
(378,471,o),
(378,542,cs),
(378,588,o),
(344,625,o),
(294,625,cs),
(258,625,o),
(232,601,o),
(232,572,cs),
(232,550,o),
(246,529,o),
(266,529,cs),
(284,529,o),
(287,536,o),
(302,536,cs),
(316,536,o),
(324,520,o),
(324,497,cs),
(324,448,o),
(289,409,o),
(241,396,c)
);
}
);
width = 423;
}
);
unicode = 8221;
},
{
glyphname = quoteleft;
lastChange = "2025-01-05 22:28:22 +0000";
layers = (
{
layerId = m005;
shapes = (
{
closed = 1;
nodes = (
(170,651,l),
(95,621,o),
(45,549,o),
(45,478,cs),
(45,432,o),
(77,395,o),
(127,395,cs),
(163,395,o),
(189,419,o),
(189,448,cs),
(189,470,o),
(175,491,o),
(155,491,cs),
(137,491,o),
(134,484,o),
(119,484,cs),
(105,484,o),
(99,500,o),
(99,523,cs),
(99,572,o),
(132,611,o),
(180,624,c)
);
}
);
width = 234;
}
);
unicode = 8216;
},
{
glyphname = quoteright;
lastChange = "2025-01-05 22:28:29 +0000";
layers = (
{
layerId = m005;
shapes = (
{
closed = 1;
nodes = (
(64,369,l),
(137,399,o),
(189,471,o),
(189,542,cs),
(189,588,o),
(155,625,o),
(105,625,cs),
(69,625,o),
(45,601,o),
(45,572,cs),
(45,550,o),
(59,529,o),
(79,529,cs),
(95,529,o),
(98,536,o),
(113,536,cs),
(127,536,o),
(135,520,o),
(135,497,cs),
(135,448,o),
(100,409,o),
(54,396,c)
);
}
);
width = 234;
}
);
unicode = 8217;
},
{
glyphname = guillemetleft;
lastChange = "2025-01-05 22:28:48 +0000";
layers = (
{
layerId = m005;
shapes = (
{
closed = 1;
nodes = (
(250,204,l),
(421,50,l),
(461,80,l),
(351,204,l),
(454,333,l),
(426,354,l)
);
},
{
closed = 1;
nodes = (
(58,204,l),
(229,50,l),
(269,80,l),
(159,204,l),
(262,333,l),
(234,354,l)
);
}
);
width = 522;
}
);
unicode = 171;
},
{
glyphname = guillemetright;
lastChange = "2025-01-05 22:28:52 +0000";
layers = (
{
layerId = m005;
shapes = (
{
closed = 1;
nodes = (
(277,200,l),
(106,354,l),
(66,325,l),
(176,200,l),
(73,71,l),
(101,50,l)
);
},
{
closed = 1;
nodes = (
(469,200,l),
(298,354,l),
(258,325,l),
(368,200,l),
(265,71,l),
(293,50,l)
);
}
);
width = 522;
}
);
unicode = 187;
},
{
glyphname = guilsinglleft;
lastChange = "2025-01-05 22:29:15 +0000";
layers = (
{
layerId = m005;
shapes = (
{
closed = 1;
nodes = (
(36,204,l),
(203,50,l),
(243,80,l),
(133,204,l),
(236,333,l),
(208,354,l)
);
}
);
width = 288;
}
);
unicode = 8249;
},
{
glyphname = guilsinglright;
lastChange = "2025-01-05 22:29:15 +0000";
layers = (
{
layerId = m005;
shapes = (
{
closed = 1;
nodes = (
(252,200,l),
(85,354,l),
(45,325,l),
(155,200,l),
(52,71,l),
(80,50,l)
);
}
);
width = 288;
}
);
unicode = 8250;
},
{
glyphname = quotedbl;
lastChange = "2025-01-04 18:37:07 +0000";
layers = (
{
layerId = m005;
shapes = (
{
closed = 1;
nodes = (
(93,428,l),
(143,606,l),
(152,640,o),
(137,664,o),
(109,664,cs),
(80,664,o),
(62,640,o),
(63,606,c),
(72,428,l)
);
},
{
closed = 1;
nodes = (
(245,428,l),
(295,606,l),
(304,640,o),
(289,664,o),
(261,664,cs),
(232,664,o),
(214,640,o),
(215,606,c),
(224,428,l)
);
}
);
width = 361;
}
);
unicode = 34;
},
{
glyphname = quotesingle;
lastChange = "2025-01-05 22:29:33 +0000";
layers = (
{
layerId = m005;
shapes = (
{
closed = 1;
nodes = (
(102,428,l),
(150,606,l),
(159,640,o),
(144,664,o),
(116,664,cs),
(87,664,o),
(71,640,o),
(72,606,c),
(81,428,l)
);
}
);
width = 225;
}
);
unicode = 39;
},
{
color = 3;
export = 0;
glyphname = baht;
lastChange = "2025-01-05 22:55:55 +0000";
layers = (
{
anchors = (
{
name = top;
pos = (296,700);
}
);
associatedMasterId = m005;
layerId = m01;
name = Regular;
shapes = (
{
closed = 1;
nodes = (
(288,0,ls),
(451,0,o),
(566,89,o),
(566,215,cs),
(566,288,o),
(508,345,o),
(417,369,c),
(484,402,o),
(526,462,o),
(526,537,cs),
(526,632,o),
(440,700,o),
(318,700,cs),
(-2,700,l),
(-2,680,l),
(89,650,l),
(89,50,l),
(-2,20,l),
(-2,0,l)
);
},
{
closed = 1;
nodes = (
(184,341,l),
(288,341,ls),
(386,341,o),
(456,277,o),
(456,187,cs),
(456,107,o),
(399,50,o),
(318,50,cs),
(184,50,l)
);
},
{
closed = 1;
nodes = (
(310,-100,l),
(310,800,l),
(270,800,l),
(270,-100,l)
);
},
{
closed = 1;
nodes = (
(184,650,l),
(288,650,ls),
(363,650,o),
(416,590,o),
(416,505,cs),
(416,432,o),
(375,381,o),
(318,381,cs),
(184,381,l)
);
}
);
width = 600;
},
{
anchors = (
{
name = top;
pos = (299,700);
}
);
associatedMasterId = m005;
hints = (
{
horizontal = 1;
place = (0,53);
type = Stem;
},
{
horizontal = 1;
place = (338,46);
type = Stem;
},
{
horizontal = 1;
place = (647,53);
type = Stem;
},
{
place = (48,182);
type = Stem;
},
{
place = (415,197);
type = Stem;
},
{
place = (375,197);
type = Stem;
},
{
horizontal = 1;
place = (687,13);
type = Stem;
}
);
layerId = "E0989092-07D5-4BE4-A82B-4E03160A36DB";
name = Black;
shapes = (
{
closed = 1;
nodes = (
(282,0,ls),
(478,0,o),
(617,81,o),
(617,195,cs),
(617,268,o),
(549,340,o),
(452,369,c),
(525,399,o),
(577,468,o),
(577,537,cs),
(577,632,o),
(483,700,o),
(349,700,cs),
(-38,700,l),
(-38,687,l),
(53,646,l),
(53,54,l),
(-38,13,l),
(-38,0,l)
);
},
{
closed = 1;
nodes = (
(233,336,l),
(296,336,ls),
(377,336,o),
(435,270,o),
(435,177,cs),
(435,103,o),
(388,50,o),
(322,50,cs),
(233,50,l)
);
},
{
closed = 1;
nodes = (
(340,-100,l),
(340,800,l),
(280,800,l),
(280,-100,l)
);
},
{
closed = 1;
nodes = (
(233,650,l),
(299,650,ls),
(355,650,o),
(395,590,o),
(395,505,cs),
(395,435,o),
(364,386,o),
(321,386,cs),
(233,386,l)
);
}
);
width = 630;
},
{
anchors = (
{
name = top;
pos = (296,700);
}
);
associatedMasterId = m005;
hints = (
{
horizontal = 1;
place = (84,122);
type = Stem;
},
{
horizontal = 1;
place = (324,117);
type = Stem;
},
{
horizontal = 1;
place = (543,122);
type = Stem;
},
{
place = (118,213);
type = Stem;
},
{
place = (379,224);
type = Stem;
},
{
place = (350,224);
type = Stem;
},
{
horizontal = 1;
place = (572,93);
type = Stem;
}
);
layerId = m003;
name = BlackCondensed;
shapes = (
{
closed = 1;
nodes = (
(284,0,ls),
(423,0,o),
(522,81,o),
(522,195,cs),
(522,268,o),
(474,340,o),
(405,369,c),
(457,399,o),
(494,468,o),
(494,537,cs),
(494,632,o),
(427,700,o),
(332,700,cs),
(57,700,l),
(57,687,l),
(122,646,l),
(122,54,l),
(57,13,l),
(57,0,l)
);
},
{
closed = 1;
nodes = (
(249,336,l),
(294,336,ls),
(352,336,o),
(393,270,o),
(393,177,cs),
(393,103,o),
(359,50,o),
(313,50,cs),
(249,50,l)
);
},
{
closed = 1;
nodes = (
(325,-100,l),
(325,800,l),
(283,800,l),
(283,-100,l)
);
},
{
closed = 1;
nodes = (
(249,650,l),
(296,650,ls),
(336,650,o),
(364,590,o),
(364,505,cs),
(364,435,o),
(342,386,o),
(312,386,cs),
(249,386,l)
);
}
);
width = 630;
},
{
anchors = (
{
name = top;
pos = (296,700);
}
);
layerId = m005;
shapes = (
{
closed = 1;
nodes = (
(310,-100,l),
(310,800,l),
(270,800,l),
(270,-100,l)
);
},
{
alignment = -1;
pos = (8,0);
ref = B;
}
);
width = 558;
}
);
metricWidth = B;
unicode = 3647;
},
{
color = 5;
glyphname = u2619;
lastChange = "2025-01-05 22:30:05 +0000";
layers = (
{
layerId = m005;
shapes = (
{
closed = 1;
nodes = (
(568,2,o),
(651,71,o),
(651,167,cs),
(651,207,o),
(631,251,o),
(588,275,c),
(693,353,o),
(807,408,o),
(858,408,cs),
(964,408,o),
(1040,331,o),
(1040,225,cs),
(1040,160,o),
(999,116,o),
(940,116,cs),
(910,116,o),
(890,110,o),
(890,102,cs),
(890,73,o),
(910,55,o),
(940,55,cs),
(1021,55,o),
(1080,125,o),
(1080,222,cs),
(1080,350,o),
(989,438,o),
(858,438,cs),
(816,438,o),
(750,417,o),
(700,389,cs),
(521,281,o),
(358,187,o),
(233,187,c),
(233,199,l),
(280,207,o),
(351,230,o),
(406,255,cs),
(521,310,o),
(593,366,o),
(593,455,cs),
(593,513,o),
(550,554,o),
(476,554,cs),
(427,554,o),
(374,531,o),
(343,502,cs),
(301,460,o),
(251,371,o),
(220,288,cs),
(204,243,o),
(164,210,o),
(119,210,cs),
(100,210,o),
(85,225,o),
(85,244,cs),
(85,270,o),
(104,283,o),
(122,298,cs),
(146,318,o),
(172,339,o),
(172,384,cs),
(172,404,o),
(149,435,o),
(117,462,cs),
(115,463,o),
(111,465,o),
(110,465,cs),
(105,465,o),
(101,462,o),
(98,455,cs),
(69,401,o),
(48,333,o),
(48,294,cs),
(48,123,o),
(208,2,o),
(435,2,cs)
);
},
{
closed = 1;
nodes = (
(1053,241,l),
(1049,241,ls),
(910,241,o),
(813,310,o),
(813,408,cs),
(813,495,o),
(884,556,o),
(983,556,cs),
(1021,556,o),
(1049,563,o),
(1049,574,cs),
(1049,599,o),
(1021,618,o),
(983,618,cs),
(863,618,o),
(779,530,o),
(779,404,cs),
(779,289,o),
(892,207,o),
(1053,207,c)
);
}
);
width = 1125;
}
);
unicode = 9753;
},
{
glyphname = u2740;
lastChange = "2025-01-05 22:30:10 +0000";
layers = (
{
layerId = m005;
shapes = (
{
closed = 1;
nodes = (
(412,352,l),
(412,373,o),
(468,490,o),
(468,533,cs),
(468,579,o),
(438,611,o),
(397,611,cs),
(355,611,o),
(324,580,o),
(324,536,cs),
(324,501,o),
(393,375,o),
(393,352,cs)
);
},
{
closed = 1;
nodes = (
(408,387,o),
(401,390,o),
(397,390,c),
(397,415,o),
(354,507,o),
(354,532,cs),
(354,571,o),
(377,583,o),
(395,583,cs),
(414,583,o),
(439,571,o),
(439,533,cs),
(439,496,o),
(408,415,o),
(408,390,cs)
);
},
{
closed = 1;
nodes = (
(472,322,l),
(486,337,o),
(608,380,o),
(639,411,c),
(670,443,o),
(673,487,o),
(644,518,cs),
(615,545,o),
(571,544,o),
(540,513,cs),
(515,490,o),
(474,351,o),
(459,336,cs)
);
},
{
closed = 1;
nodes = (
(494,350,o),
(490,357,o),
(488,359,c),
(505,376,o),
(540,473,o),
(558,491,cs),
(585,519,o),
(610,509,o),
(621,498,cs),
(636,484,o),
(646,457,o),
(619,430,cs),
(592,404,o),
(513,370,o),
(496,351,cs)
);
},
{
closed = 1;
nodes = (
(489,254,l),
(509,254,o),
(627,199,o),
(669,199,cs),
(715,199,o),
(747,229,o),
(747,271,cs),
(747,312,o),
(717,342,o),
(673,342,cs),
(638,342,o),
(512,273,o),
(489,273,cs)
);
},
{
closed = 1;
nodes = (
(524,259,o),
(526,266,o),
(526,270,c),
(552,270,o),
(644,313,o),
(669,313,cs),
(708,313,o),
(721,289,o),
(721,272,cs),
(721,252,o),
(708,228,o),
(669,228,cs),
(632,228,o),
(552,259,o),
(526,259,cs)
);
},
{
closed = 1;
nodes = (
(459,198,l),
(473,184,o),
(516,61,o),
(548,29,cs),
(579,-1,o),
(623,-3,o),
(654,25,cs),
(682,56,o),
(682,98,o),
(651,129,cs),
(627,155,o),
(488,195,o),
(472,211,cs)
);
},
{
closed = 1;
nodes = (
(486,176,o),
(494,178,o),
(496,182,c),
(514,164,o),
(610,129,o),
(628,113,cs),
(655,84,o),
(646,59,o),
(634,48,cs),
(620,34,o),
(594,24,o),
(567,51,cs),
(541,78,o),
(506,156,o),
(488,174,cs)
);
},
{
closed = 1;
nodes = (
(396,179,l),
(396,159,o),
(339,43,o),
(339,-1,cs),
(339,-48,o),
(369,-79,o),
(410,-79,cs),
(453,-79,o),
(482,-49,o),
(482,-3,cs),
(482,29,o),
(413,156,o),
(413,179,cs)
);
},
{
closed = 1;
nodes = (
(399,144,o),
(407,141,o),
(410,141,c),
(410,117,o),
(453,25,o),
(453,0,cs),
(453,-38,o),
(430,-52,o),
(413,-52,cs),
(392,-52,o),
(368,-40,o),
(368,-1,cs),
(368,36,o),
(399,117,o),
(399,141,cs)
);
},
{
closed = 1;
nodes = (
(335,209,l),
(321,195,o),
(200,153,o),
(168,121,c),
(136,89,o),
(134,45,o),
(164,15,cs),
(194,-14,o),
(237,-13,o),
(267,17,cs),
(293,43,o),
(332,182,o),
(350,196,cs)
);
},
{
closed = 1;
nodes = (
(315,182,o),
(317,175,o),
(319,172,c),
(302,155,o),
(267,59,o),
(250,41,cs),
(222,13,o),
(197,23,o),
(185,34,cs),
(171,49,o),
(162,74,o),
(189,101,cs),
(215,128,o),
(294,163,o),
(312,179,cs)
);
},
{
closed = 1;
nodes = (
(319,277,l),
(297,277,o),
(181,334,o),
(137,334,cs),
(91,334,o),
(60,303,o),
(60,261,cs),
(60,220,o),
(90,190,o),
(135,190,cs),
(169,190,o),
(295,259,o),
(319,259,cs)
);
},
{
closed = 1;
nodes = (
(283,272,o),
(281,266,o),
(281,263,c),
(256,263,o),
(164,220,o),
(137,220,cs),
(99,220,o),
(88,243,o),
(88,259,cs),
(88,280,o),
(99,304,o),
(137,304,cs),
(175,304,o),
(256,272,o),
(281,272,cs)
);
},
{
closed = 1;
nodes = (
(349,335,l),
(333,349,o),
(292,469,o),
(260,501,cs),
(227,533,o),
(183,535,o),
(155,506,cs),
(125,476,o),
(125,432,o),
(157,402,cs),
(181,377,o),
(319,337,o),
(334,321,cs)
);
},
{
closed = 1;
nodes = (
(320,356,o),
(315,352,o),
(311,350,c),
(293,368,o),
(199,402,o),
(180,420,cs),
(152,448,o),
(162,472,o),
(172,484,cs),
(188,499,o),
(213,508,o),
(240,481,cs),
(267,454,o),
(302,375,o),
(319,358,cs)
);
}
);
width = 810;
}
);
unicode = 10048;
},
{
color = 5;
glyphname = floralHeart;
lastChange = "2025-01-05 22:30:17 +0000";
layers = (
{
layerId = m005;
shapes = (
{
closed = 1;
nodes = (
(30,1,o),
(132,-118,o),
(275,-118,cs),
(308,-118,o),
(366,-103,o),
(411,-81,cs),
(416,-79,o),
(419,-75,o),
(419,-72,cs),
(419,-71,o),
(417,-68,o),
(416,-67,cs),
(393,-43,o),
(368,-27,o),
(351,-27,cs),
(314,-27,o),
(296,-46,o),
(279,-63,cs),
(266,-76,o),
(255,-91,o),
(233,-91,cs),
(218,-91,o),
(205,-79,o),
(205,-65,cs),
(205,-32,o),
(232,-2,o),
(271,10,cs),
(340,32,o),
(415,69,o),
(450,100,cs),
(475,124,o),
(494,163,o),
(494,199,cs),
(494,254,o),
(459,286,o),
(411,286,cs),
(336,286,o),
(289,232,o),
(242,147,cs),
(222,107,o),
(202,54,o),
(196,19,c),
(187,19,l),
(187,112,o),
(264,232,o),
(356,365,cs),
(380,402,o),
(397,450,o),
(397,481,cs),
(397,579,o),
(323,646,o),
(215,646,cs),
(133,646,o),
(75,603,o),
(75,543,cs),
(75,520,o),
(89,506,o),
(114,506,cs),
(122,506,o),
(125,520,o),
(125,543,cs),
(125,586,o),
(163,616,o),
(218,616,cs),
(306,616,o),
(372,560,o),
(372,481,cs),
(372,444,o),
(325,360,o),
(259,282,c),
(240,314,o),
(202,328,o),
(168,328,cs),
(89,328,o),
(30,267,o),
(30,169,cs)
);
},
{
closed = 1;
nodes = (
(202,507,o),
(272,423,o),
(368,423,cs),
(474,423,o),
(547,486,o),
(547,574,cs),
(547,603,o),
(532,623,o),
(511,623,cs),
(501,623,o),
(495,603,o),
(495,574,cs),
(495,501,o),
(444,449,o),
(372,449,cs),
(289,449,o),
(231,520,o),
(231,623,cs),
(231,626,l),
(202,626,l)
);
}
);
width = 576;
}
);
unicode = 10086;
},
{
color = 5;
glyphname = u2767;
lastChange = "2025-01-05 22:30:20 +0000";
layers = (
{
layerId = m005;
shapes = (
{
closed = 1;
nodes = (
(920,2,o),
(1080,123,o),
(1080,294,cs),
(1080,333,o),
(1059,401,o),
(1030,455,cs),
(1027,462,o),
(1023,465,o),
(1018,465,cs),
(1017,465,o),
(1013,463,o),
(1011,462,cs),
(979,435,o),
(956,404,o),
(956,384,cs),
(956,339,o),
(982,318,o),
(1006,298,cs),
(1024,283,o),
(1043,270,o),
(1043,244,cs),
(1043,225,o),
(1028,210,o),
(1009,210,cs),
(964,210,o),
(924,243,o),
(908,288,cs),
(877,371,o),
(827,460,o),
(785,502,cs),
(754,531,o),
(701,554,o),
(652,554,cs),
(578,554,o),
(535,513,o),
(535,455,cs),
(535,366,o),
(607,310,o),
(722,255,cs),
(777,230,o),
(848,207,o),
(895,199,c),
(895,187,l),
(770,187,o),
(607,281,o),
(428,389,cs),
(378,417,o),
(312,438,o),
(270,438,cs),
(139,438,o),
(48,350,o),
(48,222,cs),
(48,125,o),
(107,55,o),
(188,55,cs),
(218,55,o),
(238,73,o),
(238,102,cs),
(238,110,o),
(218,116,o),
(188,116,cs),
(129,116,o),
(88,160,o),
(88,225,cs),
(88,331,o),
(164,408,o),
(270,408,cs),
(321,408,o),
(435,353,o),
(540,275,c),
(497,251,o),
(477,207,o),
(477,167,cs),
(477,71,o),
(560,2,o),
(693,2,cs)
);
},
{
closed = 1;
nodes = (
(236,207,o),
(349,289,o),
(349,404,cs),
(349,530,o),
(265,618,o),
(145,618,cs),
(107,618,o),
(79,599,o),
(79,574,cs),
(79,563,o),
(107,556,o),
(145,556,cs),
(244,556,o),
(315,495,o),
(315,408,cs),
(315,310,o),
(218,241,o),
(79,241,cs),
(75,241,l),
(75,207,l)
);
}
);
width = 1125;
}
);
unicode = 10087;
},
{
color = 3;
glyphname = at;
lastChange = "2025-01-05 22:30:37 +0000";
layers = (
{
associatedMasterId = m005;
layerId = "64256756-86B2-4B21-ADC9-3CB4C17202DE";
name = Regular;
shapes = (
{
closed = 1;
nodes = (
(458,471,o),
(401,487,o),
(339,487,cs),
(248,487,o),
(184,406,o),
(184,292,cs),
(184,187,o),
(248,113,o),
(339,113,cs),
(375,113,o),
(427,152,o),
(465,206,c),
(441,226,l),
(410,179,o),
(368,145,o),
(339,145,cs),
(283,145,o),
(244,206,o),
(244,292,cs),
(244,387,o),
(283,455,o),
(339,455,cs),
(385,455,o),
(418,431,o),
(418,397,c),
(418,185,l),
(418,142,o),
(464,112,o),
(529,112,cs),
(609,112,o),
(666,187,o),
(666,292,cs),
(666,506,o),
(531,658,o),
(339,658,cs),
(150,658,o),
(17,506,o),
(17,292,cs),
(17,81,o),
(150,-68,o),
(339,-68,cs),
(416,-68,o),
(519,-22,o),
(588,43,c),
(575,58,l),
(507,-4,o),
(409,-48,o),
(339,-48,cs),
(162,-48,o),
(37,93,o),
(37,292,cs),
(37,495,o),
(162,638,o),
(339,638,cs),
(519,638,o),
(646,495,o),
(646,292,cs),
(646,205,o),
(597,144,o),
(528,144,cs),
(499,144,o),
(478,161,o),
(478,185,c),
(478,448,l)
);
}
);
width = 600;
},
{
associatedMasterId = m005;
layerId = m01;
name = Regular;
shapes = (
{
closed = 1;
nodes = (
(518,-118,o),
(627,-72,o),
(684,-7,c),
(661,19,l),
(608,-41,o),
(509,-83,o),
(422,-83,cs),
(237,-83,o),
(106,38,o),
(106,238,cs),
(106,422,o),
(237,573,o),
(422,573,cs),
(582,573,o),
(695,475,o),
(695,308,cs),
(695,218,o),
(661,95,o),
(570,95,cs),
(537,95,o),
(518,108,o),
(522,130,cs),
(577,393,l),
(563,416,o),
(505,432,o),
(437,432,cs),
(333,432,o),
(225,331,o),
(225,193,cs),
(225,112,o),
(270,58,o),
(357,58,cs),
(389,58,o),
(425,78,o),
(454,109,c),
(461,80,o),
(499,63,o),
(554,63,cs),
(659,63,o),
(735,177,o),
(735,308,cs),
(735,495,o),
(605,608,o),
(422,608,cs),
(213,608,o),
(66,443,o),
(66,238,cs),
(66,18,o),
(213,-118,o),
(422,-118,cs)
);
},
{
closed = 1;
nodes = (
(300,316,o),
(361,396,o),
(417,396,cs),
(459,396,o),
(482,390,o),
(505,374,c),
(456,140,l),
(427,115,o),
(397,100,o),
(375,100,cs),
(322,100,o),
(300,145,o),
(300,211,cs)
);
}
);
width = 801;
},
{
associatedMasterId = m005;
layerId = "404132C0-55CF-4910-B5A3-A578668CC6ED";
name = Regular;
shapes = (
{
closed = 1;
nodes = (
(525,-118,o),
(634,-72,o),
(691,-7,c),
(668,19,l),
(615,-41,o),
(516,-83,o),
(429,-83,cs),
(244,-83,o),
(113,58,o),
(113,258,cs),
(113,442,o),
(244,573,o),
(429,573,cs),
(589,573,o),
(702,455,o),
(702,288,cs),
(702,184,o),
(658,104,o),
(597,96,cs),
(552,90,o),
(524,104,o),
(529,130,cs),
(584,393,l),
(570,416,o),
(512,432,o),
(444,432,cs),
(347,432,o),
(260,344,o),
(234,220,cs),
(214,125,o),
(268,58,o),
(364,58,cs),
(409,58,o),
(462,97,o),
(492,151,c),
(496,173,l),
(460,130,o),
(413,100,o),
(382,100,cs),
(322,100,o),
(291,157,o),
(308,237,cs),
(327,330,o),
(375,396,o),
(424,396,c),
(466,396,o),
(489,390,o),
(512,374,c),
(461,130,ls),
(452,87,o),
(499,59,o),
(574,63,cs),
(672,69,o),
(742,162,o),
(742,288,cs),
(742,475,o),
(612,608,o),
(429,608,cs),
(220,608,o),
(73,463,o),
(73,258,cs),
(73,38,o),
(220,-118,o),
(429,-118,cs)
);
}
);
width = 800;
},
{
associatedMasterId = m005;
layerId = "7CDE027E-669A-44DA-9839-9557A953AA7F";
name = Regular;
shapes = (
{
closed = 1;
nodes = (
(525,-118,o),
(634,-72,o),
(691,-7,c),
(668,19,l),
(615,-41,o),
(516,-83,o),
(429,-83,cs),
(244,-83,o),
(113,58,o),
(113,258,cs),
(113,442,o),
(244,573,o),
(429,573,cs),
(589,573,o),
(702,455,o),
(702,288,cs),
(702,198,o),
(668,95,o),
(577,95,cs),
(544,95,o),
(525,108,o),
(529,130,cs),
(584,393,l),
(570,416,o),
(512,432,o),
(444,432,cs),
(340,432,o),
(232,331,o),
(232,193,cs),
(232,112,o),
(277,58,o),
(364,58,cs),
(399,58,o),
(440,82,o),
(470,119,c),
(460,118,l),
(461,83,o),
(500,63,o),
(561,63,cs),
(666,63,o),
(742,157,o),
(742,288,cs),
(742,475,o),
(612,608,o),
(429,608,cs),
(220,608,o),
(73,463,o),
(73,258,cs),
(73,38,o),
(220,-118,o),
(429,-118,cs)
);
},
{
closed = 1;
nodes = (
(329,100,o),
(307,145,o),
(307,211,cs),
(307,316,o),
(368,396,o),
(424,396,cs),
(471,396,o),
(495,388,o),
(521,367,c),
(516,392,l),
(459,122,l),
(474,150,l),
(442,119,o),
(407,100,o),
(382,100,cs)
);
}
);
width = 800;
},
{
associatedMasterId = m005;
hints = (
{
horizontal = 1;
place = (-121,41);
type = Stem;
},
{
horizontal = 1;
place = (60,40);
type = Stem;
},
{
horizontal = 1;
place = (401,43);
type = Stem;
},
{
horizontal = 1;
place = (570,41);
type = Stem;
},
{
place = (13,93);
type = Stem;
},
{
place = (163,141);
type = Stem;
},
{
place = (675,94);
type = Stem;
},
{
horizontal = 1;
place = (63,49);
type = Stem;
}
);
layerId = "E0989092-07D5-4BE4-A82B-4E03160A36DB";
name = Black;
shapes = (
{
closed = 1;
nodes = (
(501,-121,o),
(617,-67,o),
(686,10,c),
(659,44,l),
(605,-28,o),
(499,-80,o),
(405,-80,cs),
(250,-80,o),
(99,28,o),
(99,238,cs),
(99,432,o),
(250,570,o),
(405,570,cs),
(535,570,o),
(668,485,o),
(668,308,cs),
(668,176,o),
(584,100,o),
(578,100,cs),
(547,100,o),
(516,111,o),
(522,138,cs),
(577,396,l),
(561,419,o),
(483,444,o),
(395,444,cs),
(260,444,o),
(187,354,o),
(162,246,cs),
(140,134,o),
(168,63,o),
(315,63,cs),
(349,63,o),
(380,71,o),
(407,82,c),
(433,70,o),
(474,60,o),
(551,60,cs),
(686,60,o),
(762,179,o),
(762,308,cs),
(762,502,o),
(608,611,o),
(405,611,cs),
(180,611,o),
(6,451,o),
(6,238,cs),
(6,10,o),
(178,-121,o),
(405,-121,cs)
);
},
{
closed = 1;
nodes = (
(318,346,o),
(341,401,o),
(375,401,cs),
(379,401,o),
(414,395,o),
(438,389,c),
(393,167,l),
(379,132,o),
(352,112,o),
(333,112,cs),
(305,112,o),
(287,175,o),
(302,263,cs)
);
}
);
width = 788;
},
{
associatedMasterId = m005;
hints = (
{
horizontal = 1;
place = (25,140);
type = Stem;
},
{
horizontal = 1;
place = (154,140);
type = Stem;
},
{
horizontal = 1;
place = (396,142);
type = Stem;
},
{
horizontal = 1;
place = (516,140);
type = Stem;
},
{
place = (121,177);
type = Stem;
},
{
place = (227,211);
type = Stem;
},
{
place = (591,178);
type = Stem;
},
{
horizontal = 1;
place = (156,146);
type = Stem;
}
);
layerId = m003;
name = BlackCondensed;
shapes = (
{
closed = 1;
nodes = (
(470,-111,o),
(553,-61,o),
(598,10,c),
(579,44,l),
(544,-23,o),
(469,-70,o),
(399,-70,cs),
(248,-70,o),
(142,58,o),
(142,238,cs),
(142,427,o),
(248,560,o),
(399,560,cs),
(520,560,o),
(606,456,o),
(606,308,cs),
(606,186,o),
(571,100,o),
(522,100,cs),
(495,100,o),
(479,116,o),
(482,138,cs),
(521,396,l),
(508,424,o),
(454,444,o),
(392,444,cs),
(314,444,o),
(245,362,o),
(226,246,cs),
(212,139,o),
(257,63,o),
(335,63,cs),
(354,63,o),
(381,71,o),
(400,82,c),
(420,69,o),
(463,60,o),
(503,60,cs),
(602,60,o),
(672,163,o),
(672,308,cs),
(672,480,o),
(559,601,o),
(399,601,cs),
(210,601,o),
(76,451,o),
(76,238,cs),
(76,34,o),
(210,-111,o),
(399,-111,cs)
);
},
{
closed = 1;
nodes = (
(337,344,o),
(358,401,o),
(378,401,cs),
(384,401,o),
(402,396,o),
(422,389,c),
(390,167,l),
(381,135,o),
(363,112,o),
(348,112,cs),
(324,112,o),
(315,175,o),
(326,263,cs)
);
}
);
width = 788;
},
{
associatedMasterId = m005;
layerId = "E1BA075C-8321-4C1E-A607-5D2C087D9921";
name = "23. Dez. 23, 20:17";
shapes = (
{
closed = 1;
nodes = (
(458,471,o),
(401,487,o),
(339,487,cs),
(248,487,o),
(184,406,o),
(184,292,cs),
(184,187,o),
(248,113,o),
(339,113,cs),
(375,113,o),
(427,152,o),
(465,206,c),
(441,226,l),
(410,179,o),
(368,145,o),
(339,145,cs),
(283,145,o),
(244,206,o),
(244,292,cs),
(244,387,o),
(283,455,o),
(339,455,cs),
(385,455,o),
(418,431,o),
(418,397,c),
(418,185,l),
(418,142,o),
(464,112,o),
(529,112,cs),
(609,112,o),
(666,187,o),
(666,292,cs),
(666,506,o),
(531,658,o),
(339,658,cs),
(150,658,o),
(17,506,o),
(17,292,cs),
(17,81,o),
(150,-68,o),
(339,-68,cs),
(416,-68,o),
(519,-22,o),
(588,43,c),
(575,58,l),
(507,-4,o),
(409,-48,o),
(339,-48,cs),
(162,-48,o),
(37,93,o),
(37,292,cs),
(37,495,o),
(162,638,o),
(339,638,cs),
(519,638,o),
(646,495,o),
(646,292,cs),
(646,205,o),
(597,144,o),
(528,144,cs),
(499,144,o),
(478,161,o),
(478,185,c),
(478,448,l)
);
}
);
width = 600;
},
{
layerId = m005;
name = Regular;
shapes = (
{
closed = 1;
nodes = (
(494,-118,o),
(603,-72,o),
(660,-7,c),
(643,14,l),
(591,-46,o),
(490,-88,o),
(398,-88,cs),
(207,-88,o),
(75,47,o),
(75,238,cs),
(75,437,o),
(207,578,o),
(398,578,cs),
(564,578,o),
(681,466,o),
(681,308,cs),
(681,183,o),
(625,95,o),
(546,95,cs),
(508,95,o),
(484,110,o),
(488,130,cs),
(543,393,l),
(529,416,o),
(475,432,o),
(413,432,cs),
(284,432,o),
(193,333,o),
(193,193,cs),
(193,114,o),
(251,58,o),
(333,58,cs),
(362,58,o),
(402,79,o),
(430,109,c),
(437,82,o),
(478,63,o),
(530,63,cs),
(636,63,o),
(711,165,o),
(711,308,cs),
(711,484,o),
(581,608,o),
(398,608,cs),
(189,608,o),
(45,455,o),
(45,238,cs),
(45,29,o),
(189,-118,o),
(398,-118,cs)
);
},
{
closed = 1;
nodes = (
(266,319,o),
(319,396,o),
(393,396,cs),
(423,396,o),
(456,387,o),
(473,374,c),
(424,140,l),
(396,117,o),
(366,100,o),
(351,100,cs),
(301,100,o),
(266,146,o),
(266,211,cs)
);
}
);
width = 756;
},
{
associatedMasterId = m005;
layerId = "10259C87-1F2C-4B21-82A3-D06A025E0AFF";
name = "1. Jan. 24, 18:26";
shapes = (
{
closed = 1;
nodes = (
(525,-118,o),
(634,-72,o),
(691,-7,c),
(668,19,l),
(615,-41,o),
(516,-83,o),
(429,-83,cs),
(244,-83,o),
(113,58,o),
(113,258,cs),
(113,442,o),
(244,573,o),
(429,573,cs),
(589,573,o),
(702,455,o),
(702,288,cs),
(702,184,o),
(658,104,o),
(597,96,cs),
(552,90,o),
(524,104,o),
(529,130,cs),
(584,393,l),
(570,416,o),
(512,432,o),
(444,432,cs),
(347,432,o),
(260,344,o),
(234,220,cs),
(214,125,o),
(268,58,o),
(364,58,cs),
(409,58,o),
(462,97,o),
(492,151,c),
(496,173,l),
(460,130,o),
(413,100,o),
(382,100,cs),
(322,100,o),
(291,157,o),
(308,237,cs),
(327,330,o),
(375,396,o),
(424,396,c),
(466,396,o),
(489,390,o),
(512,374,c),
(461,130,ls),
(452,87,o),
(499,59,o),
(574,63,cs),
(672,69,o),
(742,162,o),
(742,288,cs),
(742,475,o),
(612,608,o),
(429,608,cs),
(220,608,o),
(73,463,o),
(73,258,cs),
(73,38,o),
(220,-118,o),
(429,-118,cs)
);
}
);
width = 800;
},
{
associatedMasterId = m005;
layerId = "8C0016A5-A153-4664-890D-A5505B0C0526";
name = "2. Jan. 24, 00:15";
shapes = (
{
closed = 1;
nodes = (
(525,-118,o),
(634,-72,o),
(691,-7,c),
(668,19,l),
(615,-41,o),
(516,-83,o),
(429,-83,cs),
(244,-83,o),
(113,58,o),
(113,258,cs),
(113,442,o),
(244,573,o),
(429,573,cs),
(589,573,o),
(702,455,o),
(702,288,cs),
(702,198,o),
(668,95,o),
(577,95,cs),
(544,95,o),
(525,108,o),
(529,130,cs),
(584,393,l),
(570,416,o),
(512,432,o),
(444,432,cs),
(340,432,o),
(232,331,o),
(232,193,cs),
(232,112,o),
(277,58,o),
(364,58,cs),
(399,58,o),
(440,82,o),
(470,119,c),
(460,118,l),
(461,83,o),
(500,63,o),
(561,63,cs),
(666,63,o),
(742,157,o),
(742,288,cs),
(742,475,o),
(612,608,o),
(429,608,cs),
(220,608,o),
(73,463,o),
(73,258,cs),
(73,38,o),
(220,-118,o),
(429,-118,cs)
);
},
{
closed = 1;
nodes = (
(329,100,o),
(307,145,o),
(307,211,cs),
(307,316,o),
(368,396,o),
(424,396,cs),
(471,396,o),
(495,388,o),
(521,367,c),
(516,392,l),
(459,122,l),
(474,150,l),
(442,119,o),
(407,100,o),
(382,100,cs)
);
}
);
width = 800;
}
);
unicode = 64;
},
{
glyphname = ampersand;
lastChange = "2025-01-05 22:30:54 +0000";
layers = (
{
layerId = m005;
shapes = (
{
closed = 1;
nodes = (
(431,-11,o),
(527,157,o),
(636,309,cs),
(657,339,o),
(697,353,o),
(730,353,c),
(730,384,l),
(530,384,l),
(530,354,l),
(572,347,o),
(583,340,o),
(583,326,cs),
(583,312,o),
(571,290,o),
(550,254,cs),
(515,193,o),
(404,43,o),
(305,43,cs),
(213,43,o),
(143,106,o),
(143,199,cs),
(143,359,o),
(415,380,o),
(415,532,cs),
(415,584,o),
(362,627,o),
(285,627,cs),
(207,627,o),
(151,568,o),
(151,484,cs),
(151,417,o),
(211,305,o),
(296,213,cs),
(419,80,o),
(552,-14,o),
(623,-14,cs),
(670,-14,o),
(716,-5,o),
(738,8,c),
(729,37,l),
(721,32,o),
(712,29,o),
(700,28,cs),
(627,20,o),
(485,124,o),
(361,258,cs),
(278,347,o),
(215,451,o),
(215,511,cs),
(215,561,o),
(237,597,o),
(267,597,cs),
(316,597,o),
(335,545,o),
(335,500,cs),
(335,381,o),
(63,371,o),
(63,153,cs),
(63,51,o),
(147,-11,o),
(264,-11,cs)
);
}
);
width = 756;
},
{
associatedMasterId = m005;
layerId = "EB7A7454-39B5-4248-AC17-BA83906C524F";
name = "25. Dez. 24, 13:03";
shapes = (
{
closed = 1;
nodes = (
(312,-11,o),
(387,29,o),
(426,85,cs),
(472,148,l),
(460,176,l),
(401,101,ls),
(375,67,o),
(325,48,o),
(284,48,cs),
(225,48,o),
(170,114,o),
(170,190,cs),
(170,311,o),
(428,367,o),
(428,491,cs),
(428,570,o),
(375,626,o),
(306,626,cs),
(218,626,o),
(150,567,o),
(150,484,cs),
(150,442,o),
(172,396,o),
(196,373,cs),
(229,343,o),
(382,208,o),
(397,192,cs),
(426,164,o),
(455,111,o),
(477,65,cs),
(498,23,o),
(552,-7,o),
(597,-7,cs),
(640,-7,o),
(701,22,o),
(745,63,c),
(728,85,l),
(700,63,o),
(664,45,o),
(637,45,cs),
(607,45,o),
(570,69,o),
(551,102,cs),
(515,167,o),
(479,224,o),
(433,266,cs),
(363,331,o),
(308,370,o),
(272,404,cs),
(240,432,o),
(217,474,o),
(217,507,cs),
(217,552,o),
(247,583,o),
(289,583,cs),
(332,583,o),
(363,541,o),
(363,482,cs),
(363,373,o),
(87,307,o),
(87,156,c),
(87,57,o),
(148,-11,o),
(250,-11,c)
);
},
{
closed = 1;
nodes = (
(608,327,l),
(622,349,o),
(651,355,o),
(687,355,cs),
(730,355,l),
(730,383,l),
(515,383,l),
(515,355,l),
(521,355,o),
(532,354,o),
(556,354,cs),
(565,354,o),
(572,353,o),
(572,345,cs),
(572,336,o),
(563,321,o),
(550,305,c),
(460,169,l),
(472,141,l)
);
}
);
width = 866;
}
);
unicode = 38;
},
{
color = 3;
glyphname = paragraph;
lastChange = "2025-01-05 22:31:11 +0000";
layers = (
{
layerId = m005;
shapes = (
{
closed = 1;
nodes = (
(219,-232,o),
(255,-213,o),
(283,-187,cs),
(346,-127,o),
(389,15,o),
(387,148,cs),
(385,310,l),
(387,519,ls),
(387,547,o),
(398,569,o),
(414,577,cs),
(421,581,o),
(439,585,o),
(477,590,c),
(477,616,l),
(221,584,l),
(221,566,l),
(263,556,o),
(294,548,o),
(302,533,cs),
(306,525,o),
(309,509,o),
(309,493,cs),
(309,81,ls),
(309,4,o),
(303,-74,o),
(295,-101,c),
(295,-100,l),
(285,-133,o),
(266,-157,o),
(249,-157,cs),
(230,-158,o),
(228,-135,o),
(209,-134,cs),
(176,-134,o),
(153,-163,o),
(153,-203,cs),
(153,-220,o),
(171,-232,o),
(197,-232,cs)
);
},
{
closed = 1;
nodes = (
(345,580,l),
(477,616,l),
(438,620,o),
(385,623,o),
(349,623,cs),
(166,623,o),
(45,533,o),
(45,383,cs),
(45,251,o),
(156,141,o),
(325,141,cs),
(345,140,l)
);
}
);
width = 513;
}
);
unicode = 182;
},
{
color = 3;
glyphname = section;
lastChange = "2025-01-05 22:31:20 +0000";
layers = (
{
associatedMasterId = m005;
layerId = m01;
name = Regular;
shapes = (
{
closed = 1;
nodes = (
(371,-225,o),
(449,-157,o),
(449,-62,cs),
(449,-30,o),
(426,2,o),
(392,34,c),
(451,66,o),
(489,137,o),
(489,227,cs),
(489,377,o),
(170,522,o),
(170,601,cs),
(170,653,o),
(210,690,o),
(267,690,cs),
(305,690,o),
(350,673,o),
(376,650,c),
(390,549,l),
(438,549,l),
(438,678,l),
(392,706,o),
(321,726,o),
(267,726,cs),
(156,726,o),
(78,658,o),
(78,563,cs),
(78,531,o),
(101,499,o),
(135,467,c),
(76,435,o),
(38,364,o),
(38,274,cs),
(38,125,o),
(357,-21,o),
(357,-100,cs),
(357,-152,o),
(317,-189,o),
(260,-189,cs),
(222,-189,o),
(176,-172,o),
(151,-148,c),
(137,-38,l),
(90,-38,l),
(90,-177,l),
(135,-205,o),
(206,-225,o),
(260,-225,cs)
);
},
{
closed = 1;
nodes = (
(120,374,o),
(142,415,o),
(171,436,c),
(269,357,o),
(407,275,o),
(407,179,cs),
(407,127,o),
(385,86,o),
(356,65,c),
(258,144,o),
(120,226,o),
(120,322,cs)
);
}
);
width = 517;
},
{
associatedMasterId = m005;
hints = (
{
horizontal = 1;
place = (-228,42);
type = Stem;
},
{
horizontal = 1;
place = (687,42);
type = Stem;
},
{
place = (46,168);
type = Stem;
},
{
place = (415,168);
type = Stem;
},
{
place = (365,178);
type = Stem;
},
{
place = (86,178);
type = Stem;
}
);
layerId = "E0989092-07D5-4BE4-A82B-4E03160A36DB";
name = Black;
shapes = (
{
closed = 1;
nodes = (
(414,-228,o),
(515,-159,o),
(515,-62,cs),
(515,-29,o),
(488,3,o),
(449,37,c),
(514,71,o),
(555,137,o),
(555,227,cs),
(555,375,o),
(236,507,o),
(236,601,cs),
(236,663,o),
(261,687,o),
(290,687,cs),
(311,687,o),
(350,691,o),
(387,662,c),
(403,546,l),
(504,546,l),
(504,666,l),
(478,694,o),
(367,729,o),
(290,729,cs),
(159,729,o),
(58,660,o),
(58,563,cs),
(58,530,o),
(85,498,o),
(124,464,c),
(59,430,o),
(18,364,o),
(18,274,cs),
(18,127,o),
(337,-6,o),
(337,-100,cs),
(337,-162,o),
(312,-186,o),
(283,-186,cs),
(263,-186,o),
(226,-194,o),
(186,-160,c),
(170,-35,l),
(70,-35,l),
(70,-165,l),
(95,-193,o),
(206,-228,o),
(283,-228,cs)
);
},
{
closed = 1;
nodes = (
(186,357,o),
(192,384,o),
(199,404,c),
(289,337,o),
(387,264,o),
(387,179,cs),
(387,144,o),
(381,117,o),
(374,97,c),
(284,164,o),
(186,237,o),
(186,322,cs)
);
}
);
width = 603;
},
{
associatedMasterId = m005;
layerId = "DC649081-A1EF-4DB9-ADD4-D0F9CBFF5DD6";
name = Regular;
shapes = (
{
closed = 1;
nodes = (
(467,14,o),
(540,102,o),
(540,227,cs),
(540,377,o),
(221,522,o),
(221,601,cs),
(221,653,o),
(261,690,o),
(318,690,cs),
(356,690,o),
(401,673,o),
(427,650,c),
(441,549,l),
(489,549,l),
(489,678,l),
(443,706,o),
(372,726,o),
(318,726,cs),
(207,726,o),
(129,658,o),
(129,563,cs),
(129,442,o),
(458,327,o),
(458,179,cs),
(458,104,o),
(413,51,o),
(364,51,cs),
(301,51,o),
(228,100,o),
(188,170,c),
(173,161,l),
(222,75,o),
(301,14,o),
(364,14,cs)
);
},
{
closed = 1;
nodes = (
(422,-225,o),
(500,-157,o),
(500,-62,cs),
(500,59,o),
(171,174,o),
(171,322,cs),
(171,397,o),
(216,450,o),
(265,450,cs),
(330,450,o),
(403,400,o),
(441,330,c),
(456,340,l),
(407,426,o),
(328,487,o),
(265,487,cs),
(162,487,o),
(89,399,o),
(89,274,cs),
(89,125,o),
(408,-21,o),
(408,-100,cs),
(408,-152,o),
(368,-189,o),
(311,-189,cs),
(273,-189,o),
(227,-172,o),
(202,-148,c),
(188,-38,l),
(141,-38,l),
(141,-177,l),
(186,-205,o),
(257,-225,o),
(311,-225,cs)
);
}
);
width = 639;
},
{
associatedMasterId = m005;
hints = (
{
horizontal = 1;
place = (-79,113);
type = Stem;
},
{
horizontal = 1;
place = (571,113);
type = Stem;
},
{
place = (116,202);
type = Stem;
},
{
place = (378,202);
type = Stem;
},
{
place = (342,209);
type = Stem;
},
{
place = (144,209);
type = Stem;
}
);
layerId = m003;
name = BlackCondensed;
shapes = (
{
closed = 1;
nodes = (
(377,-228,o),
(449,-159,o),
(449,-62,cs),
(449,-29,o),
(430,3,o),
(402,37,c),
(448,71,o),
(517,137,o),
(517,227,cs),
(517,375,o),
(251,507,o),
(251,601,cs),
(251,663,o),
(268,687,o),
(289,687,cs),
(304,687,o),
(352,691,o),
(378,662,c),
(389,546,l),
(461,546,l),
(461,666,l),
(442,694,o),
(364,729,o),
(289,729,cs),
(196,729,o),
(124,660,o),
(124,563,cs),
(124,530,o),
(143,498,o),
(171,464,c),
(125,430,o),
(56,364,o),
(56,274,cs),
(56,127,o),
(322,-6,o),
(322,-100,cs),
(322,-162,o),
(305,-186,o),
(284,-186,cs),
(270,-186,o),
(224,-194,o),
(195,-160,c),
(184,-35,l),
(113,-35,l),
(113,-165,l),
(131,-193,o),
(209,-228,o),
(284,-228,cs)
);
},
{
closed = 1;
nodes = (
(195,357,o),
(219,384,o),
(224,404,c),
(288,337,o),
(378,264,o),
(378,179,cs),
(378,144,o),
(354,117,o),
(349,97,c),
(285,164,o),
(195,237,o),
(195,322,cs)
);
}
);
width = 603;
},
{
layerId = m005;
shapes = (
{
closed = 1;
nodes = (
(366,89,o),
(450,165,o),
(450,273,cs),
(450,424,o),
(160,429,o),
(162,555,cs),
(163,602,o),
(207,636,o),
(273,636,cs),
(327,636,o),
(362,594,o),
(357,535,c),
(388,535,l),
(387,572,o),
(389,618,o),
(392,646,c),
(350,663,o),
(301,675,o),
(273,675,cs),
(167,675,o),
(95,607,o),
(95,510,cs),
(95,351,o),
(381,366,o),
(381,235,cs),
(381,166,o),
(321,122,o),
(237,129,c),
(247,89,l)
);
},
{
closed = 1;
nodes = (
(127,404,o),
(45,327,o),
(45,219,cs),
(45,68,o),
(336,63,o),
(333,-63,cs),
(332,-111,o),
(285,-145,o),
(223,-145,cs),
(168,-145,o),
(133,-103,o),
(139,-44,c),
(108,-44,l),
(109,-103,o),
(108,-149,o),
(105,-155,c),
(147,-172,o),
(196,-184,o),
(223,-184,cs),
(327,-184,o),
(402,-116,o),
(402,-19,cs),
(402,140,o),
(116,125,o),
(116,257,cs),
(116,326,o),
(173,369,o),
(257,362,c),
(246,404,l)
);
}
);
width = 495;
},
{
associatedMasterId = m005;
layerId = "3D2CBD54-4E8F-46D6-B855-3F6BA3543F14";
name = "8. Jan. 24, 18:35";
shapes = (
{
closed = 1;
nodes = (
(467,14,o),
(540,102,o),
(540,227,cs),
(540,377,o),
(221,522,o),
(221,601,cs),
(221,653,o),
(261,690,o),
(318,690,cs),
(356,690,o),
(401,673,o),
(427,650,c),
(441,549,l),
(489,549,l),
(489,678,l),
(443,706,o),
(372,726,o),
(318,726,cs),
(207,726,o),
(129,658,o),
(129,563,cs),
(129,442,o),
(458,327,o),
(458,179,cs),
(458,104,o),
(413,51,o),
(364,51,cs),
(301,51,o),
(228,100,o),
(188,170,c),
(173,161,l),
(222,75,o),
(301,14,o),
(364,14,cs)
);
},
{
closed = 1;
nodes = (
(422,-225,o),
(500,-157,o),
(500,-62,cs),
(500,59,o),
(171,174,o),
(171,322,cs),
(171,397,o),
(216,450,o),
(265,450,cs),
(330,450,o),
(403,400,o),
(441,330,c),
(456,340,l),
(407,426,o),
(328,487,o),
(265,487,cs),
(162,487,o),
(89,399,o),
(89,274,cs),
(89,125,o),
(408,-21,o),
(408,-100,cs),
(408,-152,o),
(368,-189,o),
(311,-189,cs),
(273,-189,o),
(227,-172,o),
(202,-148,c),
(188,-38,l),
(141,-38,l),
(141,-177,l),
(186,-205,o),
(257,-225,o),
(311,-225,cs)
);
}
);
width = 639;
}
);
unicode = 167;
},
{
glyphname = degree;
lastChange = "2025-01-05 22:31:31 +0000";
layers = (
{
layerId = m005;
shapes = (
{
closed = 1;
nodes = (
(252,421,o),
(306,478,o),
(306,558,cs),
(306,638,o),
(250,694,o),
(170,694,cs),
(90,694,o),
(36,638,o),
(36,558,cs),
(36,478,o),
(92,421,o),
(172,421,cs)
);
},
{
closed = 1;
nodes = (
(116,461,o),
(76,501,o),
(76,558,cs),
(76,614,o),
(114,654,o),
(170,654,cs),
(226,654,o),
(266,614,o),
(266,558,cs),
(266,501,o),
(228,461,o),
(172,461,cs)
);
}
);
width = 342;
}
);
unicode = 176;
},
{
color = 0;
export = 0;
glyphname = copyright;
lastChange = "2025-01-05 22:31:54 +0000";
layers = (
{
associatedMasterId = m005;
layerId = m01;
name = Regular;
shapes = (
{
closed = 1;
nodes = (
(642,-84,o),
(814,88,o),
(814,301,cs),
(814,514,o),
(642,686,o),
(429,686,cs),
(216,686,o),
(44,514,o),
(44,301,cs),
(44,88,o),
(216,-84,o),
(429,-84,cs)
);
},
{
closed = 1;
nodes = (
(80,494,o),
(236,650,o),
(429,650,cs),
(622,650,o),
(778,494,o),
(778,301,cs),
(778,108,o),
(622,-48,o),
(429,-48,cs),
(236,-48,o),
(80,108,o),
(80,301,cs)
);
},
{
closed = 1;
nodes = (
(214,159,o),
(308,60,o),
(441,60,cs),
(485,60,o),
(549,78,o),
(596,104,c),
(596,221,l),
(551,221,l),
(551,165,o),
(511,126,o),
(454,126,cs),
(367,126,o),
(305,215,o),
(305,342,cs),
(305,419,o),
(356,473,o),
(427,473,cs),
(500,473,o),
(551,434,o),
(551,378,c),
(596,378,l),
(596,495,l),
(549,521,o),
(485,539,o),
(441,539,cs),
(308,538,o),
(214,438,o),
(214,298,cs)
);
}
);
width = 858;
},
{
associatedMasterId = m005;
hints = (
{
horizontal = 1;
place = (-84,36);
type = Stem;
},
{
horizontal = 1;
place = (60,66);
type = Stem;
},
{
horizontal = 1;
place = (473,66);
type = Stem;
},
{
horizontal = 1;
place = (650,36);
type = Stem;
},
{
place = (0,36);
type = Stem;
},
{
place = (170,91);
type = Stem;
},
{
place = (507,45);
type = Stem;
},
{
place = (734,36);
type = Stem;
}
);
layerId = "E0989092-07D5-4BE4-A82B-4E03160A36DB";
name = Black;
shapes = (
{
closed = 1;
nodes = (
(642,-84,o),
(814,88,o),
(814,301,cs),
(814,514,o),
(642,686,o),
(429,686,cs),
(216,686,o),
(44,514,o),
(44,301,cs),
(44,88,o),
(216,-84,o),
(429,-84,cs)
);
},
{
closed = 1;
nodes = (
(80,494,o),
(236,650,o),
(429,650,cs),
(622,650,o),
(778,494,o),
(778,301,cs),
(778,108,o),
(622,-48,o),
(429,-48,cs),
(236,-48,o),
(80,108,o),
(80,301,cs)
);
},
{
closed = 1;
nodes = (
(214,159,o),
(308,60,o),
(441,60,cs),
(485,60,o),
(549,78,o),
(596,104,c),
(596,221,l),
(551,221,l),
(551,165,o),
(511,126,o),
(454,126,cs),
(367,126,o),
(305,215,o),
(305,342,cs),
(305,419,o),
(356,473,o),
(427,473,cs),
(500,473,o),
(551,434,o),
(551,378,c),
(596,378,l),
(596,495,l),
(549,521,o),
(485,539,o),
(441,539,cs),
(308,538,o),
(214,438,o),
(214,298,cs)
);
}
);
width = 858;
},
{
associatedMasterId = m005;
hints = (
{
horizontal = 1;
place = (65,150);
type = Stem;
},
{
horizontal = 1;
place = (167,171);
type = Stem;
},
{
horizontal = 1;
place = (460,171);
type = Stem;
},
{
horizontal = 1;
place = (586,150);
type = Stem;
},
{
place = (124,150);
type = Stem;
},
{
place = (245,189);
type = Stem;
},
{
place = (484,156);
type = Stem;
},
{
place = (646,150);
type = Stem;
}
);
layerId = m003;
name = BlackCondensed;
shapes = (
{
closed = 1;
nodes = (
(580,-84,o),
(702,88,o),
(702,301,cs),
(702,514,o),
(580,686,o),
(429,686,cs),
(278,686,o),
(156,514,o),
(156,301,cs),
(156,88,o),
(278,-84,o),
(429,-84,cs)
);
},
{
closed = 1;
nodes = (
(181,494,o),
(292,650,o),
(429,650,cs),
(566,650,o),
(677,494,o),
(677,301,cs),
(677,108,o),
(566,-48,o),
(429,-48,cs),
(292,-48,o),
(181,108,o),
(181,301,cs)
);
},
{
closed = 1;
nodes = (
(276,159,o),
(343,60,o),
(438,60,cs),
(469,60,o),
(514,78,o),
(548,104,c),
(548,221,l),
(516,221,l),
(516,165,o),
(487,126,o),
(447,126,cs),
(385,126,o),
(341,215,o),
(341,342,cs),
(341,419,o),
(377,473,o),
(428,473,cs),
(479,473,o),
(516,434,o),
(516,378,c),
(548,378,l),
(548,495,l),
(514,521,o),
(469,539,o),
(438,539,cs),
(343,538,o),
(276,438,o),
(276,298,cs)
);
}
);
width = 858;
},
{
layerId = m005;
shapes = (
{
closed = 1;
nodes = (
(643,-84,o),
(801,76,o),
(801,301,cs),
(801,526,o),
(643,686,o),
(419,686,cs),
(195,686,o),
(36,526,o),
(36,301,cs),
(36,76,o),
(195,-84,o),
(419,-84,cs)
);
},
{
closed = 1;
nodes = (
(72,505,o),
(216,650,o),
(419,650,cs),
(622,650,o),
(765,505,o),
(765,301,cs),
(765,97,o),
(622,-48,o),
(419,-48,cs),
(216,-48,o),
(72,97,o),
(72,301,cs)
);
},
{
closed = 1;
nodes = (
(196,155,o),
(293,60,o),
(431,60,cs),
(469,60,o),
(529,78,o),
(576,104,c),
(576,201,l),
(541,201,l),
(541,140,o),
(501,96,o),
(444,96,cs),
(343,96,o),
(271,181,o),
(271,302,cs),
(271,420,o),
(331,503,o),
(417,503,cs),
(490,503,o),
(541,459,o),
(541,398,c),
(576,398,l),
(576,495,l),
(529,521,o),
(469,539,o),
(431,539,cs),
(293,538,o),
(196,435,o),
(196,290,cs)
);
}
);
width = 837;
}
);
unicode = 169;
},
{
color = 0;
export = 0;
glyphname = registered;
lastChange = "2025-01-05 22:32:06 +0000";
layers = (
{
associatedMasterId = m005;
layerId = m01;
name = Regular;
shapes = (
{
closed = 1;
nodes = (
(397,292,o),
(500,395,o),
(500,522,cs),
(500,649,o),
(397,752,o),
(270,752,cs),
(143,752,o),
(40,649,o),
(40,522,cs),
(40,395,o),
(143,292,o),
(270,292,cs)
);
},
{
closed = 1;
nodes = (
(72,632,o),
(160,720,o),
(270,720,cs),
(380,720,o),
(468,632,o),
(468,522,cs),
(468,412,o),
(380,324,o),
(270,324,cs),
(160,324,o),
(72,412,o),
(72,522,cs)
);
},
{
closed = 1;
nodes = (
(271,416,l),
(271,433,l),
(235,443,l),
(235,511,l),
(266,511,l),
(327,416,l),
(406,416,l),
(406,433,l),
(389,438,ls),
(376,442,o),
(363,449,o),
(359,455,cs),
(313,518,l),
(342,527,o),
(363,554,o),
(363,582,cs),
(363,614,o),
(327,637,o),
(275,637,cs),
(151,637,l),
(151,620,l),
(182,611,l),
(182,443,l),
(151,433,l),
(151,416,l)
);
},
{
closed = 1;
nodes = (
(235,611,l),
(264,611,ls),
(294,611,o),
(305,601,o),
(305,572,cs),
(305,544,o),
(288,533,o),
(265,533,cs),
(235,533,l)
);
}
);
width = 600;
},
{
associatedMasterId = m005;
hints = (
{
horizontal = 1;
place = (292,32);
type = Stem;
},
{
horizontal = 1;
place = (416,17);
type = Stem;
},
{
horizontal = 1;
place = (511,22);
type = Stem;
},
{
horizontal = 1;
place = (611,26);
type = Stem;
},
{
horizontal = 1;
place = (720,32);
type = Stem;
},
{
place = (70,32);
type = Stem;
},
{
place = (212,53);
type = Stem;
},
{
place = (335,58);
type = Stem;
},
{
place = (498,32);
type = Stem;
}
);
layerId = "E0989092-07D5-4BE4-A82B-4E03160A36DB";
name = Black;
shapes = (
{
closed = 1;
nodes = (
(417,292,o),
(520,395,o),
(520,522,cs),
(520,649,o),
(417,752,o),
(290,752,cs),
(163,752,o),
(60,649,o),
(60,522,cs),
(60,395,o),
(163,292,o),
(290,292,cs)
);
},
{
closed = 1;
nodes = (
(92,632,o),
(180,720,o),
(290,720,cs),
(400,720,o),
(488,632,o),
(488,522,cs),
(488,412,o),
(400,324,o),
(290,324,cs),
(180,324,o),
(92,412,o),
(92,522,cs)
);
},
{
closed = 1;
nodes = (
(291,416,l),
(291,433,l),
(255,443,l),
(255,511,l),
(286,511,l),
(347,416,l),
(426,416,l),
(426,433,l),
(409,438,ls),
(396,442,o),
(383,449,o),
(379,455,cs),
(333,518,l),
(362,527,o),
(383,554,o),
(383,582,cs),
(383,614,o),
(347,637,o),
(295,637,cs),
(171,637,l),
(171,620,l),
(202,611,l),
(202,443,l),
(171,433,l),
(171,416,l)
);
},
{
closed = 1;
nodes = (
(255,611,l),
(284,611,ls),
(314,611,o),
(325,601,o),
(325,572,cs),
(325,544,o),
(308,533,o),
(285,533,cs),
(255,533,l)
);
}
);
width = 600;
},
{
associatedMasterId = m005;
hints = (
{
horizontal = 1;
place = (291,107);
type = Stem;
},
{
horizontal = 1;
place = (379,96);
type = Stem;
},
{
horizontal = 1;
place = (447,100);
type = Stem;
},
{
horizontal = 1;
place = (518,103);
type = Stem;
},
{
horizontal = 1;
place = (595,107);
type = Stem;
},
{
place = (134,107);
type = Stem;
},
{
place = (235,122);
type = Stem;
},
{
place = (322,125);
type = Stem;
},
{
place = (438,107);
type = Stem;
}
);
layerId = m003;
name = BlackCondensed;
shapes = (
{
closed = 1;
nodes = (
(380,292,o),
(453,395,o),
(453,522,cs),
(453,649,o),
(380,752,o),
(290,752,cs),
(200,752,o),
(127,649,o),
(127,522,cs),
(127,395,o),
(200,292,o),
(290,292,cs)
);
},
{
closed = 1;
nodes = (
(149,632,o),
(212,720,o),
(290,720,cs),
(368,720,o),
(431,632,o),
(431,522,cs),
(431,412,o),
(368,324,o),
(290,324,cs),
(212,324,o),
(149,412,o),
(149,522,cs)
);
},
{
closed = 1;
nodes = (
(291,416,l),
(291,433,l),
(265,443,l),
(265,511,l),
(287,511,l),
(330,416,l),
(387,416,l),
(387,433,l),
(374,438,ls),
(365,442,o),
(356,449,o),
(353,455,cs),
(321,518,l),
(341,527,o),
(356,554,o),
(356,582,cs),
(356,614,o),
(330,637,o),
(294,637,cs),
(206,637,l),
(206,620,l),
(228,611,l),
(228,443,l),
(206,433,l),
(206,416,l)
);
},
{
closed = 1;
nodes = (
(265,611,l),
(286,611,ls),
(307,611,o),
(315,601,o),
(315,572,cs),
(315,544,o),
(303,533,o),
(286,533,cs),
(265,533,l)
);
}
);
width = 600;
},
{
layerId = m005;
shapes = (
{
closed = 1;
nodes = (
(392,292,o),
(495,395,o),
(495,522,cs),
(495,649,o),
(392,752,o),
(265,752,cs),
(138,752,o),
(36,649,o),
(36,522,cs),
(36,395,o),
(138,292,o),
(265,292,cs)
);
},
{
closed = 1;
nodes = (
(68,632,o),
(155,720,o),
(265,720,cs),
(375,720,o),
(463,632,o),
(463,522,cs),
(463,412,o),
(375,324,o),
(265,324,cs),
(155,324,o),
(68,412,o),
(68,522,cs)
);
},
{
closed = 1;
nodes = (
(269,416,l),
(269,425,l),
(233,435,l),
(233,511,l),
(270,511,l),
(317,416,l),
(396,416,l),
(396,425,l),
(379,430,ls),
(366,434,o),
(352,441,o),
(349,447,cs),
(311,518,l),
(340,527,o),
(353,547,o),
(353,575,cs),
(353,607,o),
(325,637,o),
(273,637,cs),
(150,637,l),
(150,628,l),
(181,619,l),
(181,435,l),
(150,425,l),
(150,416,l)
);
},
{
closed = 1;
nodes = (
(230,619,l),
(259,619,ls),
(289,619,o),
(300,601,o),
(300,572,cs),
(300,544,o),
(283,525,o),
(260,525,cs),
(230,525,l)
);
}
);
width = 531;
}
);
unicode = 174;
},
{
color = 0;
export = 0;
glyphname = trademark;
lastChange = "2025-01-05 22:32:18 +0000";
layers = (
{
associatedMasterId = m005;
layerId = m01;
name = Regular;
shapes = (
{
closed = 1;
nodes = (
(376,669,l),
(376,533,l),
(361,526,l),
(361,515,l),
(432,515,l),
(432,526,l),
(416,533,l),
(416,675,l),
(444,683,l),
(444,698,l),
(361,698,l),
(319,592,l),
(262,698,l),
(196,698,l),
(196,683,l),
(221,675,l),
(221,533,l),
(206,526,l),
(206,515,l),
(263,515,l),
(263,526,l),
(247,533,l),
(247,643,l),
(313,511,l)
);
},
{
closed = 1;
nodes = (
(159,515,l),
(159,526,l),
(123,533,l),
(123,680,l),
(149,680,l),
(170,626,l),
(184,626,l),
(176,698,l),
(31,698,l),
(23,626,l),
(39,626,l),
(59,680,l),
(83,680,l),
(83,533,l),
(48,526,l),
(48,515,l)
);
}
);
width = 507;
},
{
associatedMasterId = m005;
hints = (
{
horizontal = 1;
place = (515,14.5);
type = Stem;
},
{
horizontal = 1;
place = (680,18);
type = Stem;
},
{
place = (75,40);
type = Stem;
},
{
place = (213,26);
type = Stem;
},
{
place = (368,40);
type = Stem;
},
{
horizontal = 1;
place = (683,15);
type = Stem;
}
);
layerId = "E0989092-07D5-4BE4-A82B-4E03160A36DB";
name = Black;
shapes = (
{
closed = 1;
nodes = (
(356,669,l),
(356,533,l),
(341,526,l),
(341,515,l),
(429,515,l),
(429,526,l),
(396,533,l),
(396,675,l),
(424,683,l),
(424,698,l),
(341,698,l),
(299,592,l),
(242,698,l),
(176,698,l),
(176,683,l),
(201,675,l),
(201,533,l),
(169,526,l),
(169,515,l),
(243,515,l),
(243,526,l),
(227,533,l),
(227,643,l),
(293,511,l)
);
},
{
closed = 1;
nodes = (
(139,515,l),
(139,526,l),
(103,533,l),
(103,680,l),
(129,680,l),
(150,626,l),
(164,626,l),
(156,698,l),
(11,698,l),
(3,626,l),
(19,626,l),
(39,680,l),
(63,680,l),
(63,533,l),
(28,526,l),
(28,515,l)
);
}
);
width = 512;
},
{
associatedMasterId = m005;
hints = (
{
horizontal = 1;
place = (428,73);
type = Stem;
},
{
horizontal = 1;
place = (545,75);
type = Stem;
},
{
place = (116,91);
type = Stem;
},
{
place = (214,81);
type = Stem;
},
{
place = (324,91);
type = Stem;
},
{
horizontal = 1;
place = (548,73);
type = Stem;
}
);
layerId = m003;
name = BlackCondensed;
shapes = (
{
closed = 1;
nodes = (
(315,669,l),
(315,533,l),
(305,526,l),
(305,515,l),
(367,515,l),
(367,526,l),
(344,533,l),
(344,675,l),
(364,683,l),
(364,698,l),
(305,698,l),
(275,592,l),
(234,698,l),
(188,698,l),
(188,683,l),
(205,675,l),
(205,533,l),
(183,526,l),
(183,515,l),
(235,515,l),
(235,526,l),
(224,533,l),
(224,643,l),
(271,511,l)
);
},
{
closed = 1;
nodes = (
(161,515,l),
(161,526,l),
(136,533,l),
(136,680,l),
(154,680,l),
(169,626,l),
(179,626,l),
(173,698,l),
(70,698,l),
(65,626,l),
(76,626,l),
(90,680,l),
(107,680,l),
(107,533,l),
(83,526,l),
(83,515,l)
);
}
);
width = 512;
},
{
layerId = m005;
shapes = (
{
closed = 1;
nodes = (
(381,669,l),
(381,533,l),
(366,526,l),
(366,515,l),
(429,515,l),
(429,526,l),
(413,533,l),
(413,675,l),
(441,683,l),
(441,698,l),
(366,698,l),
(320,584,l),
(259,698,l),
(206,698,l),
(206,683,l),
(231,675,l),
(231,533,l),
(216,526,l),
(216,515,l),
(268,515,l),
(268,526,l),
(252,533,l),
(252,643,l),
(318,511,l)
);
},
{
closed = 1;
nodes = (
(163,515,l),
(163,526,l),
(122,533,l),
(122,680,l),
(153,680,l),
(174,626,l),
(188,626,l),
(180,698,l),
(35,698,l),
(27,626,l),
(43,626,l),
(63,680,l),
(92,680,l),
(92,533,l),
(52,526,l),
(52,515,l)
);
}
);
width = 477;
}
);
unicode = 8482;
},
{
color = 3;
export = 0;
glyphname = bar;
lastChange = "2025-01-05 22:33:20 +0000";
layers = (
{
associatedMasterId = m005;
layerId = m01;
name = Regular;
shapes = (
{
closed = 1;
nodes = (
(181,-166,l),
(181,717,l),
(111,667,l),
(111,-216,l)
);
}
);
width = 292;
},
{
associatedMasterId = m005;
hints = (
{
horizontal = 1;
place = (717,-20);
target = down;
type = TopGhost;
},
{
place = (111,70);
type = Stem;
}
);
layerId = "E0989092-07D5-4BE4-A82B-4E03160A36DB";
name = Black;
shapes = (
{
closed = 1;
nodes = (
(181,-166,l),
(181,717,l),
(111,667,l),
(111,-216,l)
);
}
);
width = 302;
},
{
associatedMasterId = m005;
hints = (
{
horizontal = 1;
place = (551,-20);
target = down;
type = TopGhost;
},
{
place = (121,92);
type = Stem;
}
);
layerId = m003;
name = BlackCondensed;
shapes = (
{
closed = 1;
nodes = (
(171,-166,l),
(171,717,l),
(121,667,l),
(121,-216,l)
);
}
);
width = 302;
},
{
layerId = m005;
shapes = (
{
closed = 1;
nodes = (
(117,-206,l),
(117,677,l),
(90,667,l),
(90,-216,l)
);
}
);
width = 207;
}
);
unicode = 124;
},
{
color = 3;
export = 0;
glyphname = brokenbar;
lastChange = "2025-01-05 22:34:02 +0000";
layers = (
{
associatedMasterId = m005;
layerId = m01;
name = Regular;
shapes = (
{
closed = 1;
nodes = (
(181,334,l),
(181,717,l),
(111,667,l),
(111,284,l)
);
},
{
closed = 1;
nodes = (
(181,-166,l),
(181,217,l),
(111,167,l),
(111,-216,l)
);
}
);
width = 292;
},
{
associatedMasterId = m005;
hints = (
{
horizontal = 1;
place = (717,-20);
target = down;
type = TopGhost;
},
{
place = (111,70);
type = Stem;
}
);
layerId = "E0989092-07D5-4BE4-A82B-4E03160A36DB";
name = Black;
shapes = (
{
closed = 1;
nodes = (
(171,334,l),
(171,717,l),
(101,667,l),
(101,284,l)
);
},
{
closed = 1;
nodes = (
(171,-166,l),
(171,217,l),
(101,167,l),
(101,-216,l)
);
}
);
width = 282;
},
{
associatedMasterId = m005;
hints = (
{
horizontal = 1;
place = (549,-20);
target = down;
type = TopGhost;
},
{
place = (118,89);
type = Stem;
}
);
layerId = m003;
name = BlackCondensed;
shapes = (
{
closed = 1;
nodes = (
(161,334,l),
(161,717,l),
(111,667,l),
(111,284,l)
);
},
{
closed = 1;
nodes = (
(161,-166,l),
(161,217,l),
(111,167,l),
(111,-216,l)
);
}
);
width = 282;
},
{
layerId = m005;
shapes = (
{
closed = 1;
nodes = (
(153,326,l),
(153,709,l),
(90,707,l),
(90,324,l)
);
},
{
closed = 1;
nodes = (
(153,-174,l),
(153,209,l),
(90,207,l),
(90,-176,l)
);
}
);
width = 243;
}
);
unicode = 166;
},
